<svg width="1728" height="696" viewBox="0 0 1728 696" fill="none" xmlns="http://www.w3.org/2000/svg">
<g clip-path="url(#clip0_394_3113)">
<mask id="mask0_394_3113" style="mask-type:alpha" maskUnits="userSpaceOnUse" x="0" y="-1" width="1728" height="619">
<path d="M0 -1H1728V618H500C223.858 618 0 394.142 0 118V-1Z" fill="#D9D9D9"/>
</mask>
<g mask="url(#mask0_394_3113)">
<rect opacity="0.41" width="1728" height="1047" fill="#F4E1A1"/>
</g>
<path d="M1213.6 630.275H1125.57C1124.03 630.275 1122.55 629.664 1121.46 628.575C1120.37 627.486 1119.76 626.009 1119.76 624.469C1119.76 622.929 1120.37 621.452 1121.46 620.363C1122.55 619.274 1124.03 618.662 1125.57 618.662H1213.6C1215.14 618.662 1216.61 619.274 1217.7 620.363C1218.79 621.452 1219.4 622.929 1219.4 624.469C1219.4 626.009 1218.79 627.486 1217.7 628.575C1216.61 629.664 1215.14 630.275 1213.6 630.275ZM973.892 477.927H973.88C973.753 477.925 973.628 477.899 973.511 477.849C973.394 477.799 973.288 477.726 973.199 477.635C973.111 477.544 973.041 477.436 972.993 477.318C972.946 477.2 972.923 477.074 972.924 476.947L974.316 367.345C974.312 366.355 973.916 365.407 973.215 364.709C972.514 364.01 971.564 363.618 970.574 363.617H944.141C943.149 363.619 942.199 364.013 941.498 364.714C940.797 365.415 940.403 366.365 940.401 367.357V369.486C940.399 370.991 939.799 372.433 938.735 373.497C937.67 374.561 936.227 375.159 934.722 375.161H820.788C819.796 375.161 818.844 375.555 818.143 376.257C817.441 376.958 817.046 377.91 817.045 378.902V388.169C817.045 388.426 816.943 388.672 816.761 388.854C816.58 389.035 816.334 389.137 816.077 389.137C815.82 389.137 815.574 389.035 815.393 388.854C815.211 388.672 815.109 388.426 815.109 388.169V378.902C815.111 377.397 815.71 375.954 816.775 374.889C817.84 373.825 819.283 373.227 820.788 373.225H934.722C935.714 373.225 936.666 372.831 937.367 372.13C938.069 371.428 938.464 370.478 938.466 369.486V367.357C938.468 365.852 939.066 364.41 940.13 363.346C941.194 362.282 942.636 361.684 944.141 361.682H970.574C972.079 361.683 973.522 362.281 974.586 363.345C975.651 364.409 976.249 365.852 976.251 367.357L974.86 476.972C974.856 477.227 974.753 477.469 974.572 477.648C974.39 477.827 974.146 477.927 973.892 477.927Z" fill="black"/>
<path d="M830.451 481.142H969.183C969.903 481.141 970.614 480.976 971.26 480.658C971.906 480.341 972.471 479.879 972.911 479.309C973.35 478.739 973.654 478.075 973.797 477.37C973.94 476.664 973.92 475.935 973.737 475.238L951.691 391.079C951.428 390.071 950.838 389.179 950.013 388.543C949.189 387.907 948.177 387.562 947.135 387.562H803.444C802.703 387.562 801.972 387.737 801.311 388.073C800.65 388.41 800.077 388.897 799.641 389.496C799.204 390.095 798.914 390.789 798.796 391.521C798.678 392.253 798.735 393.003 798.961 393.709L825.966 477.87C826.271 478.82 826.869 479.649 827.675 480.237C828.481 480.825 829.453 481.142 830.451 481.142Z" fill="#F8D24B"/>
<path d="M1515.37 424.682C1515.01 424.682 1514.65 424.649 1514.29 424.585C1504.38 422.771 1503.2 396.374 1503.1 393.37C1503.66 386.216 1502.75 379.023 1500.43 372.232C1489.21 374.503 1479.53 372.399 1471.62 365.973C1447.62 346.472 1447.87 294.392 1447.9 292.184C1447.9 291.929 1448 291.685 1448.18 291.506C1448.36 291.326 1448.61 291.226 1448.86 291.226H1448.87C1449 291.227 1449.13 291.253 1449.24 291.303C1449.36 291.353 1449.47 291.425 1449.55 291.516C1449.64 291.607 1449.71 291.714 1449.76 291.832C1449.81 291.95 1449.83 292.076 1449.83 292.203C1449.83 292.733 1449.56 345.562 1472.85 364.473C1480.46 370.662 1489.89 372.577 1500.84 370.167C1501.06 370.117 1501.3 370.148 1501.5 370.254C1501.7 370.361 1501.86 370.536 1501.94 370.748C1504.62 377.992 1505.67 385.734 1505.03 393.428C1505.29 401.035 1507.54 421.382 1514.64 422.68C1519.4 423.526 1528.42 416.44 1544.61 377.71C1544.72 377.488 1544.9 377.316 1545.14 377.23C1545.37 377.143 1545.62 377.147 1545.85 377.243C1546.08 377.338 1546.26 377.516 1546.36 377.742C1546.46 377.967 1546.47 378.222 1546.39 378.455C1533.41 409.522 1523.24 424.682 1515.37 424.682Z" fill="black"/>
<path d="M1476.61 339.026C1475.34 339.053 1474.09 338.702 1473.02 338.019C1472.18 337.383 1471.47 336.583 1470.95 335.668C1470.42 334.753 1470.09 333.741 1469.96 332.693C1469.53 330.196 1469.8 327.628 1470.74 325.276C1471.04 324.291 1471.37 323.209 1471.67 321.925C1472.54 318.141 1473.62 313.436 1471.72 308.959C1471.08 307.339 1470.09 305.876 1468.83 304.671C1467.58 303.466 1466.07 302.547 1464.42 301.976C1462.08 301.317 1459.59 301.439 1457.33 302.324C1457.21 302.377 1457.08 302.406 1456.95 302.407C1456.82 302.409 1456.69 302.384 1456.57 302.334C1456.44 302.284 1456.33 302.21 1456.24 302.117C1456.15 302.023 1456.08 301.912 1456.03 301.79C1455.99 301.668 1455.96 301.538 1455.97 301.407C1455.97 301.276 1456 301.148 1456.06 301.029C1456.11 300.911 1456.19 300.804 1456.29 300.717C1456.39 300.63 1456.5 300.564 1456.63 300.522C1459.29 299.479 1462.22 299.338 1464.97 300.12C1466.89 300.77 1468.65 301.829 1470.12 303.223C1471.59 304.617 1472.74 306.313 1473.49 308.195C1475.64 313.258 1474.44 318.517 1473.55 322.357C1473.25 323.691 1472.91 324.815 1472.59 325.839C1471.76 327.887 1471.5 330.128 1471.86 332.312C1471.94 333.106 1472.18 333.876 1472.56 334.578C1472.94 335.28 1473.46 335.9 1474.08 336.401C1474.77 336.769 1475.53 336.996 1476.3 337.07C1477.08 337.144 1477.86 337.063 1478.61 336.833C1480.77 336.289 1482.64 334.953 1483.86 333.09C1484.01 332.885 1484.23 332.746 1484.48 332.702C1484.73 332.658 1484.98 332.712 1485.19 332.853C1485.4 332.994 1485.54 333.211 1485.59 333.457C1485.65 333.704 1485.6 333.961 1485.46 334.174C1484.5 335.647 1483.19 336.86 1481.65 337.706C1480.1 338.553 1478.38 339.005 1476.61 339.026ZM1479.77 304.31C1479.59 304.31 1479.42 304.264 1479.27 304.175C1479.12 304.087 1479 303.96 1478.92 303.808C1478.83 303.656 1478.79 303.484 1478.8 303.31C1478.81 303.137 1478.86 302.968 1478.95 302.822C1485.43 292.666 1500.39 298.424 1501.03 298.676C1501.26 298.773 1501.45 298.959 1501.55 299.192C1501.64 299.425 1501.65 299.688 1501.55 299.924C1501.46 300.159 1501.28 300.349 1501.05 300.452C1500.82 300.555 1500.56 300.564 1500.32 300.476C1500.18 300.42 1486.2 295.06 1480.58 303.863C1480.5 303.999 1480.37 304.112 1480.23 304.19C1480.09 304.267 1479.93 304.31 1479.77 304.31Z" fill="black"/>
<path d="M1489.19 322.645C1491.2 322.355 1492.44 319.49 1491.97 316.248C1491.5 313.005 1489.5 310.612 1487.49 310.903C1485.48 311.193 1484.23 314.058 1484.7 317.3C1485.17 320.543 1487.18 322.936 1489.19 322.645Z" fill="black"/>
<path d="M1462.45 326.515C1464.46 326.225 1465.71 323.36 1465.24 320.118C1464.77 316.875 1462.76 314.482 1460.75 314.773C1458.75 315.064 1457.5 317.928 1457.97 321.17C1458.44 324.413 1460.45 326.806 1462.45 326.515Z" fill="black"/>
<path d="M1487.49 348.725C1487.24 348.724 1487 348.628 1486.82 348.455C1486.64 348.283 1486.53 348.048 1486.52 347.799C1486.51 347.55 1486.6 347.307 1486.76 347.12C1486.93 346.932 1487.16 346.816 1487.4 346.793C1492.8 346.319 1496.37 344.686 1498 341.937C1498.6 340.711 1498.94 339.372 1498.99 338.007C1499.04 336.641 1498.79 335.282 1498.28 334.017C1498.18 333.781 1498.17 333.515 1498.27 333.276C1498.36 333.037 1498.55 332.846 1498.78 332.744C1499.02 332.642 1499.28 332.638 1499.52 332.733C1499.76 332.827 1499.95 333.013 1500.05 333.248C1500.7 334.793 1500.99 336.46 1500.93 338.131C1500.86 339.803 1500.43 341.439 1499.67 342.928C1497.69 346.242 1493.62 348.191 1487.57 348.721C1487.55 348.723 1487.52 348.725 1487.49 348.725ZM1501.05 370.264C1511.65 368.944 1521.31 363.538 1527.98 355.198C1524.8 369.715 1516.3 382.517 1504.16 391.088C1504.6 384.005 1503.54 376.908 1501.05 370.264Z" fill="black"/>
<path d="M1479.95 517.483C1479.71 517.483 1479.47 517.388 1479.29 517.216C1475.16 513.297 1470.18 510.384 1464.74 508.706L1462.83 508.117C1462.63 508.055 1462.45 507.927 1462.33 507.754C1462.21 507.582 1462.14 507.373 1462.15 507.161L1463.84 456.338L1451.9 449.099C1451.69 448.972 1451.54 448.771 1451.47 448.535C1451.4 448.299 1451.43 448.047 1451.54 447.829C1463.74 423.873 1481.28 403.033 1502.79 386.909C1502.89 386.833 1503.01 386.778 1503.13 386.746C1503.25 386.715 1503.38 386.708 1503.51 386.726C1503.63 386.744 1503.76 386.786 1503.86 386.851C1503.97 386.916 1504.07 387.001 1504.15 387.103C1504.22 387.205 1504.28 387.32 1504.31 387.443C1504.34 387.567 1504.35 387.695 1504.33 387.821C1504.31 387.946 1504.27 388.067 1504.2 388.177C1504.14 388.286 1504.05 388.382 1503.95 388.458C1482.92 404.223 1465.73 424.549 1453.67 447.91L1465.33 454.975C1465.48 455.064 1465.6 455.191 1465.68 455.342C1465.76 455.493 1465.8 455.663 1465.8 455.834L1464.11 506.486L1465.31 506.855C1470.91 508.582 1476.04 511.548 1480.32 515.534C1486.46 515.31 1559.55 512.631 1567.6 512.093C1567.81 512.083 1568.01 512.02 1568.19 511.91C1568.37 511.799 1568.52 511.645 1568.62 511.462C1571.85 506.517 1564.02 481.809 1560.73 472.706C1560.68 472.56 1560.66 472.404 1560.68 472.25C1560.7 472.096 1560.76 471.949 1560.85 471.822C1560.94 471.694 1561.05 471.591 1561.19 471.519C1561.33 471.447 1561.48 471.41 1561.64 471.41C1565.98 471.41 1577.43 467.593 1594.75 460.371C1602.98 456.938 1611.48 453.392 1619.07 449.726C1602.3 419.06 1576.45 394.336 1545.07 378.949C1544.84 378.835 1544.66 378.635 1544.58 378.392C1544.5 378.149 1544.52 377.883 1544.63 377.653C1544.74 377.422 1544.94 377.246 1545.19 377.163C1545.43 377.08 1545.69 377.097 1545.92 377.21C1577.98 392.928 1604.31 418.27 1621.25 449.691C1621.31 449.806 1621.35 449.932 1621.37 450.062C1621.38 450.192 1621.36 450.323 1621.32 450.448C1621.28 450.572 1621.22 450.687 1621.13 450.786C1621.05 450.885 1620.94 450.965 1620.83 451.023C1612.96 454.87 1604.08 458.575 1595.49 462.16C1579.21 468.946 1568.3 472.674 1562.98 473.262C1565.33 479.932 1574.26 506.375 1570.24 512.521C1569.97 512.955 1569.61 513.319 1569.17 513.581C1568.73 513.843 1568.24 513.996 1567.73 514.026C1559.34 514.586 1480.78 517.452 1479.99 517.483H1479.95Z" fill="black"/>
<path d="M1545.5 434.34L1560.94 473.516L1571.56 471.098L1545.5 434.34ZM1465.76 456.245L1467.5 432.857L1460.01 453.231L1465.76 456.245Z" fill="black"/>
<path d="M1390.64 603.453C1389.62 603.455 1388.61 603.327 1387.63 603.069C1383.96 602.102 1381.04 599.324 1378.95 594.803C1376.43 596.38 1369.62 600.048 1364.08 597.644C1360.26 595.981 1357.89 591.816 1357.06 585.262C1356.28 578.536 1357.28 571.723 1359.97 565.508C1363.47 556.684 1368.29 548.441 1374.26 541.058C1366.62 545.166 1353.46 552.658 1346.99 558.749C1341.32 564.08 1335.54 564.207 1332.33 561.972C1329.43 559.959 1327.43 555.248 1330.46 548.061C1335.58 535.939 1364.01 513.2 1372.83 508.88C1369.62 506.151 1361.49 498.575 1360.06 490.982C1358.86 484.562 1359.75 479.686 1362.58 477.261C1364.97 475.199 1368.55 474.981 1373.2 476.612C1378.69 478.882 1383.88 481.819 1388.65 485.355C1394.75 489.474 1401.05 493.732 1407.25 494.94C1414.63 496.38 1422.15 497.263 1427.65 497.903C1430.89 498.285 1433.45 498.583 1435.2 498.892C1445.29 500.675 1469.92 505.891 1480.61 515.803C1480.8 515.978 1480.91 516.22 1480.92 516.477C1480.93 516.733 1480.84 516.983 1480.66 517.172C1480.49 517.36 1480.25 517.471 1479.99 517.481C1479.73 517.491 1479.48 517.399 1479.3 517.224C1468.98 507.662 1444.79 502.553 1434.87 500.797C1433.17 500.499 1430.51 500.187 1427.43 499.825C1421.9 499.179 1414.34 498.296 1406.88 496.841C1400.3 495.556 1393.82 491.187 1387.56 486.96C1382.93 483.522 1377.89 480.661 1372.56 478.439C1368.6 477.054 1365.67 477.152 1363.84 478.73C1361.59 480.658 1360.91 484.993 1361.97 490.628C1363.57 499.196 1375.18 508.315 1375.3 508.406C1375.44 508.517 1375.55 508.667 1375.61 508.838C1375.67 509.009 1375.69 509.194 1375.65 509.372C1375.61 509.55 1375.52 509.713 1375.4 509.843C1375.27 509.974 1375.11 510.066 1374.93 510.109C1369.58 511.412 1337.54 536.276 1332.24 548.814C1330.08 553.935 1330.54 558.368 1333.43 560.383C1336.01 562.171 1340.79 561.931 1345.66 557.338C1355.26 548.305 1378.25 536.761 1379.23 536.274C1379.44 536.169 1379.69 536.146 1379.91 536.21C1380.14 536.273 1380.34 536.419 1380.47 536.618C1380.6 536.818 1380.65 537.057 1380.61 537.292C1380.57 537.526 1380.45 537.739 1380.27 537.89C1371.61 544.895 1364.95 558.672 1361.75 566.261C1359.2 572.16 1358.24 578.629 1358.98 585.017C1359.72 590.843 1361.7 594.495 1364.85 595.865C1370.64 598.383 1378.73 592.631 1378.81 592.575C1378.93 592.489 1379.07 592.432 1379.21 592.406C1379.36 592.381 1379.5 592.389 1379.64 592.429C1379.78 592.469 1379.91 592.54 1380.02 592.638C1380.13 592.735 1380.22 592.856 1380.27 592.991C1382.14 597.555 1384.78 600.315 1388.11 601.198C1394.17 602.798 1400.75 597.735 1400.82 597.683C1401.01 597.535 1401.25 597.464 1401.48 597.481C1401.72 597.499 1401.95 597.604 1402.12 597.778C1402.74 598.576 1403.56 599.207 1404.48 599.617C1405.41 600.026 1406.43 600.2 1407.44 600.123C1413.44 599.38 1419.64 588.384 1423.35 581.813C1424.34 579.937 1425.44 578.122 1426.64 576.378C1428.97 573.382 1433.3 575.836 1439.29 579.22C1445.89 582.955 1454.09 587.6 1463.08 587.306L1466.17 587.209C1582.97 583.578 1653.6 575.745 1659.95 565.719C1670.26 549.449 1615.91 453.521 1615.36 452.553C1615.3 452.443 1615.26 452.321 1615.24 452.195C1615.22 452.069 1615.23 451.941 1615.27 451.818C1615.3 451.695 1615.36 451.58 1615.44 451.48C1615.51 451.379 1615.61 451.295 1615.72 451.232C1615.83 451.17 1615.95 451.129 1616.08 451.113C1616.21 451.097 1616.33 451.107 1616.46 451.14C1616.58 451.174 1616.7 451.232 1616.8 451.31C1616.9 451.388 1616.98 451.485 1617.04 451.595C1619.31 455.586 1672.51 549.511 1661.58 566.757C1652.41 581.236 1535.25 586.998 1466.23 589.143L1463.15 589.24C1453.61 589.544 1444.79 584.556 1438.34 580.905C1433.58 578.217 1429.47 575.892 1428.17 577.567C1427.03 579.24 1425.98 580.975 1425.03 582.765C1420.89 590.101 1414.64 601.182 1407.67 602.044C1406.51 602.162 1405.33 602.014 1404.23 601.609C1403.13 601.205 1402.13 600.555 1401.32 599.709C1398.19 601.946 1394.48 603.244 1390.64 603.453Z" fill="black"/>
<path d="M1401.42 599.411C1401.22 599.412 1401.04 599.355 1400.88 599.248C1400.72 599.141 1400.59 598.989 1400.52 598.811C1396.7 589.403 1416.16 559.891 1416.99 558.639C1417.07 558.533 1417.16 558.442 1417.26 558.371C1417.37 558.3 1417.48 558.25 1417.61 558.225C1417.73 558.2 1417.86 558.199 1417.99 558.224C1418.11 558.248 1418.23 558.297 1418.34 558.367C1418.44 558.437 1418.53 558.528 1418.61 558.633C1418.68 558.739 1418.73 558.857 1418.75 558.982C1418.78 559.107 1418.78 559.235 1418.75 559.36C1418.73 559.485 1418.68 559.603 1418.61 559.709C1413.11 567.999 1399.46 591.054 1402.31 598.08C1402.37 598.227 1402.39 598.386 1402.38 598.544C1402.36 598.702 1402.31 598.853 1402.22 598.985C1402.13 599.117 1402.01 599.225 1401.87 599.3C1401.73 599.374 1401.57 599.413 1401.42 599.413V599.411ZM1379.38 594.327L1379.3 594.323C1379.04 594.301 1378.8 594.179 1378.64 593.983C1378.47 593.787 1378.39 593.533 1378.41 593.278C1380.11 572.89 1399.38 547.508 1400.2 546.437C1400.35 546.233 1400.58 546.1 1400.84 546.066C1401.09 546.032 1401.35 546.1 1401.55 546.256C1401.76 546.412 1401.89 546.643 1401.93 546.898C1401.96 547.152 1401.89 547.41 1401.73 547.614C1401.54 547.874 1381.99 573.62 1380.34 593.44C1380.32 593.681 1380.21 593.906 1380.03 594.071C1379.85 594.235 1379.62 594.326 1379.38 594.327ZM1431.32 500.286C1431.15 500.287 1430.98 500.241 1430.83 500.153C1430.68 500.065 1430.56 499.94 1430.47 499.788C1430.39 499.637 1430.35 499.466 1430.35 499.293C1430.36 499.121 1430.41 498.952 1430.5 498.805L1459.19 452.718C1459.32 452.5 1459.54 452.345 1459.79 452.286C1460.04 452.228 1460.3 452.272 1460.52 452.408C1460.74 452.543 1460.9 452.76 1460.95 453.01C1461.01 453.261 1460.97 453.524 1460.83 453.742L1432.14 499.831C1432.06 499.971 1431.94 500.086 1431.79 500.165C1431.65 500.245 1431.49 500.287 1431.32 500.286ZM1655.12 609.84C1654.9 609.84 1654.7 609.77 1654.53 609.642C1654.36 609.514 1654.24 609.334 1654.18 609.13L1644.38 573.55C1644.34 573.428 1644.33 573.3 1644.35 573.174C1644.37 573.047 1644.41 572.925 1644.47 572.815C1644.53 572.704 1644.62 572.607 1644.72 572.529C1644.82 572.451 1644.93 572.394 1645.05 572.36C1645.3 572.295 1645.57 572.33 1645.79 572.456C1646.01 572.583 1646.17 572.792 1646.24 573.038L1656.05 608.617C1656.08 608.739 1656.09 608.868 1656.08 608.994C1656.06 609.12 1656.02 609.242 1655.96 609.352C1655.9 609.463 1655.81 609.56 1655.71 609.638C1655.61 609.716 1655.5 609.774 1655.37 609.807C1655.29 609.829 1655.2 609.84 1655.12 609.84ZM1463.12 609.84C1462.86 609.84 1462.61 609.738 1462.43 609.557C1462.25 609.375 1462.15 609.129 1462.15 608.872V588.274C1462.15 588.018 1462.25 587.771 1462.43 587.59C1462.61 587.408 1462.86 587.306 1463.12 587.306C1463.37 587.306 1463.62 587.408 1463.8 587.59C1463.98 587.771 1464.08 588.018 1464.08 588.274V608.872C1464.08 609.129 1463.98 609.375 1463.8 609.557C1463.62 609.738 1463.37 609.84 1463.12 609.84Z" fill="black"/>
<path d="M1675.08 609.84H1044.5C1044.25 609.84 1044 609.738 1043.82 609.557C1043.64 609.375 1043.54 609.129 1043.54 608.872C1043.54 608.616 1043.64 608.369 1043.82 608.188C1044 608.006 1044.25 607.904 1044.5 607.904H1675.08C1675.34 607.904 1675.58 608.006 1675.77 608.188C1675.95 608.369 1676.05 608.616 1676.05 608.872C1676.05 609.129 1675.95 609.375 1675.77 609.557C1675.58 609.738 1675.34 609.84 1675.08 609.84Z" fill="black"/>
<path d="M1089.75 583.565H1298.14L1266.75 432.888H1059.66C1059.2 432.888 1058.74 432.992 1058.31 433.193C1057.89 433.393 1057.52 433.685 1057.23 434.047C1056.93 434.409 1056.72 434.832 1056.61 435.286C1056.5 435.739 1056.49 436.212 1056.59 436.668L1086.67 581.066C1086.82 581.772 1087.2 582.406 1087.76 582.861C1088.32 583.317 1089.02 583.565 1089.75 583.565Z" fill="#FFB86C"/>
<path d="M1279.48 435.387L1309.56 579.785C1309.66 580.242 1309.65 580.714 1309.54 581.167C1309.43 581.621 1309.22 582.044 1308.92 582.406C1308.63 582.768 1308.26 583.06 1307.84 583.26C1307.42 583.461 1306.96 583.565 1306.49 583.565H1298.14L1266.75 432.888H1276.41C1277.13 432.889 1277.83 433.137 1278.39 433.592C1278.95 434.048 1279.33 434.681 1279.48 435.387Z" fill="black"/>
<path d="M1116.22 630.275H1166.05L1197.44 539.87H1145.43C1144.77 539.87 1144.14 540.073 1143.61 540.451C1143.07 540.829 1142.67 541.364 1142.46 541.98L1113.25 626.106C1113.08 626.579 1113.04 627.085 1113.11 627.58C1113.18 628.076 1113.37 628.548 1113.66 628.956C1113.95 629.364 1114.33 629.696 1114.78 629.926C1115.22 630.156 1115.72 630.275 1116.22 630.275Z" fill="#76B9C7"/>
<path d="M1206.51 544.037L1177.3 628.166C1177.08 628.782 1176.68 629.316 1176.15 629.694C1175.62 630.072 1174.99 630.275 1174.33 630.275H1166.05L1197.44 539.87H1203.54C1204.04 539.87 1204.54 539.99 1204.98 540.219C1205.43 540.449 1205.81 540.781 1206.1 541.189C1206.39 541.597 1206.58 542.068 1206.65 542.564C1206.72 543.059 1206.67 543.564 1206.51 544.037Z" fill="black"/>
<path d="M1172.83 515.385H1181.12C1185.07 515.385 1188.27 512.181 1188.27 508.229C1188.27 504.276 1185.07 501.072 1181.12 501.072H1172.83C1168.88 501.072 1165.67 504.276 1165.67 508.229C1165.67 512.181 1168.88 515.385 1172.83 515.385Z" fill="black"/>
<path d="M1694.27 520.41H1606.16V510.359H1694.27L1694.27 520.41Z" fill="#F8D24B"/>
<path d="M1050.3 396.848H1138.41V406.9H1050.3V396.848Z" fill="#76B9C7"/>
<path d="M1517.09 207.627H1605.2V217.679H1517.09V207.627Z" fill="#FFB86C"/>
<path d="M1417.8 380.534C1416.34 380.534 1414.91 380.1 1413.7 379.288C1412.48 378.477 1411.53 377.323 1410.97 375.972C1410.42 374.622 1410.27 373.136 1410.55 371.703C1410.84 370.269 1411.54 368.953 1412.58 367.919C1413.61 366.886 1414.93 366.182 1416.36 365.896C1417.79 365.611 1419.28 365.757 1420.63 366.316C1421.98 366.875 1423.13 367.822 1423.95 369.037C1424.76 370.252 1425.19 371.68 1425.19 373.142C1425.19 375.101 1424.41 376.98 1423.03 378.366C1421.64 379.752 1419.76 380.531 1417.8 380.534ZM1417.8 367.688C1416.72 367.688 1415.67 368.008 1414.77 368.607C1413.87 369.206 1413.18 370.058 1412.76 371.055C1412.35 372.051 1412.24 373.148 1412.45 374.206C1412.66 375.264 1413.18 376.236 1413.95 376.999C1414.71 377.762 1415.68 378.281 1416.74 378.492C1417.8 378.702 1418.89 378.594 1419.89 378.181C1420.89 377.768 1421.74 377.069 1422.34 376.172C1422.94 375.275 1423.26 374.221 1423.26 373.142C1423.25 371.696 1422.68 370.31 1421.66 369.287C1420.63 368.265 1419.25 367.69 1417.8 367.688Z" fill="black"/>
<path d="M1013.5 448.884L1024.99 445.744L1016.64 435.825L1013.5 448.884Z" fill="#FFB86C"/>
<path d="M1656.43 421.894L1667.92 418.757L1659.57 408.837L1656.43 421.894ZM1428.95 192.478L1440.44 189.339L1432.09 179.419L1428.95 192.478Z" fill="#F8D24B"/>
<path d="M1555.4 254.282L1566.89 251.142L1558.54 241.223L1555.4 254.282Z" fill="#76B9C7"/>
<path d="M1354.05 637.447L1365.54 634.307L1357.19 624.388L1354.05 637.447Z" fill="#007B8F"/>
<path d="M1539.72 292.207C1539.72 292.207 1537.36 251.276 1521.62 249.702C1505.88 248.129 1507.45 237.896 1498.79 238.683C1490.14 239.471 1481.87 251.671 1475.97 251.276C1470.07 250.881 1453.54 230.419 1437.79 244.587C1422.05 258.755 1425.59 298.11 1462.59 292.207C1499.58 286.304 1483.84 272.528 1505.48 280.005C1527.13 287.482 1524.77 312.672 1528.31 312.672C1531.85 312.672 1533.03 291.812 1539.72 292.207Z" fill="black"/>
<path d="M1545.5 379.049C1545.33 379.05 1545.17 379.008 1545.03 378.927C1544.88 378.847 1544.76 378.731 1544.68 378.591C1533 359.717 1535.63 330.268 1535.74 329.023C1535.76 328.836 1535.84 328.659 1535.95 328.512C1543.95 318.48 1547.27 309.757 1545.8 302.585C1545.42 300.636 1544.64 298.786 1543.51 297.148C1542.39 295.51 1540.94 294.118 1539.26 293.057C1539.05 292.928 1538.9 292.722 1538.83 292.482C1538.77 292.243 1538.8 291.987 1538.92 291.769C1539.03 291.551 1539.23 291.386 1539.47 291.31C1539.7 291.233 1539.96 291.25 1540.18 291.357C1542.12 292.547 1543.79 294.124 1545.08 295.991C1546.37 297.857 1547.27 299.971 1547.7 302.2C1549.27 309.904 1545.89 319.082 1537.65 329.488C1537.4 332.579 1535.58 360.212 1546.32 377.574C1546.41 377.721 1546.46 377.888 1546.46 378.06C1546.47 378.232 1546.42 378.402 1546.34 378.552C1546.26 378.702 1546.14 378.827 1545.99 378.915C1545.84 379.002 1545.67 379.049 1545.5 379.049ZM1117.03 356.194H1019.24C1018.98 356.194 1018.74 356.092 1018.56 355.911C1018.38 355.729 1018.27 355.483 1018.27 355.227V230.177C1018.27 229.92 1018.38 229.674 1018.56 229.492C1018.74 229.311 1018.98 229.209 1019.24 229.209H1091.68C1091.94 229.209 1092.18 229.311 1092.36 229.492C1092.54 229.674 1092.65 229.92 1092.65 230.177C1092.65 230.433 1092.54 230.679 1092.36 230.861C1092.18 231.042 1091.94 231.144 1091.68 231.144H1020.21V354.259H1116.06V255.523C1116.06 255.266 1116.16 255.02 1116.34 254.838C1116.52 254.657 1116.77 254.555 1117.03 254.555C1117.28 254.555 1117.53 254.657 1117.71 254.838C1117.89 255.02 1117.99 255.266 1117.99 255.523V355.223C1117.99 355.479 1117.89 355.725 1117.71 355.907C1117.53 356.088 1117.28 356.19 1117.03 356.19L1117.03 356.194Z" fill="black"/>
<path d="M1117.03 256.51H1091.66C1091.41 256.51 1091.16 256.408 1090.98 256.226C1090.8 256.045 1090.69 255.799 1090.69 255.542V230.177C1090.69 229.986 1090.75 229.799 1090.86 229.64C1090.96 229.481 1091.12 229.358 1091.29 229.285C1091.47 229.211 1091.66 229.192 1091.85 229.229C1092.04 229.267 1092.21 229.358 1092.35 229.493L1117.71 254.857C1117.85 254.992 1117.94 255.165 1117.98 255.353C1118.01 255.541 1117.99 255.736 1117.92 255.913C1117.85 256.09 1117.72 256.241 1117.56 256.347C1117.4 256.454 1117.22 256.51 1117.03 256.51ZM1092.63 254.574H1114.69L1092.63 232.513V254.574ZM1148.99 321.405H1117.03C1116.77 321.405 1116.52 321.303 1116.34 321.121C1116.16 320.94 1116.06 320.694 1116.06 320.437C1116.06 320.18 1116.16 319.934 1116.34 319.753C1116.52 319.571 1116.77 319.469 1117.03 319.469H1148.03V220.737C1148.03 220.48 1148.13 220.234 1148.31 220.053C1148.49 219.871 1148.74 219.769 1148.99 219.769C1149.25 219.769 1149.5 219.871 1149.68 220.053C1149.86 220.234 1149.96 220.48 1149.96 220.737V320.437C1149.96 320.694 1149.86 320.94 1149.68 321.121C1149.5 321.303 1149.25 321.405 1148.99 321.405ZM1051.21 231.144C1050.95 231.144 1050.71 231.042 1050.53 230.861C1050.35 230.679 1050.24 230.433 1050.24 230.177V195.391C1050.24 195.134 1050.35 194.888 1050.53 194.707C1050.71 194.525 1050.95 194.423 1051.21 194.423H1123.64C1123.9 194.423 1124.15 194.525 1124.33 194.707C1124.51 194.888 1124.61 195.134 1124.61 195.391C1124.61 195.648 1124.51 195.894 1124.33 196.075C1124.15 196.257 1123.9 196.359 1123.64 196.359H1052.18V230.177C1052.18 230.433 1052.08 230.679 1051.9 230.861C1051.71 231.042 1051.47 231.144 1051.21 231.144Z" fill="black"/>
<path d="M1148.99 221.722H1123.63C1123.37 221.722 1123.13 221.62 1122.95 221.439C1122.76 221.257 1122.66 221.011 1122.66 220.754V195.389C1122.66 195.198 1122.72 195.011 1122.83 194.852C1122.93 194.694 1123.08 194.57 1123.26 194.497C1123.44 194.424 1123.63 194.405 1123.82 194.442C1124.01 194.479 1124.18 194.571 1124.31 194.706L1149.68 220.069C1149.81 220.205 1149.91 220.377 1149.94 220.565C1149.98 220.753 1149.96 220.948 1149.89 221.125C1149.82 221.302 1149.69 221.453 1149.53 221.56C1149.37 221.666 1149.18 221.723 1148.99 221.722ZM1124.6 219.787H1146.66L1124.6 197.727V219.787ZM1180.96 286.617H1148.99C1148.74 286.617 1148.49 286.515 1148.31 286.334C1148.13 286.152 1148.03 285.906 1148.03 285.649C1148.03 285.393 1148.13 285.147 1148.31 284.965C1148.49 284.784 1148.74 284.682 1148.99 284.682H1179.99V185.949C1179.99 185.693 1180.09 185.447 1180.28 185.265C1180.46 185.084 1180.7 184.982 1180.96 184.982C1181.22 184.982 1181.46 185.084 1181.64 185.265C1181.83 185.447 1181.93 185.693 1181.93 185.949V285.649C1181.93 285.906 1181.83 286.152 1181.64 286.334C1181.46 286.515 1181.22 286.617 1180.96 286.617ZM1083.18 196.359C1082.92 196.359 1082.68 196.257 1082.49 196.075C1082.31 195.894 1082.21 195.648 1082.21 195.391V160.603C1082.21 160.347 1082.31 160.101 1082.49 159.919C1082.68 159.738 1082.92 159.636 1083.18 159.636H1155.61C1155.87 159.636 1156.12 159.738 1156.3 159.919C1156.48 160.101 1156.58 160.347 1156.58 160.603C1156.58 160.86 1156.48 161.106 1156.3 161.288C1156.12 161.469 1155.87 161.571 1155.61 161.571H1084.15V195.389C1084.15 195.646 1084.04 195.892 1083.86 196.073C1083.68 196.255 1083.44 196.357 1083.18 196.357V196.359Z" fill="black"/>
<path d="M1180.96 186.935H1155.59C1155.34 186.935 1155.09 186.833 1154.91 186.651C1154.73 186.47 1154.63 186.224 1154.63 185.967V160.603C1154.63 160.412 1154.68 160.224 1154.79 160.065C1154.9 159.905 1155.05 159.781 1155.22 159.708C1155.4 159.634 1155.6 159.615 1155.78 159.653C1155.97 159.69 1156.14 159.783 1156.28 159.918L1181.64 185.284C1181.78 185.419 1181.87 185.591 1181.91 185.779C1181.94 185.966 1181.93 186.16 1181.85 186.337C1181.78 186.513 1181.66 186.664 1181.5 186.771C1181.34 186.877 1181.15 186.934 1180.96 186.935ZM1156.56 184.999H1178.62L1156.56 162.94V184.999ZM1072.21 246.033H1031.31C1031.05 246.033 1030.81 245.931 1030.63 245.749C1030.44 245.568 1030.34 245.322 1030.34 245.065C1030.34 244.808 1030.44 244.562 1030.63 244.381C1030.81 244.199 1031.05 244.097 1031.31 244.097H1072.21C1072.46 244.097 1072.71 244.199 1072.89 244.381C1073.07 244.562 1073.18 244.808 1073.18 245.065C1073.18 245.322 1073.07 245.568 1072.89 245.749C1072.71 245.931 1072.46 246.033 1072.21 246.033ZM1072.21 259.665H1031.31C1031.05 259.665 1030.81 259.563 1030.63 259.381C1030.44 259.2 1030.34 258.954 1030.34 258.697C1030.34 258.44 1030.44 258.194 1030.63 258.013C1030.81 257.831 1031.05 257.729 1031.31 257.729H1072.21C1072.46 257.729 1072.71 257.831 1072.89 258.013C1073.07 258.194 1073.18 258.44 1073.18 258.697C1073.18 258.954 1073.07 259.2 1072.89 259.381C1072.71 259.563 1072.46 259.665 1072.21 259.665ZM1102.45 273.297H1031.31C1031.05 273.297 1030.81 273.195 1030.63 273.013C1030.44 272.832 1030.34 272.586 1030.34 272.329C1030.34 272.072 1030.44 271.826 1030.63 271.645C1030.81 271.463 1031.05 271.361 1031.31 271.361H1102.45C1102.71 271.361 1102.96 271.463 1103.14 271.645C1103.32 271.826 1103.42 272.072 1103.42 272.329C1103.42 272.586 1103.32 272.832 1103.14 273.013C1102.96 273.195 1102.71 273.297 1102.45 273.297ZM1102.45 286.931H1031.31C1031.05 286.931 1030.81 286.829 1030.63 286.647C1030.44 286.466 1030.34 286.22 1030.34 285.963C1030.34 285.706 1030.44 285.46 1030.63 285.279C1030.81 285.097 1031.05 284.995 1031.31 284.995H1102.45C1102.71 284.995 1102.96 285.097 1103.14 285.279C1103.32 285.46 1103.42 285.706 1103.42 285.963C1103.42 286.22 1103.32 286.466 1103.14 286.647C1102.96 286.829 1102.71 286.931 1102.45 286.931ZM1102.45 300.563H1031.31C1031.05 300.563 1030.81 300.461 1030.63 300.279C1030.44 300.098 1030.34 299.852 1030.34 299.595C1030.34 299.338 1030.44 299.092 1030.63 298.911C1030.81 298.729 1031.05 298.627 1031.31 298.627H1102.45C1102.71 298.627 1102.96 298.729 1103.14 298.911C1103.32 299.092 1103.42 299.338 1103.42 299.595C1103.42 299.852 1103.32 300.098 1103.14 300.279C1102.96 300.461 1102.71 300.563 1102.45 300.563ZM1102.45 314.197H1031.31C1031.05 314.197 1030.81 314.095 1030.63 313.913C1030.44 313.732 1030.34 313.486 1030.34 313.229C1030.34 312.972 1030.44 312.726 1030.63 312.545C1030.81 312.363 1031.05 312.261 1031.31 312.261H1102.45C1102.71 312.261 1102.96 312.363 1103.14 312.545C1103.32 312.726 1103.42 312.972 1103.42 313.229C1103.42 313.486 1103.32 313.732 1103.14 313.913C1102.96 314.095 1102.71 314.197 1102.45 314.197ZM1102.45 327.829H1031.31C1031.05 327.829 1030.81 327.727 1030.63 327.545C1030.44 327.364 1030.34 327.118 1030.34 326.861C1030.34 326.604 1030.44 326.358 1030.63 326.177C1030.81 325.995 1031.05 325.893 1031.31 325.893H1102.45C1102.71 325.893 1102.96 325.995 1103.14 326.177C1103.32 326.358 1103.42 326.604 1103.42 326.861C1103.42 327.118 1103.32 327.364 1103.14 327.545C1102.96 327.727 1102.71 327.829 1102.45 327.829ZM1102.45 341.463H1031.31C1031.05 341.463 1030.81 341.361 1030.63 341.179C1030.44 340.998 1030.34 340.752 1030.34 340.495C1030.34 340.238 1030.44 339.992 1030.63 339.811C1030.81 339.629 1031.05 339.527 1031.31 339.527H1102.45C1102.71 339.527 1102.96 339.629 1103.14 339.811C1103.32 339.992 1103.42 340.238 1103.42 340.495C1103.42 340.752 1103.32 340.998 1103.14 341.179C1102.96 341.361 1102.71 341.463 1102.45 341.463ZM1102.77 217.512H1061.87C1061.61 217.512 1061.37 217.41 1061.18 217.229C1061 217.047 1060.9 216.801 1060.9 216.545C1060.9 216.288 1061 216.042 1061.18 215.86C1061.37 215.679 1061.61 215.577 1061.87 215.577H1102.77C1103.02 215.577 1103.27 215.679 1103.45 215.86C1103.63 216.042 1103.73 216.288 1103.73 216.545C1103.73 216.801 1103.63 217.047 1103.45 217.229C1103.27 217.41 1103.02 217.512 1102.77 217.512ZM1102.77 231.144H1061.87C1061.61 231.144 1061.37 231.042 1061.18 230.861C1061 230.679 1060.9 230.433 1060.9 230.177C1060.9 229.92 1061 229.674 1061.18 229.492C1061.37 229.311 1061.61 229.209 1061.87 229.209H1102.77C1103.02 229.209 1103.27 229.311 1103.45 229.492C1103.63 229.674 1103.73 229.92 1103.73 230.177C1103.73 230.433 1103.63 230.679 1103.45 230.861C1103.27 231.042 1103.02 231.144 1102.77 231.144ZM1133.01 244.78H1105.29C1105.04 244.78 1104.79 244.678 1104.61 244.497C1104.43 244.315 1104.32 244.069 1104.32 243.813C1104.32 243.556 1104.43 243.31 1104.61 243.128C1104.79 242.947 1105.04 242.845 1105.29 242.845H1133.01C1133.27 242.845 1133.51 242.947 1133.69 243.128C1133.87 243.31 1133.98 243.556 1133.98 243.813C1133.98 244.069 1133.87 244.315 1133.69 244.497C1133.51 244.678 1133.27 244.78 1133.01 244.78ZM1133.01 258.41H1117.03C1116.77 258.41 1116.52 258.309 1116.34 258.127C1116.16 257.946 1116.06 257.699 1116.06 257.443C1116.06 257.186 1116.16 256.94 1116.34 256.758C1116.52 256.577 1116.77 256.475 1117.03 256.475H1133.01C1133.27 256.475 1133.51 256.577 1133.69 256.758C1133.87 256.94 1133.98 257.186 1133.98 257.443C1133.98 257.699 1133.87 257.946 1133.69 258.127C1133.51 258.309 1133.27 258.41 1133.01 258.41ZM1133.01 272.044H1117.03C1116.77 272.044 1116.52 271.942 1116.34 271.761C1116.16 271.579 1116.06 271.333 1116.06 271.077C1116.06 270.82 1116.16 270.574 1116.34 270.392C1116.52 270.211 1116.77 270.109 1117.03 270.109H1133.01C1133.27 270.109 1133.51 270.211 1133.69 270.392C1133.87 270.574 1133.98 270.82 1133.98 271.077C1133.98 271.333 1133.87 271.579 1133.69 271.761C1133.51 271.942 1133.27 272.044 1133.01 272.044ZM1133.01 285.677H1117.03C1116.77 285.677 1116.52 285.575 1116.34 285.393C1116.16 285.212 1116.06 284.965 1116.06 284.709C1116.06 284.452 1116.16 284.206 1116.34 284.024C1116.52 283.843 1116.77 283.741 1117.03 283.741H1133.01C1133.27 283.741 1133.51 283.843 1133.69 284.024C1133.87 284.206 1133.98 284.452 1133.98 284.709C1133.98 284.965 1133.87 285.212 1133.69 285.393C1133.51 285.575 1133.27 285.677 1133.01 285.677ZM1133.01 299.311H1117.03C1116.77 299.311 1116.52 299.209 1116.34 299.027C1116.16 298.846 1116.06 298.599 1116.06 298.343C1116.06 298.086 1116.16 297.84 1116.34 297.658C1116.52 297.477 1116.77 297.375 1117.03 297.375H1133.01C1133.27 297.375 1133.51 297.477 1133.69 297.658C1133.87 297.84 1133.98 298.086 1133.98 298.343C1133.98 298.599 1133.87 298.846 1133.69 299.027C1133.51 299.209 1133.27 299.311 1133.01 299.311ZM1133.01 312.945H1117.03C1116.77 312.945 1116.52 312.843 1116.34 312.661C1116.16 312.48 1116.06 312.233 1116.06 311.977C1116.06 311.72 1116.16 311.474 1116.34 311.292C1116.52 311.111 1116.77 311.009 1117.03 311.009H1133.01C1133.27 311.009 1133.51 311.111 1133.69 311.292C1133.87 311.474 1133.98 311.72 1133.98 311.977C1133.98 312.233 1133.87 312.48 1133.69 312.661C1133.51 312.843 1133.27 312.945 1133.01 312.945ZM1134.73 182.725H1093.83C1093.58 182.725 1093.33 182.623 1093.15 182.441C1092.97 182.26 1092.87 182.014 1092.87 181.757C1092.87 181.5 1092.97 181.254 1093.15 181.073C1093.33 180.891 1093.58 180.789 1093.83 180.789H1134.73C1134.99 180.789 1135.23 180.891 1135.42 181.073C1135.6 181.254 1135.7 181.5 1135.7 181.757C1135.7 182.014 1135.6 182.26 1135.42 182.441C1135.23 182.623 1134.99 182.725 1134.73 182.725ZM1134.73 196.359H1093.83C1093.58 196.359 1093.33 196.257 1093.15 196.075C1092.97 195.894 1092.87 195.648 1092.87 195.391C1092.87 195.134 1092.97 194.888 1093.15 194.707C1093.33 194.525 1093.58 194.423 1093.83 194.423H1134.73C1134.99 194.423 1135.23 194.525 1135.42 194.707C1135.6 194.888 1135.7 195.134 1135.7 195.391C1135.7 195.648 1135.6 195.894 1135.42 196.075C1135.23 196.257 1134.99 196.359 1134.73 196.359ZM1164.97 209.991H1137.26C1137 209.991 1136.76 209.889 1136.58 209.707C1136.4 209.526 1136.29 209.28 1136.29 209.023C1136.29 208.766 1136.4 208.52 1136.58 208.339C1136.76 208.157 1137 208.055 1137.26 208.055H1164.98C1165.23 208.055 1165.48 208.157 1165.66 208.339C1165.84 208.52 1165.94 208.766 1165.94 209.023C1165.94 209.28 1165.84 209.526 1165.66 209.707C1165.48 209.889 1165.23 209.991 1164.97 209.991ZM1164.97 223.625H1148.99C1148.74 223.625 1148.49 223.523 1148.31 223.341C1148.13 223.16 1148.02 222.914 1148.02 222.657C1148.02 222.4 1148.13 222.154 1148.31 221.973C1148.49 221.791 1148.74 221.689 1148.99 221.689H1164.98C1165.23 221.689 1165.48 221.791 1165.66 221.973C1165.84 222.154 1165.94 222.4 1165.94 222.657C1165.94 222.914 1165.84 223.16 1165.66 223.341C1165.48 223.523 1165.23 223.625 1164.97 223.625ZM1164.97 237.257H1148.99C1148.74 237.257 1148.49 237.155 1148.31 236.973C1148.13 236.792 1148.02 236.546 1148.02 236.289C1148.02 236.032 1148.13 235.786 1148.31 235.605C1148.49 235.423 1148.74 235.321 1148.99 235.321H1164.98C1165.23 235.321 1165.48 235.423 1165.66 235.605C1165.84 235.786 1165.94 236.032 1165.94 236.289C1165.94 236.546 1165.84 236.792 1165.66 236.973C1165.48 237.155 1165.23 237.257 1164.97 237.257ZM1164.97 250.889H1148.99C1148.74 250.889 1148.49 250.787 1148.31 250.605C1148.13 250.424 1148.02 250.178 1148.02 249.921C1148.02 249.664 1148.13 249.418 1148.31 249.237C1148.49 249.055 1148.74 248.953 1148.99 248.953H1164.98C1165.23 248.953 1165.48 249.055 1165.66 249.237C1165.84 249.418 1165.94 249.664 1165.94 249.921C1165.94 250.178 1165.84 250.424 1165.66 250.605C1165.48 250.787 1165.23 250.889 1164.97 250.889ZM1164.97 264.523H1148.99C1148.74 264.523 1148.49 264.421 1148.31 264.239C1148.13 264.058 1148.02 263.812 1148.02 263.555C1148.02 263.298 1148.13 263.052 1148.31 262.871C1148.49 262.689 1148.74 262.587 1148.99 262.587H1164.98C1165.23 262.587 1165.48 262.689 1165.66 262.871C1165.84 263.052 1165.94 263.298 1165.94 263.555C1165.94 263.812 1165.84 264.058 1165.66 264.239C1165.48 264.421 1165.23 264.523 1164.97 264.523ZM1164.97 278.155H1148.99C1148.74 278.155 1148.49 278.053 1148.31 277.872C1148.13 277.69 1148.02 277.444 1148.02 277.187C1148.02 276.931 1148.13 276.684 1148.31 276.503C1148.49 276.321 1148.74 276.219 1148.99 276.219H1164.98C1165.23 276.219 1165.48 276.321 1165.66 276.503C1165.84 276.684 1165.94 276.931 1165.94 277.187C1165.94 277.444 1165.84 277.69 1165.66 277.872C1165.48 278.053 1165.23 278.155 1164.97 278.155Z" fill="black"/>
<path d="M1207.5 164.306C1208.65 159.842 1210.91 155.744 1214.08 152.395C1217.24 149.046 1221.21 146.558 1225.6 145.164C1230 143.769 1234.67 143.515 1239.19 144.424C1243.71 145.334 1247.92 147.377 1251.43 150.362C1252.78 145.467 1255.11 140.893 1258.27 136.915C1261.43 132.936 1265.35 129.634 1269.81 127.205C1274.27 124.776 1279.18 123.27 1284.23 122.775C1289.29 122.281 1294.39 122.81 1299.24 124.329C1299.22 123.753 1299.2 123.178 1299.2 122.595C1299.2 108.528 1304.79 95.0362 1314.73 85.0889C1324.68 75.1416 1338.17 69.5533 1352.24 69.5533C1366.31 69.5533 1379.8 75.1416 1389.75 85.0889C1399.69 95.0362 1405.28 108.528 1405.28 122.595C1405.28 122.99 1405.26 123.379 1405.25 123.772C1411.15 122.289 1417.32 122.249 1423.23 123.655C1429.15 125.06 1434.64 127.87 1439.24 131.847C1443.83 135.823 1447.41 140.849 1449.65 146.499C1451.9 152.149 1452.75 158.257 1452.14 164.306H1207.5Z" fill="#76B9C7"/>
<path d="M886.134 366.557C885.877 366.557 885.631 366.455 885.449 366.274C885.268 366.092 885.166 365.846 885.166 365.589V350.111C885.17 347.357 886.265 344.717 888.213 342.771C890.16 340.824 892.8 339.729 895.554 339.727H970.733C972.973 339.725 975.121 338.834 976.705 337.25C978.289 335.666 979.181 333.518 979.183 331.278V272.973C979.181 270.733 978.29 268.585 976.706 267C975.122 265.416 972.973 264.525 970.733 264.523H926.285C923.531 264.52 920.891 263.425 918.944 261.477C916.997 259.53 915.902 256.89 915.899 254.137V195.366C915.902 192.613 916.998 189.973 918.945 188.026C920.892 186.08 923.531 184.985 926.285 184.982H1082.21V160.603C1082.21 160.347 1082.31 160.101 1082.5 159.919C1082.68 159.738 1082.92 159.636 1083.18 159.636H1112.11V102.278C1112.11 99.524 1113.2 96.8842 1115.15 94.9375C1117.1 92.9907 1119.74 91.896 1122.49 91.8934H1156.63C1159.38 91.8965 1162.02 92.9915 1163.97 94.9382C1165.92 96.8849 1167.01 99.5243 1167.01 102.278V113.831C1167.02 116.071 1167.91 118.218 1169.49 119.802C1171.08 121.386 1173.22 122.277 1175.46 122.28H1258.76C1259.01 122.28 1259.26 122.382 1259.44 122.563C1259.62 122.745 1259.73 122.991 1259.73 123.247C1259.73 123.504 1259.62 123.75 1259.44 123.932C1259.26 124.113 1259.01 124.215 1258.76 124.215H1175.46C1172.71 124.212 1170.07 123.116 1168.12 121.17C1166.18 119.223 1165.08 116.584 1165.08 113.831V102.278C1165.08 100.037 1164.19 97.8896 1162.6 96.3057C1161.02 94.7217 1158.87 93.831 1156.63 93.829H1122.49C1120.25 93.8305 1118.1 94.721 1116.52 96.305C1114.93 97.889 1114.04 100.037 1114.04 102.278V160.603C1114.04 160.86 1113.94 161.106 1113.76 161.288C1113.58 161.469 1113.33 161.571 1113.07 161.571H1084.15V185.949C1084.15 186.206 1084.04 186.452 1083.86 186.634C1083.68 186.815 1083.43 186.917 1083.18 186.917H926.283C924.043 186.92 921.895 187.811 920.312 189.395C918.728 190.978 917.837 193.126 917.834 195.366V254.137C917.836 256.377 918.727 258.526 920.312 260.11C921.896 261.694 924.044 262.585 926.285 262.587H970.733C973.486 262.59 976.126 263.686 978.073 265.633C980.021 267.58 981.116 270.22 981.119 272.973V331.278C981.115 334.031 980.02 336.671 978.073 338.617C976.126 340.564 973.486 341.659 970.733 341.662H895.554C893.313 341.664 891.165 342.554 889.58 344.138C887.996 345.722 887.104 347.87 887.102 350.111V365.589C887.102 365.846 887 366.092 886.818 366.274C886.637 366.455 886.39 366.557 886.134 366.557ZM1238.94 418.161C1238.68 418.161 1238.43 418.059 1238.25 417.877C1238.07 417.696 1237.97 417.45 1237.97 417.193V372.066C1237.97 369.826 1237.07 367.678 1235.49 366.094C1233.91 364.511 1231.76 363.62 1229.52 363.617H1206.85C1204.1 363.613 1201.46 362.518 1199.51 360.571C1197.57 358.624 1196.47 355.984 1196.47 353.231V309.999C1196.47 307.245 1197.57 304.605 1199.52 302.658C1201.46 300.711 1204.1 299.615 1206.86 299.612H1354.96C1357.2 299.61 1359.34 298.719 1360.93 297.135C1362.51 295.551 1363.4 293.404 1363.4 291.164V239.593C1363.4 237.353 1362.51 235.205 1360.93 233.621C1359.34 232.036 1357.2 231.145 1354.96 231.142H1281.13C1278.37 231.14 1275.73 230.045 1273.79 228.098C1271.84 226.152 1270.74 223.512 1270.74 220.758V201.894C1270.74 199.14 1271.84 196.5 1273.78 194.553C1275.73 192.606 1278.37 191.511 1281.13 191.508H1320.5C1322.74 191.506 1324.89 190.615 1326.47 189.031C1328.06 187.447 1328.95 185.298 1328.95 183.058V175.958C1328.95 175.701 1329.05 175.455 1329.23 175.274C1329.41 175.092 1329.66 174.99 1329.92 174.99C1330.17 174.99 1330.42 175.092 1330.6 175.274C1330.78 175.455 1330.88 175.701 1330.88 175.958V183.058C1330.88 185.811 1329.79 188.451 1327.84 190.398C1325.89 192.346 1323.25 193.441 1320.5 193.444H1281.13C1278.89 193.446 1276.74 194.337 1275.15 195.922C1273.57 197.506 1272.68 199.654 1272.67 201.894V220.758C1272.68 222.999 1273.57 225.147 1275.15 226.731C1276.74 228.315 1278.89 229.205 1281.13 229.207H1354.96C1357.71 229.21 1360.35 230.306 1362.3 232.253C1364.24 234.2 1365.34 236.84 1365.34 239.593V291.162C1365.34 293.915 1364.24 296.554 1362.29 298.501C1360.35 300.447 1357.71 301.542 1354.96 301.546H1206.86C1204.62 301.548 1202.47 302.439 1200.88 304.023C1199.3 305.608 1198.41 307.756 1198.41 309.997V353.229C1198.41 355.47 1199.3 357.618 1200.88 359.202C1202.47 360.787 1204.62 361.678 1206.86 361.68H1229.52C1232.27 361.683 1234.91 362.778 1236.86 364.725C1238.8 366.672 1239.9 369.311 1239.9 372.064V417.191C1239.9 417.448 1239.8 417.694 1239.62 417.875C1239.44 418.057 1239.19 418.159 1238.94 418.159V418.161ZM1376.84 123.147C1376.85 126.491 1376.01 129.782 1374.4 132.713C1372.79 135.644 1370.46 138.12 1367.64 139.909C1367.13 140.232 1366.51 140.34 1365.93 140.21C1365.34 140.079 1364.83 139.72 1364.5 139.212C1364.18 138.704 1364.07 138.088 1364.2 137.5C1364.33 136.912 1364.69 136.4 1365.2 136.076C1368 134.297 1370.14 131.658 1371.31 128.555C1372.48 125.452 1372.61 122.054 1371.69 118.87C1370.76 115.686 1368.83 112.888 1366.18 110.897C1363.52 108.906 1360.3 107.83 1356.98 107.829H1347.71L1350.36 110.484C1350.59 110.692 1350.77 110.943 1350.89 111.221C1351.01 111.499 1351.08 111.8 1351.08 112.104C1351.09 112.408 1351.03 112.711 1350.92 112.993C1350.8 113.275 1350.63 113.531 1350.42 113.746C1350.2 113.961 1349.95 114.131 1349.66 114.244C1349.38 114.358 1349.08 114.414 1348.77 114.409C1348.47 114.403 1348.17 114.337 1347.89 114.213C1347.61 114.089 1347.36 113.91 1347.16 113.688L1340.63 107.165C1340.52 107.058 1340.43 106.942 1340.34 106.816C1340.31 106.763 1340.28 106.707 1340.25 106.65C1340.16 106.512 1340.1 106.359 1340.06 106.197C1340.04 106.135 1340.02 106.069 1340.01 106.004C1339.95 105.71 1339.95 105.408 1340.01 105.115C1340.02 105.045 1340.04 104.984 1340.06 104.918C1340.1 104.757 1340.16 104.605 1340.25 104.469C1340.28 104.41 1340.31 104.354 1340.34 104.3C1340.43 104.175 1340.52 104.059 1340.63 103.952L1347.16 97.4252C1347.58 96.9997 1348.16 96.7606 1348.76 96.7606C1349.36 96.7606 1349.94 96.9997 1350.36 97.4252C1350.79 97.8508 1351.03 98.428 1351.03 99.0298C1351.03 99.6316 1350.79 100.209 1350.36 100.634L1347.71 103.29H1356.98C1362.25 103.296 1367.3 105.39 1371.02 109.113C1374.74 112.836 1376.84 117.884 1376.84 123.149L1376.84 123.147ZM1359.08 141.604C1359.11 141.529 1359.13 141.453 1359.15 141.378C1359.17 141.312 1359.19 141.25 1359.21 141.178C1359.27 140.886 1359.27 140.584 1359.21 140.292C1359.19 140.226 1359.17 140.158 1359.15 140.098C1359.12 139.936 1359.05 139.782 1358.96 139.645C1358.93 139.587 1358.9 139.531 1358.87 139.477C1358.79 139.353 1358.69 139.237 1358.59 139.13L1352.06 132.608C1351.63 132.206 1351.06 131.986 1350.47 131.996C1349.88 132.005 1349.32 132.243 1348.91 132.658C1348.49 133.074 1348.25 133.635 1348.24 134.223C1348.23 134.811 1348.45 135.381 1348.85 135.811L1351.51 138.467H1342.23C1338.92 138.467 1335.69 137.391 1333.04 135.4C1330.38 133.409 1328.45 130.611 1327.52 127.426C1326.59 124.241 1326.73 120.842 1327.9 117.739C1329.07 114.636 1331.21 111.996 1334.01 110.217C1334.52 109.894 1334.88 109.382 1335.01 108.794C1335.14 108.206 1335.03 107.591 1334.71 107.083C1334.39 106.575 1333.87 106.216 1333.29 106.086C1332.7 105.955 1332.08 106.063 1331.57 106.387C1327.95 108.693 1325.16 112.115 1323.65 116.138C1322.13 120.161 1321.96 124.568 1323.16 128.696C1324.36 132.824 1326.87 136.451 1330.31 139.032C1333.75 141.612 1337.93 143.006 1342.23 143.005H1351.5L1348.85 145.661C1348.64 145.872 1348.47 146.122 1348.36 146.397C1348.24 146.672 1348.18 146.968 1348.18 147.266C1348.18 147.564 1348.24 147.859 1348.36 148.134C1348.47 148.409 1348.64 148.659 1348.85 148.87C1349.06 149.081 1349.31 149.248 1349.59 149.362C1349.86 149.476 1350.16 149.535 1350.45 149.535C1350.75 149.535 1351.05 149.476 1351.32 149.362C1351.6 149.248 1351.85 149.081 1352.06 148.87L1358.59 142.345C1358.69 142.237 1358.79 142.119 1358.87 141.993C1358.9 141.94 1358.93 141.884 1358.96 141.827C1359 141.755 1359.04 141.68 1359.08 141.604Z" fill="black"/>
<path d="M-51 627C-51 618.163 -43.8366 611 -35 611H226C234.837 611 242 618.163 242 627C242 635.837 234.837 643 226 643H-35C-43.8366 643 -51 635.837 -51 627Z" fill="#FFB86C"/>
<path d="M139 683C139 675.82 144.82 670 152 670H419C426.18 670 432 675.82 432 683C432 690.18 426.18 696 419 696H152C144.82 696 139 690.18 139 683Z" fill="#F4E1A1"/>
<path d="M294.135 216.72H300.255V197.145H305.79V221.85H300.255V220.59H294.135V216.72ZM288.42 201.825C286.125 201.825 284.64 202.545 284.64 204.03C284.64 205.515 286.125 206.19 288.42 206.19C290.76 206.19 292.2 205.515 292.2 204.03C292.2 202.545 290.76 201.825 288.42 201.825ZM288.42 210.24C283.02 210.24 279.375 207.855 279.375 204.03C279.375 200.205 283.02 197.82 288.42 197.82C293.82 197.82 297.465 200.205 297.465 204.03C297.465 207.855 293.82 210.24 288.42 210.24ZM285.81 221.67V216.045C282.975 216.18 280.32 216.18 278.16 216.18L277.665 211.77C283.065 211.77 291.975 211.68 298.545 210.645L298.95 214.56C296.565 215.055 294 215.415 291.435 215.685V221.67H285.81ZM307.905 232.83V230.355H290.175V232.83H307.905ZM307.905 225.99V223.29H313.8V237.375H284.28V223.29H290.175V225.99H307.905ZM308.13 196.425H313.8V221.895H308.13V196.425ZM352.811 211.815V216.405H323.966V197.73H352.541V202.32H329.861V204.84H351.551V209.295H329.861V211.815H352.811ZM329.591 225.99V232.425H352.676V237.15H323.651V225.99H329.591ZM319.331 218.745H356.906V223.47H341.561V229.41H335.621V223.47H319.331V218.745ZM399.318 196.38H405.258V237.96H399.318V196.38ZM382.983 199.305C389.238 199.305 393.873 204.975 393.873 214.065C393.873 223.2 389.238 228.915 382.983 228.915C376.728 228.915 372.093 223.2 372.093 214.065C372.093 204.975 376.728 199.305 382.983 199.305ZM382.983 204.66C379.923 204.66 377.808 207.945 377.808 214.065C377.808 220.23 379.923 223.515 382.983 223.515C386.043 223.515 388.158 220.23 388.158 214.065C388.158 207.945 386.043 204.66 382.983 204.66ZM414.345 200.16H434.28V228.015H414.345V200.16ZM428.43 204.84H420.195V223.335H428.43V204.84ZM440.715 196.425H446.655V237.96H440.715V196.425ZM469.736 205.29V207.585C469.736 214.335 473.066 221.49 479.996 224.37L476.756 229.05C471.941 226.98 468.656 222.93 466.811 217.935C464.966 223.335 461.636 227.88 456.776 230.085L453.401 225.36C460.331 222.255 463.706 214.65 463.706 207.585V205.29H455.066V200.385H478.286V205.29H469.736ZM482.111 196.425H488.051V237.87H482.111V196.425ZM523.938 233.415C529.473 233.415 532.308 232.47 532.308 230.355C532.308 228.24 529.473 227.34 523.938 227.34C518.403 227.34 515.568 228.24 515.568 230.355C515.568 232.47 518.403 233.415 523.938 233.415ZM523.938 222.84C532.893 222.84 538.338 225.54 538.338 230.355C538.338 235.17 532.893 237.915 523.938 237.915C514.983 237.915 509.583 235.17 509.583 230.355C509.583 225.54 514.983 222.84 523.938 222.84ZM519.663 212.625V216.09H528.303V212.67C526.998 212.805 525.558 212.895 524.028 212.895C522.453 212.895 521.013 212.805 519.663 212.625ZM524.028 201.555C518.403 201.555 515.163 202.68 515.163 205.02C515.163 207.27 518.403 208.44 524.028 208.44C529.698 208.44 532.938 207.27 532.938 205.02C532.938 202.68 529.698 201.555 524.028 201.555ZM534.243 216.09H542.748V220.77H505.308V216.09H513.723V211.095C510.753 209.745 509.043 207.675 509.043 205.02C509.043 200.07 514.893 197.055 524.028 197.055C533.208 197.055 539.058 200.07 539.058 205.02C539.058 207.72 537.303 209.79 534.243 211.14V216.09ZM548.19 206.91H561.195V203.625H548.145V198.855H567.045V211.32H554.085V214.92C560.835 214.875 565.38 214.605 570.555 213.66L571.05 218.43C565.29 219.51 560.025 219.69 551.745 219.69H548.19V206.91ZM565.695 233.37C571.095 233.37 573.885 232.335 573.885 230.04C573.885 227.745 571.095 226.71 565.695 226.71C560.295 226.71 557.505 227.745 557.505 230.04C557.505 232.335 560.295 233.37 565.695 233.37ZM565.695 222.165C574.335 222.165 579.735 225.045 579.735 230.04C579.735 234.99 574.335 237.915 565.695 237.915C557.055 237.915 551.655 234.99 551.655 230.04C551.655 225.045 557.055 222.165 565.695 222.165ZM584.82 206.82H579.33V210.735H584.82V215.55H579.33V221.4H573.39V196.425H579.33V202.005H584.82V206.82ZM620.706 204.885H627.006V196.425H632.946V217.485H627.006V209.61H620.706V204.885ZM623.001 212.895L620.256 217.53C615.666 216.225 612.561 213.525 610.716 210.105C608.871 213.84 605.541 216.99 600.726 218.385L597.936 213.75C604.371 211.77 607.431 206.955 607.656 202.68H599.511V197.955H621.786V202.68H613.686C613.866 206.865 616.746 211.095 623.001 212.895ZM611.526 232.83H634.116V237.42H605.676V226.035H627.051V223.74H605.586V219.15H632.946V230.31H611.526V232.83ZM645.813 208.845C645.813 212.04 648.108 213.975 651.258 213.975C654.363 213.975 656.703 212.04 656.703 208.845C656.703 205.605 654.363 203.715 651.258 203.715C648.108 203.715 645.813 205.605 645.813 208.845ZM662.463 208.845C662.463 214.74 657.603 218.97 651.258 218.97C644.868 218.97 640.008 214.74 640.008 208.845C640.008 202.95 644.868 198.675 651.258 198.675C657.603 198.675 662.463 202.95 662.463 208.845ZM644.688 227.295V222.525H672.318V237.915H666.378V227.295H644.688ZM677.628 206.64H672.318V210.78H677.628V215.64H672.318V220.86H666.378V196.425H672.318V201.825H677.628V206.64ZM703.049 219.78L697.244 219.285C698.189 213.39 698.324 208.935 698.324 205.245H682.844V200.52H704.174V203.895C704.174 207.9 704.174 212.94 703.049 219.78ZM694.004 212.4V224.46C698.009 224.325 702.059 224.055 705.839 223.605L706.154 227.88C697.739 229.32 688.469 229.5 681.269 229.545L680.729 224.685C683.024 224.685 685.544 224.685 688.154 224.64V212.4H694.004ZM719.249 213.075V218.025H713.669V237.825H707.729V196.38H713.669V213.075H719.249Z" fill="black"/>
<path d="M306.645 289.98V279.81H301.605V275.04H306.645V271.44H301.605V266.67H306.645V259.425H312.585V289.98H306.645ZM287.97 267.12V280.035C289.23 280.035 290.535 279.99 291.84 279.9V267.12H287.97ZM301.335 279.225L301.695 283.545C294 284.85 285.09 284.985 278.565 284.985L277.935 280.17C279.285 280.17 280.725 280.17 282.255 280.17V267.12H278.97V262.395H300.84V267.12H297.555V279.585C298.86 279.495 300.12 279.36 301.335 279.225ZM291.21 295.425H313.53V300.15H285.27V287.685H291.21V295.425ZM327.611 278.955V286.425C333.911 286.38 339.131 286.065 344.981 285.075L345.611 289.89C338.861 291.06 332.786 291.33 325.271 291.33H321.536V274.275H334.991V267.66H321.491V262.935H341.066V278.955H327.611ZM347.861 259.38H353.801V300.96H347.861V259.38ZM385.163 263.79L385.118 268.425H360.728V263.79H369.908V259.38H375.893V263.79H385.163ZM368.423 277.875C368.423 280.17 370.268 281.385 372.923 281.385C375.533 281.385 377.423 280.17 377.423 277.875C377.423 275.625 375.533 274.41 372.923 274.41C370.268 274.41 368.423 275.625 368.423 277.875ZM383.093 277.875C383.093 282.645 378.863 285.885 372.923 285.885C366.983 285.885 362.753 282.645 362.753 277.875C362.753 273.195 366.983 269.91 372.923 269.91C378.863 269.91 383.093 273.195 383.093 277.875ZM372.563 288.135V295.425H394.838V300.15H366.623V288.135H372.563ZM393.353 272.07H398.843V276.975H393.353V290.43H387.413V259.425H393.353V272.07ZM433.875 285.03V274.68H429.825V269.955H433.875V260.19H439.41V285.03H433.875ZM430.995 277.965L431.49 282.6C426.81 283.455 422.895 283.5 416.775 283.5H413.94V262.125H429.51V266.85H419.655V270.495H428.07V274.995H419.655V278.865C424.02 278.82 427.26 278.595 430.995 277.965ZM419.07 291.6V286.92H447.645V300.915H441.705V291.6H419.07ZM442.02 259.425H447.645V285.255H442.02V259.425ZM489.941 278.91L487.421 283.905C480.221 282.465 474.911 278.46 472.256 273.195C469.601 278.46 464.336 282.51 457.136 283.905L454.616 278.91C463.931 277.335 469.106 270.765 469.106 264.825V261.855H475.451V264.825C475.451 270.9 480.581 277.335 489.941 278.91ZM453.716 291.015H491.246V295.83H453.716V291.015ZM528.638 280.8V285.48H499.523V262.44H528.323V267.21H505.553V271.575H527.378V276.165H505.553V280.8H528.638ZM495.113 291.285H532.643V296.1H495.113V291.285ZM575.415 289.98V279.81H570.375V275.04H575.415V271.44H570.375V266.67H575.415V259.425H581.355V289.98H575.415ZM556.74 267.12V280.035C558 280.035 559.305 279.99 560.61 279.9V267.12H556.74ZM570.105 279.225L570.465 283.545C562.77 284.85 553.86 284.985 547.335 284.985L546.705 280.17C548.055 280.17 549.495 280.17 551.025 280.17V267.12H547.74V262.395H569.61V267.12H566.325V279.585C567.63 279.495 568.89 279.36 570.105 279.225ZM559.98 295.425H582.3V300.15H554.04V287.685H559.98V295.425ZM613.931 276.84L611.051 281.43C606.371 280.08 603.176 277.245 601.286 273.69C599.396 277.56 596.066 280.665 591.206 282.15L588.236 277.47C594.806 275.535 597.821 271.035 598.136 266.355H589.856V261.675H612.401V266.355H604.256C604.571 270.72 607.631 274.995 613.931 276.84ZM616.631 295.65V292.005H600.881V295.65H616.631ZM616.631 287.46V283.68H622.526V300.375H594.986V283.68H600.881V287.46H616.631ZM616.541 259.47H622.526V281.925H616.541V259.47ZM630.488 263.655H641.693C641.693 275.085 640.658 283.995 633.278 292.185L628.643 288.81C634.133 282.735 635.753 276.75 636.068 268.425H630.488V263.655ZM643.133 263.655H653.123C653.123 275.625 652.178 285.84 644.933 294.795L640.253 291.51C645.743 284.58 647.228 277.65 647.543 268.425H643.133V263.655ZM667.793 275.625V280.53H662.438V300.825H656.453V259.38H662.438V275.625H667.793ZM686.914 268.29V270.585C686.914 277.335 690.244 284.49 697.174 287.37L693.934 292.05C689.119 289.98 685.834 285.93 683.989 280.935C682.144 286.335 678.814 290.88 673.954 293.085L670.579 288.36C677.509 285.255 680.884 277.65 680.884 270.585V268.29H672.244V263.385H695.464V268.29H686.914ZM699.289 259.425H705.229V300.87H699.289V259.425ZM714.135 306.585L712.74 302.985C716.25 301.68 718.185 299.34 718.14 296.82C718.005 296.82 717.87 296.82 717.735 296.82C715.575 296.82 713.595 295.425 713.595 292.905C713.595 290.52 715.53 288.99 717.87 288.99C720.93 288.99 722.64 291.42 722.64 295.515C722.64 300.78 719.58 304.785 714.135 306.585Z" fill="black"/>
<path d="M278.024 343.94C277.687 343.94 277.437 343.823 277.276 343.588C277.115 343.353 277.034 343.089 277.034 342.796C277.034 342.503 277.115 342.239 277.276 342.004C277.437 341.769 277.687 341.652 278.024 341.652H279.19V335.404H278.156C277.819 335.404 277.569 335.287 277.408 335.052C277.247 334.817 277.166 334.553 277.166 334.26C277.166 333.967 277.247 333.703 277.408 333.468C277.569 333.233 277.819 333.116 278.156 333.116H287.55C287.887 333.116 288.137 333.233 288.298 333.468C288.459 333.703 288.54 333.967 288.54 334.26C288.54 334.553 288.459 334.817 288.298 335.052C288.137 335.287 287.887 335.404 287.55 335.404H286.626V341.454C286.846 341.439 287.059 341.425 287.264 341.41C287.469 341.395 287.675 341.373 287.88 341.344C288.217 341.315 288.481 341.395 288.672 341.586C288.863 341.777 288.973 342.019 289.002 342.312C289.031 342.635 288.98 342.928 288.848 343.192C288.731 343.456 288.511 343.603 288.188 343.632C287.748 343.676 287.242 343.72 286.67 343.764C286.113 343.808 285.438 343.845 284.646 343.874C283.854 343.889 282.915 343.903 281.83 343.918C280.759 343.933 279.491 343.94 278.024 343.94ZM281.852 341.63C282.233 341.63 282.593 341.63 282.93 341.63C283.282 341.63 283.627 341.615 283.964 341.586V335.404H281.852V341.63ZM290.916 341.168H289.354C289.017 341.168 288.767 341.051 288.606 340.816C288.445 340.581 288.364 340.303 288.364 339.98C288.364 339.657 288.445 339.379 288.606 339.144C288.767 338.909 289.017 338.792 289.354 338.792H290.916V337.538H289.354C289.017 337.538 288.767 337.421 288.606 337.186C288.445 336.951 288.364 336.673 288.364 336.35C288.364 336.027 288.445 335.749 288.606 335.514C288.767 335.279 289.017 335.162 289.354 335.162H290.916V332.962C290.916 332.551 291.055 332.251 291.334 332.06C291.627 331.869 291.95 331.774 292.302 331.774C292.654 331.774 292.969 331.869 293.248 332.06C293.541 332.251 293.688 332.551 293.688 332.962V345.59C293.688 346.001 293.541 346.301 293.248 346.492C292.969 346.683 292.654 346.778 292.302 346.778C291.95 346.778 291.627 346.683 291.334 346.492C291.055 346.301 290.916 346.001 290.916 345.59V341.168ZM282.226 352.014C281.522 352.014 281.031 351.882 280.752 351.618C280.488 351.354 280.356 350.877 280.356 350.188V346.47C280.356 346.059 280.495 345.759 280.774 345.568C281.067 345.377 281.405 345.282 281.786 345.282C282.153 345.282 282.475 345.377 282.754 345.568C283.047 345.759 283.194 346.059 283.194 346.47V349.11C283.194 349.447 283.363 349.616 283.7 349.616H293.182C293.519 349.616 293.769 349.733 293.93 349.968C294.091 350.203 294.172 350.489 294.172 350.826C294.172 351.149 294.091 351.427 293.93 351.662C293.769 351.897 293.519 352.014 293.182 352.014H282.226ZM304.669 335.228V335.712C304.669 336.372 304.772 336.915 304.977 337.34C305.183 337.751 305.535 338.154 306.033 338.55C306.532 338.946 306.987 339.298 307.397 339.606C307.808 339.899 308.167 340.156 308.475 340.376C308.769 340.581 308.923 340.853 308.937 341.19C308.967 341.513 308.886 341.806 308.695 342.07C308.519 342.319 308.27 342.503 307.947 342.62C307.639 342.723 307.317 342.657 306.979 342.422C306.759 342.261 306.444 342.033 306.033 341.74C305.637 341.447 305.234 341.146 304.823 340.838C304.266 340.413 303.885 340.083 303.679 339.848C303.489 339.613 303.364 339.393 303.305 339.188H303.283C303.225 339.423 303.085 339.679 302.865 339.958C302.645 340.222 302.257 340.567 301.699 340.992C301.289 341.3 300.863 341.615 300.423 341.938C299.983 342.261 299.565 342.561 299.169 342.84C298.832 343.075 298.502 343.133 298.179 343.016C297.871 342.884 297.637 342.701 297.475 342.466C297.285 342.202 297.189 341.901 297.189 341.564C297.189 341.227 297.358 340.941 297.695 340.706C298.179 340.369 298.641 340.039 299.081 339.716C299.521 339.393 299.991 339.034 300.489 338.638C300.988 338.242 301.34 337.839 301.545 337.428C301.751 337.003 301.853 336.46 301.853 335.8V335.228H298.553C298.216 335.228 297.967 335.111 297.805 334.876C297.644 334.641 297.563 334.363 297.563 334.04C297.563 333.717 297.644 333.439 297.805 333.204C297.967 332.969 298.216 332.852 298.553 332.852H307.749C308.087 332.852 308.336 332.969 308.497 333.204C308.659 333.439 308.739 333.717 308.739 334.04C308.739 334.363 308.659 334.641 308.497 334.876C308.336 335.111 308.087 335.228 307.749 335.228H304.669ZM313.579 341.608C313.579 342.019 313.433 342.319 313.139 342.51C312.861 342.701 312.538 342.796 312.171 342.796C311.805 342.796 311.475 342.701 311.181 342.51C310.903 342.319 310.763 342.019 310.763 341.608V332.962C310.763 332.551 310.903 332.251 311.181 332.06C311.475 331.869 311.805 331.774 312.171 331.774C312.538 331.774 312.861 331.869 313.139 332.06C313.433 332.251 313.579 332.551 313.579 332.962V341.608ZM313.579 350.342C313.579 351.031 313.44 351.508 313.161 351.772C312.897 352.036 312.413 352.168 311.709 352.168H302.205C301.501 352.168 301.01 352.036 300.731 351.772C300.467 351.508 300.335 351.031 300.335 350.342V344.754C300.335 344.373 300.475 344.087 300.753 343.896C301.047 343.705 301.362 343.61 301.699 343.61C302.051 343.61 302.367 343.705 302.645 343.896C302.939 344.087 303.085 344.373 303.085 344.754V346.206H310.829V344.754C310.829 344.373 310.969 344.087 311.247 343.896C311.541 343.705 311.856 343.61 312.193 343.61C312.545 343.61 312.861 343.705 313.139 343.896C313.433 344.087 313.579 344.373 313.579 344.754V350.342ZM310.323 349.902C310.661 349.902 310.829 349.733 310.829 349.396V348.428H303.085V349.396C303.085 349.733 303.254 349.902 303.591 349.902H310.323ZM324.253 335.69V337.318C324.253 337.787 324.275 338.213 324.319 338.594C324.378 338.975 324.466 339.327 324.583 339.65C324.715 339.973 324.884 340.288 325.089 340.596C325.294 340.889 325.551 341.19 325.859 341.498C326.284 341.923 326.695 342.327 327.091 342.708C327.487 343.089 327.854 343.427 328.191 343.72C328.47 343.969 328.58 344.263 328.521 344.6C328.477 344.937 328.345 345.223 328.125 345.458C327.905 345.678 327.634 345.825 327.311 345.898C326.988 345.957 326.695 345.869 326.431 345.634C326.138 345.385 325.815 345.091 325.463 344.754C325.111 344.402 324.737 344.028 324.341 343.632C323.769 343.06 323.388 342.627 323.197 342.334C323.006 342.026 322.889 341.769 322.845 341.564H322.823C322.794 341.696 322.75 341.828 322.691 341.96C322.647 342.077 322.566 342.224 322.449 342.4C322.346 342.561 322.2 342.752 322.009 342.972C321.818 343.177 321.584 343.419 321.305 343.698C320.909 344.094 320.513 344.483 320.117 344.864C319.721 345.245 319.31 345.619 318.885 345.986C318.738 346.103 318.584 346.177 318.423 346.206C318.262 346.235 318.1 346.235 317.939 346.206C317.792 346.162 317.646 346.103 317.499 346.03C317.367 345.942 317.25 345.839 317.147 345.722C316.927 345.473 316.81 345.179 316.795 344.842C316.78 344.505 316.912 344.211 317.191 343.962C318.115 343.155 318.98 342.334 319.787 341.498C320.095 341.19 320.352 340.889 320.557 340.596C320.762 340.288 320.924 339.973 321.041 339.65C321.173 339.327 321.261 338.975 321.305 338.594C321.364 338.213 321.393 337.787 321.393 337.318V335.69H318.137C317.8 335.69 317.55 335.573 317.389 335.338C317.228 335.103 317.147 334.825 317.147 334.502C317.147 334.165 317.228 333.879 317.389 333.644C317.55 333.409 317.8 333.292 318.137 333.292H327.333C327.67 333.292 327.92 333.409 328.081 333.644C328.242 333.879 328.323 334.165 328.323 334.502C328.323 334.825 328.242 335.103 328.081 335.338C327.92 335.573 327.67 335.69 327.333 335.69H324.253ZM334.725 338.264C335.077 338.264 335.334 338.381 335.495 338.616C335.656 338.851 335.737 339.137 335.737 339.474C335.737 339.811 335.656 340.105 335.495 340.354C335.334 340.589 335.077 340.706 334.725 340.706H332.657V349.814C332.657 350.225 332.51 350.525 332.217 350.716C331.938 350.907 331.616 351.002 331.249 351.002C330.882 351.002 330.552 350.907 330.259 350.716C329.98 350.525 329.841 350.225 329.841 349.814V332.962C329.841 332.551 329.98 332.251 330.259 332.06C330.552 331.869 330.882 331.774 331.249 331.774C331.616 331.774 331.938 331.869 332.217 332.06C332.51 332.251 332.657 332.551 332.657 332.962V338.264H334.725ZM341.13 340.222C340.426 340.222 339.935 340.09 339.656 339.826C339.392 339.562 339.26 339.085 339.26 338.396V336.988C339.26 336.299 339.392 335.822 339.656 335.558C339.935 335.294 340.426 335.162 341.13 335.162H349.82C350.04 335.162 350.15 335.052 350.15 334.832V334.59C350.15 334.37 350.04 334.26 349.82 334.26H340.118C339.81 334.26 339.583 334.157 339.436 333.952C339.29 333.732 339.216 333.483 339.216 333.204C339.216 332.925 339.29 332.683 339.436 332.478C339.583 332.258 339.81 332.148 340.118 332.148H350.986C351.69 332.148 352.174 332.28 352.438 332.544C352.717 332.808 352.856 333.285 352.856 333.974V335.36C352.856 336.049 352.717 336.526 352.438 336.79C352.174 337.054 351.69 337.186 350.986 337.186H342.296C342.076 337.186 341.966 337.296 341.966 337.516V337.78C341.966 338 342.076 338.11 342.296 338.11H352.394C352.702 338.11 352.93 338.22 353.076 338.44C353.223 338.645 353.296 338.887 353.296 339.166C353.296 339.445 353.223 339.694 353.076 339.914C352.93 340.119 352.702 340.222 352.394 340.222H341.13ZM337.72 343.368C337.398 343.368 337.156 343.265 336.994 343.06C336.848 342.84 336.774 342.576 336.774 342.268C336.774 341.96 336.848 341.703 336.994 341.498C337.156 341.278 337.398 341.168 337.72 341.168H354.44C354.763 341.168 354.998 341.278 355.144 341.498C355.306 341.703 355.386 341.96 355.386 342.268C355.386 342.576 355.306 342.84 355.144 343.06C354.998 343.265 354.763 343.368 354.44 343.368H337.72ZM340.998 352.388C340.294 352.388 339.803 352.256 339.524 351.992C339.26 351.728 339.128 351.251 339.128 350.562V349.154C339.128 348.465 339.26 347.988 339.524 347.724C339.803 347.46 340.294 347.328 340.998 347.328H349.952C350.172 347.328 350.282 347.218 350.282 346.998V346.756C350.282 346.536 350.172 346.426 349.952 346.426H339.986C339.678 346.426 339.451 346.323 339.304 346.118C339.158 345.898 339.084 345.649 339.084 345.37C339.084 345.091 339.158 344.849 339.304 344.644C339.451 344.424 339.678 344.314 339.986 344.314H351.118C351.822 344.314 352.306 344.446 352.57 344.71C352.849 344.974 352.988 345.451 352.988 346.14V347.526C352.988 348.215 352.849 348.692 352.57 348.956C352.306 349.22 351.822 349.352 351.118 349.352H342.164C341.944 349.352 341.834 349.462 341.834 349.682V349.946C341.834 350.166 341.944 350.276 342.164 350.276H352.526C352.834 350.276 353.062 350.379 353.208 350.584C353.355 350.804 353.428 351.053 353.428 351.332C353.428 351.611 353.355 351.853 353.208 352.058C353.062 352.278 352.834 352.388 352.526 352.388H340.998ZM369.184 341.168C367.394 341.168 366.045 340.772 365.136 339.98C364.226 339.173 363.772 338.132 363.772 336.856C363.772 335.58 364.226 334.546 365.136 333.754C366.045 332.947 367.394 332.544 369.184 332.544C370.078 332.544 370.863 332.654 371.538 332.874C372.212 333.079 372.777 333.373 373.232 333.754C373.686 334.121 374.024 334.575 374.244 335.118C374.478 335.646 374.596 336.225 374.596 336.856C374.596 337.501 374.478 338.088 374.244 338.616C374.024 339.144 373.686 339.599 373.232 339.98C372.777 340.347 372.212 340.64 371.538 340.86C370.863 341.065 370.078 341.168 369.184 341.168ZM369.184 334.854C368.245 334.854 367.548 335.037 367.094 335.404C366.654 335.756 366.434 336.24 366.434 336.856C366.434 337.472 366.654 337.963 367.094 338.33C367.548 338.682 368.245 338.858 369.184 338.858C370.122 338.858 370.812 338.682 371.252 338.33C371.706 337.963 371.934 337.472 371.934 336.856C371.934 336.24 371.706 335.756 371.252 335.404C370.812 335.037 370.122 334.854 369.184 334.854ZM376.752 332.962C376.752 332.551 376.891 332.251 377.17 332.06C377.463 331.869 377.793 331.774 378.16 331.774C378.512 331.774 378.827 331.869 379.106 332.06C379.399 332.251 379.546 332.551 379.546 332.962V349.814C379.546 350.225 379.399 350.525 379.106 350.716C378.827 350.907 378.512 351.002 378.16 351.002C377.793 351.002 377.463 350.907 377.17 350.716C376.891 350.525 376.752 350.225 376.752 349.814V332.962ZM363.53 342.532C365.407 342.532 367.292 342.51 369.184 342.466C371.076 342.422 372.953 342.319 374.816 342.158C375.153 342.129 375.41 342.217 375.586 342.422C375.762 342.613 375.864 342.869 375.894 343.192C375.923 343.5 375.872 343.786 375.74 344.05C375.608 344.299 375.373 344.439 375.036 344.468C374.405 344.527 373.716 344.585 372.968 344.644C372.234 344.688 371.45 344.725 370.614 344.754V349.594C370.614 350.005 370.467 350.305 370.174 350.496C369.895 350.687 369.58 350.782 369.228 350.782C368.861 350.782 368.531 350.687 368.238 350.496C367.959 350.305 367.82 350.005 367.82 349.594V344.842C367.116 344.857 366.404 344.871 365.686 344.886C364.967 344.886 364.248 344.886 363.53 344.886C363.192 344.886 362.943 344.769 362.782 344.534C362.62 344.299 362.54 344.021 362.54 343.698C362.54 343.39 362.62 343.119 362.782 342.884C362.943 342.649 363.192 342.532 363.53 342.532ZM388.283 337.296C389.794 337.296 390.975 337.633 391.825 338.308C392.691 338.968 393.123 339.877 393.123 341.036C393.123 342.195 392.691 343.111 391.825 343.786C390.975 344.446 389.794 344.776 388.283 344.776C386.773 344.776 385.585 344.446 384.719 343.786C383.869 343.111 383.443 342.195 383.443 341.036C383.443 339.877 383.869 338.968 384.719 338.308C385.585 337.633 386.773 337.296 388.283 337.296ZM383.201 336.372C382.864 336.372 382.615 336.255 382.453 336.02C382.292 335.785 382.211 335.507 382.211 335.184C382.211 334.861 382.292 334.583 382.453 334.348C382.615 334.113 382.864 333.996 383.201 333.996H386.875V332.918C386.875 332.507 387.015 332.207 387.293 332.016C387.587 331.825 387.917 331.73 388.283 331.73C388.65 331.73 388.973 331.825 389.251 332.016C389.545 332.207 389.691 332.507 389.691 332.918V333.996H393.145C393.483 333.996 393.732 334.113 393.893 334.348C394.055 334.583 394.135 334.861 394.135 335.184C394.135 335.507 394.055 335.785 393.893 336.02C393.732 336.255 393.483 336.372 393.145 336.372H383.201ZM388.283 342.62C389.075 342.62 389.655 342.473 390.021 342.18C390.403 341.872 390.593 341.491 390.593 341.036C390.593 340.581 390.403 340.207 390.021 339.914C389.655 339.606 389.075 339.452 388.283 339.452C387.491 339.452 386.905 339.606 386.523 339.914C386.157 340.207 385.973 340.581 385.973 341.036C385.973 341.491 386.157 341.872 386.523 342.18C386.905 342.473 387.491 342.62 388.283 342.62ZM398.227 337.516H400.317C400.655 337.516 400.904 337.633 401.065 337.868C401.227 338.103 401.307 338.389 401.307 338.726C401.307 339.063 401.227 339.349 401.065 339.584C400.904 339.819 400.655 339.936 400.317 339.936H398.227V345.81C398.227 346.221 398.081 346.521 397.787 346.712C397.509 346.903 397.193 346.998 396.841 346.998C396.475 346.998 396.145 346.903 395.851 346.712C395.573 346.521 395.433 346.221 395.433 345.81V332.962C395.433 332.551 395.573 332.251 395.851 332.06C396.145 331.869 396.475 331.774 396.841 331.774C397.193 331.774 397.509 331.869 397.787 332.06C398.081 332.251 398.227 332.551 398.227 332.962V337.516ZM387.073 352.014C386.369 352.014 385.878 351.882 385.599 351.618C385.335 351.354 385.203 350.877 385.203 350.188V346.866C385.203 346.455 385.343 346.155 385.621 345.964C385.915 345.773 386.252 345.678 386.633 345.678C387 345.678 387.323 345.773 387.601 345.964C387.895 346.155 388.041 346.455 388.041 346.866V349.11C388.041 349.447 388.21 349.616 388.547 349.616H397.721C398.059 349.616 398.308 349.733 398.469 349.968C398.631 350.203 398.711 350.489 398.711 350.826C398.711 351.149 398.631 351.427 398.469 351.662C398.308 351.897 398.059 352.014 397.721 352.014H387.073ZM414.709 333.138C415.09 333.138 415.42 333.226 415.699 333.402C415.977 333.578 416.219 333.923 416.425 334.436L421.375 347.196C421.536 347.621 421.536 347.988 421.375 348.296C421.213 348.604 420.949 348.817 420.583 348.934C420.216 349.051 419.849 349.066 419.483 348.978C419.131 348.89 418.874 348.611 418.713 348.142L417.437 344.622H411.893L410.595 348.23C410.433 348.655 410.184 348.912 409.847 349C409.524 349.073 409.187 349.051 408.835 348.934C408.483 348.817 408.226 348.619 408.065 348.34C407.903 348.061 407.903 347.717 408.065 347.306L413.015 334.436C413.205 333.923 413.44 333.578 413.719 333.402C414.012 333.226 414.342 333.138 414.709 333.138ZM414.665 336.658C414.547 337.098 414.43 337.494 414.313 337.846C414.21 338.183 414.071 338.601 413.895 339.1L412.729 342.29H416.601L415.457 339.1C415.266 338.587 415.112 338.147 414.995 337.78C414.892 337.413 414.782 337.039 414.665 336.658ZM425.52 333.138C425.901 333.138 426.231 333.233 426.51 333.424C426.789 333.615 426.928 333.923 426.928 334.348V347.834C426.928 348.259 426.789 348.567 426.51 348.758C426.231 348.949 425.901 349.044 425.52 349.044C425.139 349.044 424.809 348.949 424.53 348.758C424.251 348.567 424.112 348.259 424.112 347.834V334.348C424.112 333.923 424.251 333.615 424.53 333.424C424.809 333.233 425.139 333.138 425.52 333.138ZM432.099 346.58C432.51 346.653 432.825 346.844 433.045 347.152C433.265 347.445 433.294 347.805 433.133 348.23L432.011 351.266C431.879 351.618 431.681 351.853 431.417 351.97C431.168 352.087 430.896 352.117 430.603 352.058C430.31 351.999 430.075 351.875 429.899 351.684C429.738 351.493 429.686 351.244 429.745 350.936L430.295 347.592C430.368 347.152 430.588 346.859 430.955 346.712C431.322 346.551 431.703 346.507 432.099 346.58ZM447.666 333.138C448.047 333.138 448.377 333.226 448.656 333.402C448.934 333.578 449.176 333.923 449.382 334.436L454.332 347.196C454.493 347.621 454.493 347.988 454.332 348.296C454.17 348.604 453.906 348.817 453.54 348.934C453.173 349.051 452.806 349.066 452.44 348.978C452.088 348.89 451.831 348.611 451.67 348.142L450.394 344.622H444.85L443.552 348.23C443.39 348.655 443.141 348.912 442.804 349C442.481 349.073 442.144 349.051 441.792 348.934C441.44 348.817 441.183 348.619 441.022 348.34C440.86 348.061 440.86 347.717 441.022 347.306L445.972 334.436C446.162 333.923 446.397 333.578 446.676 333.402C446.969 333.226 447.299 333.138 447.666 333.138ZM447.622 336.658C447.504 337.098 447.387 337.494 447.27 337.846C447.167 338.183 447.028 338.601 446.852 339.1L445.686 342.29H449.558L448.414 339.1C448.223 338.587 448.069 338.147 447.952 337.78C447.849 337.413 447.739 337.039 447.622 336.658ZM464.418 333.138C464.755 333.138 465.085 333.241 465.408 333.446C465.731 333.637 465.958 333.974 466.09 334.458L468.95 344.798L471.744 334.106C471.847 333.71 472.045 333.439 472.338 333.292C472.646 333.145 472.983 333.109 473.35 333.182C473.731 333.255 474.003 333.439 474.164 333.732C474.34 334.011 474.369 334.348 474.252 334.744L470.622 347.724C470.49 348.208 470.263 348.553 469.94 348.758C469.617 348.949 469.287 349.044 468.95 349.044C468.613 349.044 468.283 348.949 467.96 348.758C467.637 348.553 467.41 348.193 467.278 347.68L464.396 336.922L461.382 347.724C461.25 348.208 461.015 348.553 460.678 348.758C460.355 348.949 460.025 349.044 459.688 349.044C459.336 349.044 458.999 348.949 458.676 348.758C458.353 348.553 458.126 348.201 457.994 347.702L454.452 334.876C454.335 334.451 454.364 334.091 454.54 333.798C454.731 333.505 455.024 333.307 455.42 333.204C455.787 333.116 456.131 333.123 456.454 333.226C456.791 333.329 457.019 333.607 457.136 334.062L459.842 344.82L462.724 334.458C462.856 333.974 463.083 333.637 463.406 333.446C463.729 333.241 464.066 333.138 464.418 333.138ZM482.308 333.028C483.892 333.028 485.219 333.299 486.29 333.842C486.613 334.003 486.818 334.245 486.906 334.568C486.994 334.891 486.95 335.213 486.774 335.536C486.598 335.873 486.371 336.086 486.092 336.174C485.813 336.247 485.52 336.218 485.212 336.086C484.743 335.881 484.295 335.741 483.87 335.668C483.445 335.58 482.939 335.536 482.352 335.536C481.868 335.536 481.443 335.595 481.076 335.712C480.724 335.815 480.423 335.961 480.174 336.152C479.925 336.328 479.734 336.533 479.602 336.768C479.485 336.988 479.426 337.215 479.426 337.45V337.582C479.426 337.861 479.47 338.103 479.558 338.308C479.661 338.513 479.829 338.704 480.064 338.88C480.313 339.041 480.651 339.195 481.076 339.342C481.501 339.474 482.051 339.606 482.726 339.738C484.559 340.119 485.872 340.684 486.664 341.432C487.456 342.18 487.852 343.141 487.852 344.314V344.512C487.852 346.023 487.361 347.174 486.378 347.966C485.395 348.758 483.943 349.154 482.022 349.154C481.113 349.154 480.225 349.044 479.36 348.824C478.509 348.589 477.791 348.289 477.204 347.922C476.852 347.702 476.654 347.423 476.61 347.086C476.566 346.734 476.647 346.404 476.852 346.096C477.057 345.773 477.307 345.575 477.6 345.502C477.893 345.429 478.209 345.487 478.546 345.678C479.059 345.971 479.624 346.206 480.24 346.382C480.856 346.543 481.494 346.624 482.154 346.624C483.166 346.624 483.899 346.448 484.354 346.096C484.809 345.729 485.036 345.275 485.036 344.732V344.578C485.036 343.962 484.794 343.485 484.31 343.148C483.841 342.796 483.078 342.517 482.022 342.312C481.098 342.136 480.299 341.931 479.624 341.696C478.949 341.461 478.385 341.168 477.93 340.816C477.49 340.449 477.16 340.017 476.94 339.518C476.735 339.005 476.632 338.381 476.632 337.648V337.494C476.632 336.878 476.749 336.299 476.984 335.756C477.233 335.213 477.6 334.744 478.084 334.348C478.568 333.937 479.162 333.615 479.866 333.38C480.57 333.145 481.384 333.028 482.308 333.028ZM491.768 335.668C491.43 335.668 491.181 335.551 491.02 335.316C490.858 335.081 490.778 334.803 490.778 334.48C490.778 334.143 490.858 333.857 491.02 333.622C491.181 333.387 491.43 333.27 491.768 333.27H498.39C499.094 333.27 499.578 333.402 499.842 333.666C500.12 333.93 500.26 334.407 500.26 335.096V337.538C500.26 338.154 500.223 338.711 500.15 339.21C500.076 339.709 499.937 340.185 499.732 340.64C499.541 341.08 499.27 341.513 498.918 341.938C498.566 342.363 498.104 342.811 497.532 343.28C496.96 343.749 496.263 344.255 495.442 344.798C494.635 345.341 493.674 345.949 492.56 346.624C492.252 346.815 491.929 346.851 491.592 346.734C491.269 346.602 491.02 346.404 490.844 346.14C490.668 345.876 490.58 345.568 490.58 345.216C490.58 344.864 490.741 344.585 491.064 344.38C492.061 343.779 492.912 343.251 493.616 342.796C494.334 342.327 494.928 341.909 495.398 341.542C495.882 341.175 496.256 340.838 496.52 340.53C496.798 340.222 497.004 339.914 497.136 339.606C497.282 339.283 497.37 338.953 497.4 338.616C497.444 338.279 497.466 337.89 497.466 337.45V336.174C497.466 335.837 497.297 335.668 496.96 335.668H491.768ZM506.574 349.814C506.574 350.225 506.427 350.525 506.134 350.716C505.855 350.907 505.525 351.002 505.144 351.002C504.777 351.002 504.447 350.907 504.154 350.716C503.875 350.525 503.736 350.225 503.736 349.814V332.962C503.736 332.551 503.875 332.251 504.154 332.06C504.447 331.869 504.777 331.774 505.144 331.774C505.525 331.774 505.855 331.869 506.134 332.06C506.427 332.251 506.574 332.551 506.574 332.962V349.814ZM513.155 336.306H517.335V334.018C517.335 333.622 517.474 333.329 517.753 333.138C518.046 332.947 518.369 332.852 518.721 332.852C519.073 332.852 519.388 332.947 519.667 333.138C519.96 333.329 520.107 333.622 520.107 334.018V341.454C520.107 342.143 519.968 342.62 519.689 342.884C519.425 343.148 518.941 343.28 518.237 343.28H512.253C511.549 343.28 511.058 343.148 510.779 342.884C510.515 342.62 510.383 342.143 510.383 341.454V334.018C510.383 333.622 510.522 333.329 510.801 333.138C511.094 332.947 511.417 332.852 511.769 332.852C512.121 332.852 512.436 332.947 512.715 333.138C513.008 333.329 513.155 333.622 513.155 334.018V336.306ZM516.829 340.97C517.166 340.97 517.335 340.801 517.335 340.464V338.616H513.155V340.464C513.155 340.801 513.324 340.97 513.661 340.97H516.829ZM527.719 337.274C528.071 337.274 528.328 337.391 528.489 337.626C528.65 337.861 528.731 338.147 528.731 338.484C528.731 338.821 528.65 339.115 528.489 339.364C528.328 339.599 528.071 339.716 527.719 339.716H525.651V345.59C525.651 346.001 525.504 346.301 525.211 346.492C524.932 346.683 524.61 346.778 524.243 346.778C523.876 346.778 523.546 346.683 523.253 346.492C522.974 346.301 522.835 346.001 522.835 345.59V332.962C522.835 332.551 522.974 332.251 523.253 332.06C523.546 331.869 523.876 331.774 524.243 331.774C524.61 331.774 524.932 331.869 525.211 332.06C525.504 332.251 525.651 332.551 525.651 332.962V337.274H527.719ZM514.497 352.014C513.793 352.014 513.302 351.882 513.023 351.618C512.759 351.354 512.627 350.877 512.627 350.188V346.162C512.627 345.751 512.766 345.451 513.045 345.26C513.338 345.069 513.676 344.974 514.057 344.974C514.424 344.974 514.746 345.069 515.025 345.26C515.318 345.451 515.465 345.751 515.465 346.162V349.11C515.465 349.447 515.634 349.616 515.971 349.616H525.145C525.482 349.616 525.732 349.733 525.893 349.968C526.054 350.203 526.135 350.489 526.135 350.826C526.135 351.149 526.054 351.427 525.893 351.662C525.732 351.897 525.482 352.014 525.145 352.014H514.497ZM542.968 337.186C542.968 337.611 542.998 338.007 543.056 338.374C543.115 338.741 543.203 339.093 543.32 339.43C543.452 339.753 543.621 340.075 543.826 340.398C544.032 340.706 544.288 341.029 544.596 341.366C544.992 341.791 545.388 342.209 545.784 342.62C546.195 343.031 546.569 343.383 546.906 343.676C547.185 343.925 547.295 344.226 547.236 344.578C547.178 344.915 547.038 345.201 546.818 345.436C546.716 345.539 546.591 345.627 546.444 345.7C546.298 345.773 546.144 345.825 545.982 345.854C545.836 345.869 545.682 345.854 545.52 345.81C545.374 345.766 545.234 345.685 545.102 345.568C544.809 345.304 544.486 345.003 544.134 344.666C543.797 344.314 543.452 343.947 543.1 343.566C542.807 343.258 542.565 342.994 542.374 342.774C542.184 342.554 542.03 342.363 541.912 342.202C541.81 342.026 541.729 341.879 541.67 341.762C541.612 341.645 541.575 341.535 541.56 341.432H541.538C541.509 341.564 541.465 341.696 541.406 341.828C541.348 341.945 541.26 342.092 541.142 342.268C541.04 342.429 540.893 342.62 540.702 342.84C540.512 343.06 540.27 343.324 539.976 343.632C539.624 344.013 539.258 344.387 538.876 344.754C538.51 345.121 538.106 345.509 537.666 345.92C537.388 346.169 537.072 346.25 536.72 346.162C536.383 346.059 536.112 345.898 535.906 345.678C535.686 345.429 535.569 345.135 535.554 344.798C535.54 344.461 535.664 344.167 535.928 343.918C536.838 343.082 537.688 342.231 538.48 341.366C538.788 341.029 539.045 340.706 539.25 340.398C539.456 340.075 539.617 339.753 539.734 339.43C539.866 339.093 539.962 338.741 540.02 338.374C540.079 338.007 540.108 337.611 540.108 337.186V334.018C540.108 333.593 540.248 333.285 540.526 333.094C540.82 332.903 541.157 332.808 541.538 332.808C541.92 332.808 542.25 332.903 542.528 333.094C542.822 333.285 542.968 333.593 542.968 334.018V337.186ZM546.708 339.936C546.371 339.936 546.122 339.819 545.96 339.584C545.799 339.349 545.718 339.071 545.718 338.748C545.718 338.411 545.799 338.125 545.96 337.89C546.122 337.655 546.371 337.538 546.708 337.538H549.458V332.962C549.458 332.551 549.598 332.251 549.876 332.06C550.17 331.869 550.5 331.774 550.866 331.774C551.218 331.774 551.534 331.869 551.812 332.06C552.106 332.251 552.252 332.551 552.252 332.962V349.814C552.252 350.225 552.106 350.525 551.812 350.716C551.534 350.907 551.218 351.002 550.866 351.002C550.5 351.002 550.17 350.907 549.876 350.716C549.598 350.525 549.458 350.225 549.458 349.814V339.936H546.708ZM559.142 337.648H563.41V334.216C563.41 333.82 563.549 333.527 563.828 333.336C564.121 333.145 564.444 333.05 564.796 333.05C565.148 333.05 565.463 333.145 565.742 333.336C566.035 333.527 566.182 333.82 566.182 334.216V344.16C566.182 344.849 566.043 345.326 565.764 345.59C565.5 345.854 565.016 345.986 564.312 345.986H558.24C557.536 345.986 557.045 345.854 556.766 345.59C556.502 345.326 556.37 344.849 556.37 344.16V334.216C556.37 333.82 556.509 333.527 556.788 333.336C557.081 333.145 557.404 333.05 557.756 333.05C558.108 333.05 558.423 333.145 558.702 333.336C558.995 333.527 559.142 333.82 559.142 334.216V337.648ZM562.904 343.632C563.241 343.632 563.41 343.463 563.41 343.126V340.002H559.142V343.126C559.142 343.463 559.311 343.632 559.648 343.632H562.904ZM572.144 349.814C572.144 350.225 571.997 350.525 571.704 350.716C571.425 350.907 571.095 351.002 570.714 351.002C570.347 351.002 570.017 350.907 569.724 350.716C569.445 350.525 569.306 350.225 569.306 349.814V332.962C569.306 332.551 569.445 332.251 569.724 332.06C570.017 331.869 570.347 331.774 570.714 331.774C571.095 331.774 571.425 331.869 571.704 332.06C571.997 332.251 572.144 332.551 572.144 332.962V349.814ZM592.013 341.08C592.307 341.241 592.461 341.498 592.475 341.85C592.49 342.187 592.417 342.488 592.255 342.752C592.094 343.031 591.852 343.229 591.529 343.346C591.221 343.463 590.913 343.441 590.605 343.28C589.887 342.884 589.205 342.495 588.559 342.114C587.929 341.733 587.313 341.351 586.711 340.97C586.051 340.545 585.553 340.149 585.215 339.782C584.893 339.401 584.702 339.085 584.643 338.836H584.621C584.548 339.129 584.343 339.467 584.005 339.848C583.683 340.215 583.191 340.611 582.531 341.036C581.93 341.417 581.307 341.799 580.661 342.18C580.031 342.561 579.356 342.95 578.637 343.346C578.329 343.507 578.021 343.529 577.713 343.412C577.405 343.295 577.163 343.089 576.987 342.796C576.826 342.517 576.753 342.202 576.767 341.85C576.782 341.498 576.936 341.241 577.229 341.08C577.86 340.728 578.491 340.369 579.121 340.002C579.752 339.621 580.405 339.217 581.079 338.792C581.827 338.308 582.363 337.773 582.685 337.186C583.023 336.599 583.191 335.895 583.191 335.074V333.908C583.191 333.483 583.331 333.175 583.609 332.984C583.903 332.793 584.24 332.698 584.621 332.698C585.003 332.698 585.333 332.793 585.611 332.984C585.905 333.175 586.051 333.483 586.051 333.908V335.074C586.051 335.895 586.213 336.599 586.535 337.186C586.873 337.773 587.415 338.308 588.163 338.792C588.838 339.217 589.491 339.621 590.121 340.002C590.752 340.369 591.383 340.728 592.013 341.08ZM576.305 349.198C575.968 349.198 575.719 349.081 575.557 348.846C575.396 348.611 575.315 348.333 575.315 348.01C575.315 347.673 575.396 347.387 575.557 347.152C575.719 346.917 575.968 346.8 576.305 346.8H592.937C593.275 346.8 593.524 346.917 593.685 347.152C593.847 347.387 593.927 347.673 593.927 348.01C593.927 348.333 593.847 348.611 593.685 348.846C593.524 349.081 593.275 349.198 592.937 349.198H576.305Z" fill="#007B8F"/>
</g>
<defs>
<clipPath id="clip0_394_3113">
<rect width="1728" height="696" fill="white"/>
</clipPath>
</defs>
</svg>
