<svg width="1395" height="283" viewBox="0 0 1395 283" fill="none" xmlns="http://www.w3.org/2000/svg">
<path d="M232.399 61.73H236.089V69.335H232.399V61.73ZM226.594 68.165H230.284V72.53H249.634V68.165H253.324V82.97H226.594V68.165ZM230.284 75.455V79.91H249.634V75.455H230.284ZM249.589 42.83H253.324V66.185H249.589V42.83ZM220.744 63.665L220.249 60.605C222.799 60.605 225.574 60.59 228.574 60.56C231.574 60.53 234.634 60.425 237.754 60.245C240.904 60.065 243.949 59.795 246.889 59.435L247.114 62.135C244.084 62.615 241.024 62.975 237.934 63.215C234.844 63.425 231.829 63.56 228.889 63.62C225.949 63.65 223.234 63.665 220.744 63.665ZM231.949 43.775H234.964V45.8C234.964 47.78 234.499 49.595 233.569 51.245C232.639 52.865 231.334 54.275 229.654 55.475C227.974 56.645 225.994 57.515 223.714 58.085L222.049 55.205C224.029 54.725 225.754 54.035 227.224 53.135C228.694 52.205 229.849 51.11 230.689 49.85C231.529 48.59 231.949 47.24 231.949 45.8V43.775ZM232.759 43.775H235.774V45.8C235.774 47.18 236.194 48.47 237.034 49.67C237.874 50.84 239.029 51.86 240.499 52.73C241.969 53.57 243.679 54.2 245.629 54.62L244.009 57.455C241.789 56.945 239.824 56.15 238.114 55.07C236.434 53.96 235.114 52.625 234.154 51.065C233.224 49.475 232.759 47.72 232.759 45.8V43.775ZM265.516 46.88H291.706V49.94H265.516V46.88ZM261.601 74.69H298.366V77.795H261.601V74.69ZM275.911 60.155H279.601V76.265H275.911V60.155ZM290.266 46.88H294.001V50.885C294.001 52.565 293.971 54.335 293.911 56.195C293.881 58.055 293.761 60.095 293.551 62.315C293.371 64.535 293.026 67.01 292.516 69.74L288.736 69.29C289.516 65.39 289.966 61.97 290.086 59.03C290.206 56.06 290.266 53.345 290.266 50.885V46.88ZM342.806 42.785H346.541V73.07H342.806V42.785ZM314.276 46.07H335.696V49.13H314.276V46.07ZM313.601 66.95L313.151 63.8C315.401 63.8 317.876 63.785 320.576 63.755C323.306 63.695 326.081 63.59 328.901 63.44C331.721 63.29 334.406 63.08 336.956 62.81L337.136 65.6C334.556 66.02 331.856 66.32 329.036 66.5C326.246 66.68 323.516 66.8 320.846 66.86C318.206 66.92 315.791 66.95 313.601 66.95ZM318.281 48.725H321.926V64.34H318.281V48.725ZM328.046 48.725H331.646V64.34H328.046V48.725ZM336.011 50.525H344.741V53.585H336.011V50.525ZM336.011 58.265H344.741V61.37H336.011V58.265ZM320.486 79.55H347.621V82.61H320.486V79.55ZM320.486 70.595H324.221V81.485H320.486V70.595ZM384.112 42.785H387.802V83.555H384.112V42.785ZM356.797 70.595H360.172C362.482 70.595 364.702 70.565 366.832 70.505C368.992 70.415 371.167 70.265 373.357 70.055C375.577 69.845 377.887 69.545 380.287 69.155L380.647 72.215C376.987 72.815 373.537 73.22 370.297 73.43C367.057 73.61 363.682 73.7 360.172 73.7H356.797V70.595ZM356.707 46.565H375.517V61.1H360.577V71.765H356.797V58.085H371.737V49.625H356.707V46.565ZM423.709 42.83H427.444V73.34H423.709V42.83ZM426.274 56.195H433.429V59.3H426.274V56.195ZM395.944 47.78H419.974V50.795H395.944V47.78ZM407.959 53C409.879 53 411.574 53.33 413.044 53.99C414.514 54.62 415.654 55.505 416.464 56.645C417.274 57.755 417.679 59.075 417.679 60.605C417.679 62.135 417.274 63.47 416.464 64.61C415.654 65.72 414.514 66.59 413.044 67.22C411.574 67.85 409.879 68.165 407.959 68.165C406.039 68.165 404.344 67.85 402.874 67.22C401.404 66.59 400.249 65.72 399.409 64.61C398.599 63.47 398.194 62.135 398.194 60.605C398.194 59.075 398.599 57.755 399.409 56.645C400.249 55.505 401.404 54.62 402.874 53.99C404.344 53.33 406.039 53 407.959 53ZM407.959 55.925C406.129 55.925 404.644 56.36 403.504 57.23C402.364 58.07 401.794 59.195 401.794 60.605C401.794 62.015 402.364 63.14 403.504 63.98C404.644 64.82 406.129 65.24 407.959 65.24C409.819 65.24 411.304 64.82 412.414 63.98C413.554 63.14 414.124 62.015 414.124 60.605C414.124 59.195 413.554 58.07 412.414 57.23C411.304 56.36 409.819 55.925 407.959 55.925ZM406.114 42.83H409.849V49.31H406.114V42.83ZM402.109 79.55H429.244V82.61H402.109V79.55ZM402.109 70.91H405.799V80.81H402.109V70.91ZM406.159 133.35H409.894V143.025H406.159V133.35ZM408.004 115.44C410.074 115.44 411.919 115.845 413.539 116.655C415.159 117.435 416.434 118.545 417.364 119.985C418.294 121.425 418.759 123.105 418.759 125.025C418.759 126.885 418.294 128.55 417.364 130.02C416.434 131.46 415.159 132.585 413.539 133.395C411.919 134.175 410.074 134.565 408.004 134.565C405.904 134.565 404.044 134.175 402.424 133.395C400.804 132.585 399.529 131.46 398.599 130.02C397.669 128.55 397.204 126.885 397.204 125.025C397.204 123.105 397.669 121.425 398.599 119.985C399.529 118.545 400.804 117.435 402.424 116.655C404.044 115.845 405.904 115.44 408.004 115.44ZM408.004 118.635C406.624 118.635 405.394 118.905 404.314 119.445C403.234 119.955 402.379 120.69 401.749 121.65C401.149 122.61 400.849 123.735 400.849 125.025C400.849 126.285 401.149 127.395 401.749 128.355C402.379 129.315 403.234 130.065 404.314 130.605C405.394 131.145 406.624 131.415 408.004 131.415C409.384 131.415 410.599 131.145 411.649 130.605C412.729 130.065 413.569 129.315 414.169 128.355C414.799 127.395 415.114 126.285 415.114 125.025C415.114 123.735 414.799 122.61 414.169 121.65C413.569 120.69 412.729 119.955 411.649 119.445C410.599 118.905 409.384 118.635 408.004 118.635ZM423.394 112.785H427.084V153.51H423.394V112.785ZM426.049 129.57H433.564V132.72H426.049V129.57ZM395.944 144.69L395.359 141.585C397.819 141.555 400.489 141.525 403.369 141.495C406.279 141.465 409.219 141.36 412.189 141.18C415.189 141 418.069 140.73 420.829 140.37L421.099 143.16C418.249 143.64 415.339 144 412.369 144.24C409.399 144.45 406.504 144.585 403.684 144.645C400.894 144.675 398.314 144.69 395.944 144.69Z" fill="black"/>
<path d="M19.1803 132.855H25.7953V113.595H30.1603V137.805H25.7953V136.005H19.1803V132.855ZM13.6003 117.465C10.7653 117.465 8.92031 118.5 8.92031 120.255C8.92031 122.055 10.7653 123.09 13.6003 123.09C16.4803 123.09 18.3253 122.055 18.3253 120.255C18.3253 118.5 16.4803 117.465 13.6003 117.465ZM13.6003 126.33C8.33531 126.33 4.73531 123.99 4.73531 120.255C4.73531 116.61 8.33531 114.225 13.6003 114.225C18.9103 114.225 22.4653 116.61 22.4653 120.255C22.4653 123.99 18.9103 126.33 13.6003 126.33ZM11.5303 137.76V131.685C8.42531 131.82 5.59031 131.865 3.29531 131.865L2.84531 128.31C8.33531 128.31 17.2453 128.22 23.8603 127.14L24.1303 130.29C21.6103 130.83 18.8203 131.235 15.9853 131.415V137.76H11.5303ZM33.1303 149.325V146.13H14.3203V149.325H33.1303ZM33.1303 142.62V139.335H37.7203V152.97H9.73031V139.335H14.3203V142.62H33.1303ZM33.3103 112.83H37.7203V137.94H33.3103V112.83ZM77.0918 128.31V131.955H49.1468V114.225H76.8668V117.87H53.7818V121.29H75.8768V124.8H53.7818V128.31H77.0918ZM53.6018 141.765V148.92H77.2268V152.7H48.9668V141.765H53.6018ZM44.4668 134.88H81.3668V138.615H65.5718V145.32H60.9368V138.615H44.4668V134.88ZM124.771 112.785H129.451V153.555H124.771V112.785ZM107.806 115.8C113.881 115.8 118.291 121.38 118.291 130.11C118.291 138.93 113.881 144.465 107.806 144.465C101.776 144.465 97.3657 138.93 97.3657 130.11C97.3657 121.38 101.776 115.8 107.806 115.8ZM107.806 119.985C104.296 119.985 101.821 123.81 101.821 130.11C101.821 136.5 104.296 140.325 107.806 140.325C111.361 140.325 113.836 136.5 113.836 130.11C113.836 123.81 111.361 119.985 107.806 119.985ZM139.572 116.655H158.652V143.52H139.572V116.655ZM154.107 120.345H144.117V139.785H154.107V120.345ZM166.167 112.785H170.847V153.555H166.167V112.785ZM193.794 120.705V124.575C193.794 131.325 197.979 138.345 204.324 141.045L201.759 144.69C197.034 142.62 193.389 138.21 191.499 132.945C189.699 138.615 186.054 143.43 181.284 145.725L178.629 142.035C184.929 139.11 189.114 131.55 189.114 124.575V120.705H180.069V116.88H202.839V120.705H193.794ZM207.564 112.83H212.244V153.465H207.564V112.83ZM229.205 120.66V139.875C231.005 139.83 232.895 139.74 234.74 139.65V120.66H229.205ZM239.24 120.66V139.38C241.13 139.2 243.02 139.02 244.82 138.795L245.09 142.215C236.675 143.61 227.27 143.745 220.205 143.745L219.71 139.92C221.24 139.92 222.95 139.92 224.705 139.92V120.66H220.745V116.925H243.2V120.66H239.24ZM258.005 128.715V132.54H251.66V153.51H247.025V112.83H251.66V128.715H258.005ZM295.082 112.785V133.44H290.447V112.785H295.082ZM266.867 123.315C266.867 126.555 269.477 128.67 272.987 128.67C276.542 128.67 279.197 126.555 279.197 123.315C279.197 120.075 276.542 117.96 272.987 117.96C269.477 117.96 266.867 120.075 266.867 123.315ZM283.697 123.315C283.697 128.67 279.152 132.45 272.987 132.45C266.867 132.45 262.367 128.67 262.367 123.315C262.367 117.96 266.867 114.135 272.987 114.135C279.152 114.135 283.697 117.96 283.697 123.315ZM273.077 149.325H296.297V152.97H268.532V142.305H290.492V138.93H268.442V135.285H295.082V145.725H273.077V149.325ZM334.571 130.245L330.026 129.75C330.836 125.385 330.971 122.19 331.016 119.67H315.131V115.89H335.561V118.23C335.561 120.975 335.561 124.98 334.571 130.245ZM337.946 132.27L338.261 135.645C329.801 137.13 320.216 137.355 313.151 137.355L312.656 133.575C315.086 133.575 317.876 133.575 320.756 133.485V125.16H325.346V133.35C329.576 133.17 333.941 132.9 337.946 132.27ZM323.456 140.64V148.92H346.406V152.7H318.776V140.64H323.456ZM345.101 125.7H350.501V129.525H345.101V143.34H340.421V112.83H345.101V125.7ZM361.477 131.505V140.055C367.912 140.01 373.537 139.695 379.972 138.66L380.467 142.44C373.492 143.655 367.417 143.88 360.262 143.88H356.797V127.77H370.972V120.21H356.707V116.43H375.652V131.505H361.477ZM383.347 112.74H388.027V153.555H383.347V112.74Z" fill="#007B8F"/>
<path d="M174.473 190.435V209.65C181.043 209.605 185.993 209.335 191.663 208.345L192.158 212.17C185.993 213.295 180.503 213.52 173.168 213.52H169.838V186.655H188.738V190.435H174.473ZM206.018 198.445V202.27H199.673V223.51H195.038V182.785H199.673V198.445H206.018ZM246.424 202.72H230.314V209.38H242.014V223.465H237.379V213.115H213.349V209.38H225.634V202.72H209.614V198.985H236.299C237.199 194.62 237.289 191.335 237.289 188.41H214.204V184.675H241.834V187.78C241.834 190.84 241.834 194.35 240.934 198.985H246.424V202.72ZM261.946 210.325C265.456 210.325 267.841 206.545 267.841 200.11C267.841 193.81 265.456 189.985 261.946 189.985C258.481 189.985 256.096 193.81 256.096 200.11C256.096 206.545 258.481 210.325 261.946 210.325ZM280.081 182.785H284.761V223.555H280.081V201.73H272.206C271.666 209.605 267.526 214.465 261.946 214.465C255.961 214.465 251.686 208.93 251.686 200.11C251.686 191.38 255.961 185.8 261.946 185.8C267.391 185.8 271.531 190.48 272.161 197.95H280.081V182.785ZM318.535 202.495V195.88H308.95V202.495H318.535ZM323.08 197.77V206.275H304.36V185.53H308.95V192.235H318.535V185.53H323.08V193.99H331.54V182.83H336.175V212.935H331.54V197.77H323.08ZM314.395 218.92H337.12V222.7H309.715V209.965H314.395V218.92ZM350.166 212.62V208.885H377.571V223.51H372.936V212.62H350.166ZM365.241 197.545H372.936V192.325H365.286C365.466 193.135 365.601 193.99 365.601 194.935C365.601 195.835 365.466 196.735 365.241 197.545ZM355.026 200.875C358.536 200.875 361.191 198.49 361.191 194.935C361.191 191.38 358.536 188.95 355.026 188.95C351.516 188.95 348.861 191.38 348.861 194.935C348.861 198.49 351.516 200.875 355.026 200.875ZM372.936 182.83L377.571 182.785V206.86H372.936V201.325H363.306C361.416 203.53 358.446 204.88 355.026 204.835C348.996 204.835 344.451 200.695 344.451 194.935C344.451 189.13 348.996 185.035 355.026 185.035C358.446 185.035 361.416 186.385 363.306 188.545H372.936V182.83ZM403.83 202L402.48 206.455H411.525L410.22 202C409.095 198.4 408.105 194.71 407.115 190.975H406.89C405.945 194.755 404.91 198.4 403.83 202ZM393.12 220L404.1 186.835H410.13L421.11 220H415.575L412.785 210.55H401.265L398.43 220H393.12ZM425.478 220V186.835H430.698V220H425.478Z" fill="#76B9C7"/>
<path d="M531.85 153.1H535.15V176.2H531.85V153.1ZM522.775 154.725C526.25 154.725 528.825 157.875 528.825 162.925C528.825 168 526.25 171.175 522.775 171.175C519.3 171.175 516.725 168 516.725 162.925C516.725 157.875 519.3 154.725 522.775 154.725ZM522.775 157.7C521.075 157.7 519.9 159.525 519.9 162.925C519.9 166.35 521.075 168.175 522.775 168.175C524.475 168.175 525.65 166.35 525.65 162.925C525.65 159.525 524.475 157.7 522.775 157.7ZM540.198 155.2H551.273V170.675H540.198V155.2ZM548.023 157.8H543.448V168.075H548.023V157.8ZM554.848 153.125H558.148V176.2H554.848V153.125ZM570.971 158.05V159.325C570.971 163.075 572.821 167.05 576.671 168.65L574.871 171.25C572.196 170.1 570.371 167.85 569.346 165.075C568.321 168.075 566.471 170.6 563.771 171.825L561.896 169.2C565.746 167.475 567.621 163.25 567.621 159.325V158.05H562.821V155.325H575.721V158.05H570.971ZM577.846 153.125H581.146V176.15H577.846V153.125ZM596.208 157.9V168.125C596.983 168.1 597.783 168.075 598.583 168.05V157.9H596.208ZM601.758 157.9V167.825C602.658 167.75 603.558 167.7 604.408 167.575L604.608 169.975C599.933 170.8 594.708 170.9 590.783 170.9L590.433 168.2C591.233 168.2 592.108 168.2 593.008 168.2V157.9H591.033V155.25H603.733V157.9H601.758ZM612.108 161.825V164.55H608.758V176.175H605.458V153.15H608.758V161.825H612.108ZM632.856 153.125V164.65H629.531V153.125H632.856ZM617.256 159.05C617.256 160.7 618.531 161.65 620.231 161.65C621.931 161.65 623.156 160.7 623.156 159.05C623.156 157.425 621.931 156.45 620.231 156.45C618.531 156.45 617.256 157.425 617.256 159.05ZM626.356 159.05C626.356 162.125 623.731 164.325 620.231 164.325C616.706 164.325 614.056 162.125 614.056 159.05C614.056 156 616.706 153.8 620.231 153.8C623.731 153.8 626.356 156 626.356 159.05ZM620.806 173.325H633.431V175.875H617.531V169.525H629.581V168.125H617.506V165.6H632.856V171.875H620.806V173.325ZM658.368 173.25V171.2H649.668V173.25H658.368ZM658.368 168.7V166.5H661.643V175.875H646.393V166.5H649.668V168.7H658.368ZM648.743 162.325C650.443 162.325 651.668 161.3 651.668 159.575C651.668 157.85 650.443 156.825 648.743 156.825C647.068 156.825 645.843 157.85 645.843 159.575C645.843 161.3 647.068 162.325 648.743 162.325ZM658.343 153.125H661.643V165.5H658.343V160.875H654.693C654.068 163.375 651.718 165.075 648.743 165.075C645.293 165.075 642.693 162.775 642.693 159.575C642.693 156.375 645.293 154.075 648.743 154.075C651.668 154.075 654.018 155.75 654.668 158.2H658.343V153.125ZM677.441 170.925H686.241V173.625H665.391V170.925H674.141V167.5H667.791V159.7H680.641V157.225H667.766V154.6H683.891V162.275H671.066V164.85H684.416V167.5H677.441V170.925ZM707.014 163.75V166.375H690.814V155.025H706.839V157.7H694.114V163.75H707.014ZM688.389 170.7H709.239V173.4H688.389V170.7Z" fill="black"/>
<path d="M520.616 130.252C518.834 130.252 517.052 129.55 515.756 128.308L517.286 126.472C518.24 127.354 519.5 127.948 520.67 127.948C522.056 127.948 522.794 127.354 522.794 126.418C522.794 125.428 521.984 125.122 520.796 124.618L519.014 123.862C517.664 123.304 516.314 122.224 516.314 120.28C516.314 118.102 518.222 116.428 520.922 116.428C522.47 116.428 524.018 117.04 525.098 118.138L523.748 119.812C522.902 119.11 522.02 118.714 520.922 118.714C519.752 118.714 519.014 119.236 519.014 120.118C519.014 121.072 519.95 121.414 521.084 121.864L522.83 122.602C524.45 123.268 525.512 124.294 525.512 126.22C525.512 128.398 523.694 130.252 520.616 130.252ZM530.095 130V118.894H526.351V116.662H536.539V118.894H532.759V130H530.095ZM538.699 130V116.662H546.871V118.894H541.363V121.972H546.043V124.204H541.363V127.768H547.069V130H538.699ZM549.773 130V116.662H554.147C557.099 116.662 559.367 117.706 559.367 120.856C559.367 123.898 557.081 125.266 554.219 125.266H552.437V130H549.773ZM552.437 123.16H554.039C555.875 123.16 556.757 122.386 556.757 120.856C556.757 119.308 555.785 118.786 553.949 118.786H552.437V123.16ZM567.135 130.252C566.199 130.252 565.497 129.496 565.497 128.524C565.497 127.534 566.199 126.796 567.135 126.796C568.089 126.796 568.791 127.534 568.791 128.524C568.791 129.496 568.089 130.252 567.135 130.252ZM579.46 130.252C576.724 130.252 574.942 127.858 574.942 123.448C574.942 119.056 576.724 116.77 579.46 116.77C582.196 116.77 583.96 119.074 583.96 123.448C583.96 127.858 582.196 130.252 579.46 130.252ZM579.46 128.182C580.612 128.182 581.458 127.066 581.458 123.448C581.458 119.848 580.612 118.84 579.46 118.84C578.308 118.84 577.444 119.848 577.444 123.448C577.444 127.066 578.308 128.182 579.46 128.182ZM586.226 130V127.858H589.088V119.776H586.676V118.138C588.008 117.886 588.926 117.544 589.772 117.022H591.734V127.858H594.236V130H586.226Z" fill="black"/>
<path d="M522.398 196.178H525.224V188.474H526.61V198.14H525.224V197.24H522.398V196.178ZM520.202 189.788C518.888 189.788 518.042 190.31 518.042 191.138C518.042 191.966 518.888 192.488 520.202 192.488C521.516 192.488 522.38 191.966 522.38 191.138C522.38 190.31 521.516 189.788 520.202 189.788ZM520.202 193.55C518.114 193.55 516.71 192.632 516.71 191.138C516.71 189.662 518.114 188.744 520.202 188.744C522.308 188.744 523.712 189.662 523.712 191.138C523.712 192.632 522.308 193.55 520.202 193.55ZM519.536 198.14V195.53C518.24 195.602 517.016 195.602 516.026 195.602L515.846 194.45C518.078 194.45 521.678 194.414 524.36 193.982L524.468 195.008C523.37 195.224 522.146 195.368 520.94 195.458V198.14H519.536ZM528.104 202.946V201.416H520.148V202.946H528.104ZM528.104 200.282V198.77H529.544V204.116H518.69V198.77H520.148V200.282H528.104ZM528.14 188.186H529.544V198.176H528.14V188.186ZM545.383 194.468V195.638H534.421V188.78H545.293V189.95H535.897V191.624H544.861V192.758H535.897V194.468H545.383ZM535.825 199.67V202.766H545.509V203.972H534.349V199.67H535.825ZM532.495 197.042H547.129V198.23H540.667V201.182H539.191V198.23H532.495V197.042ZM564.833 188.186H566.309V204.368H564.833V188.186ZM557.795 189.428C560.189 189.428 561.899 191.624 561.899 195.062C561.899 198.5 560.189 200.696 557.795 200.696C555.401 200.696 553.691 198.5 553.691 195.062C553.691 191.624 555.401 189.428 557.795 189.428ZM557.795 190.76C556.211 190.76 555.095 192.452 555.095 195.062C555.095 197.69 556.211 199.382 557.795 199.382C559.361 199.382 560.477 197.69 560.477 195.062C560.477 192.452 559.361 190.76 557.795 190.76ZM570.591 189.77H578.007V200.264H570.591V189.77ZM576.567 190.958H572.031V199.094H576.567V190.958ZM581.391 188.186H582.867V204.368H581.391V188.186ZM591.974 191.066V193.118C591.974 195.854 593.918 198.644 596.294 199.652L595.466 200.84C593.594 199.976 592.01 198.122 591.236 195.908C590.498 198.266 588.914 200.3 587.078 201.236L586.214 200.048C588.536 198.95 590.498 195.908 590.498 193.118V191.066H586.754V189.842H595.772V191.066H591.974ZM597.95 188.204H599.426V204.332H597.95V188.204ZM615.258 197.726H618.534V188.186H620.01V200.48H618.534V198.824H615.258V197.726ZM611.964 189.932C610.434 189.932 609.39 190.616 609.39 191.642C609.39 192.686 610.434 193.37 611.964 193.37C613.494 193.37 614.538 192.686 614.538 191.642C614.538 190.616 613.494 189.932 611.964 189.932ZM611.964 194.468C609.606 194.468 607.986 193.37 607.986 191.642C607.986 189.95 609.606 188.834 611.964 188.834C614.322 188.834 615.942 189.95 615.942 191.642C615.942 193.37 614.322 194.468 611.964 194.468ZM611.388 199.904V196.79C609.786 196.862 608.238 196.88 606.906 196.88L606.708 195.656C609.696 195.656 613.692 195.62 617.112 195.188L617.238 196.25C615.816 196.466 614.322 196.628 612.864 196.718V199.904H611.388ZM610.488 202.766H620.424V203.972H609.012V199.274H610.488V202.766ZM626.704 199.508V202.766H636.334V203.972H625.228V199.508H626.704ZM626.74 192.02V194.09H634.588V192.02H626.74ZM631.402 197.006H637.954V198.212H623.338V197.006H629.926V195.278H625.282V188.816H626.74V190.868H634.588V188.816H636.046V195.278H631.402V197.006ZM643.299 191.12V199.058C644.163 199.04 645.063 199.004 645.945 198.968V191.12H643.299ZM647.385 191.12V198.878C648.231 198.824 649.059 198.752 649.851 198.644L649.959 199.742C646.575 200.282 642.741 200.336 639.897 200.336L639.717 199.094C640.383 199.094 641.103 199.094 641.859 199.076V191.12H640.131V189.932H649.113V191.12H647.385ZM654.999 194.648V195.872H652.335V204.332H650.859V188.204H652.335V194.648H654.999ZM669.722 188.186V196.466H668.246V188.186H669.722ZM658.274 192.362C658.274 193.748 659.444 194.738 661.01 194.738C662.594 194.738 663.746 193.748 663.746 192.362C663.746 190.958 662.594 189.968 661.01 189.968C659.444 189.968 658.274 190.958 658.274 192.362ZM665.186 192.362C665.186 194.486 663.422 195.926 661.01 195.926C658.598 195.926 656.852 194.486 656.852 192.362C656.852 190.22 658.598 188.762 661.01 188.762C663.422 188.762 665.186 190.22 665.186 192.362ZM660.758 202.946H670.262V204.116H659.3V200.066H668.264V198.428H659.264V197.258H669.722V201.164H660.758V202.946ZM680.406 206.546C678.75 203.846 677.76 200.948 677.76 197.402C677.76 193.874 678.75 190.958 680.406 188.276L681.432 188.744C679.866 191.318 679.128 194.342 679.128 197.402C679.128 200.462 679.866 203.504 681.432 206.06L680.406 206.546ZM684.688 203.234C684.04 203.234 683.5 202.73 683.5 201.992C683.5 201.236 684.04 200.714 684.688 200.714C685.336 200.714 685.876 201.236 685.876 201.992C685.876 202.73 685.336 203.234 684.688 203.234ZM687.843 207.374C687.249 207.374 686.745 207.248 686.403 207.122L686.727 205.862C686.979 205.952 687.303 206.042 687.663 206.042C688.635 206.042 688.869 205.304 688.869 204.116V193.226H690.507V204.116C690.507 206.114 689.769 207.374 687.843 207.374ZM689.679 191.21C689.031 191.21 688.581 190.778 688.581 190.112C688.581 189.482 689.031 189.05 689.679 189.05C690.309 189.05 690.759 189.482 690.759 190.112C690.759 190.778 690.309 191.21 689.679 191.21ZM693.826 207.122V193.226H695.176L695.32 194.342H695.374C696.256 193.622 697.354 192.974 698.488 192.974C701.008 192.974 702.376 194.954 702.376 197.96C702.376 201.308 700.378 203.234 698.128 203.234C697.246 203.234 696.31 202.82 695.428 202.1L695.464 203.81V207.122H693.826ZM697.858 201.866C699.478 201.866 700.666 200.408 700.666 197.978C700.666 195.818 699.946 194.36 698.092 194.36C697.264 194.36 696.418 194.828 695.464 195.71V200.84C696.346 201.596 697.21 201.866 697.858 201.866ZM708.282 207.5C705.888 207.5 704.25 206.564 704.25 204.872C704.25 204.044 704.772 203.252 705.69 202.658V202.586C705.168 202.28 704.79 201.758 704.79 200.984C704.79 200.174 705.384 199.526 705.888 199.166V199.094C705.24 198.572 704.61 197.636 704.61 196.466C704.61 194.324 706.302 192.974 708.282 192.974C708.822 192.974 709.308 193.1 709.65 193.226H713.052V194.486H711.054C711.522 194.936 711.846 195.656 711.846 196.502C711.846 198.59 710.262 199.904 708.282 199.904C707.796 199.904 707.256 199.778 706.824 199.562C706.464 199.868 706.194 200.192 706.194 200.732C706.194 201.362 706.59 201.794 707.904 201.794H709.812C712.08 201.794 713.232 202.514 713.232 204.116C713.232 205.934 711.306 207.5 708.282 207.5ZM708.282 198.788C709.398 198.788 710.37 197.888 710.37 196.466C710.37 195.044 709.434 194.18 708.282 194.18C707.13 194.18 706.194 195.026 706.194 196.466C706.194 197.888 707.148 198.788 708.282 198.788ZM708.516 206.384C710.388 206.384 711.63 205.394 711.63 204.368C711.63 203.468 710.928 203.162 709.632 203.162H707.94C707.58 203.162 707.112 203.108 706.68 203C705.978 203.504 705.69 204.08 705.69 204.656C705.69 205.7 706.752 206.384 708.516 206.384ZM715.538 206.546L714.53 206.06C716.078 203.504 716.834 200.462 716.834 197.402C716.834 194.342 716.078 191.318 714.53 188.744L715.538 188.276C717.212 190.958 718.202 193.874 718.202 197.402C718.202 200.948 717.212 203.846 715.538 206.546ZM728.082 189.572C725.436 189.572 723.924 190.184 723.924 191.264C723.924 192.344 725.436 192.956 728.082 192.956C730.728 192.956 732.24 192.344 732.24 191.264C732.24 190.184 730.728 189.572 728.082 189.572ZM728.082 194.054C724.536 194.054 722.412 193.082 722.412 191.264C722.412 189.446 724.536 188.456 728.082 188.456C731.628 188.456 733.752 189.446 733.752 191.264C733.752 193.082 731.628 194.054 728.082 194.054ZM724.032 201.362V203H734.004V204.152H722.592V200.282H732.06V198.842H722.538V197.726H733.518V201.362H724.032ZM720.774 195.152H735.39V196.34H720.774V195.152ZM527.78 228.928V226.84H520.382V228.928H527.78ZM527.78 225.688V223.636H529.256V230.116H518.924V223.636H520.382V225.688H527.78ZM520.364 221.188C521.966 221.188 523.118 220.144 523.118 218.668C523.118 217.192 521.966 216.166 520.364 216.166C518.762 216.166 517.61 217.192 517.61 218.668C517.61 220.144 518.762 221.188 520.364 221.188ZM527.762 214.204H529.256V222.862H527.762V219.244H524.486C524.198 221.152 522.578 222.412 520.364 222.412C517.952 222.412 516.206 220.9 516.206 218.668C516.206 216.454 517.952 214.942 520.364 214.942C522.542 214.942 524.162 216.166 524.468 218.038H527.762V214.204ZM540.559 227.128H547.165V228.334H532.495V227.128H539.065V224.086H534.331V219.1H543.907V216.58H534.295V215.374H545.347V220.288H535.789V222.898H545.725V224.086H540.559V227.128ZM562.013 221.926V223.132H550.925V215.662H561.851V216.886H552.383V221.926H562.013ZM549.053 226.93H563.705V228.154H549.053V226.93ZM575.206 216.166V217.354H565.684V216.166H569.698V214.186H571.174V216.166H575.206ZM567.988 221.242C567.988 222.376 568.978 223.096 570.436 223.096C571.894 223.096 572.902 222.376 572.902 221.242C572.902 220.126 571.894 219.406 570.436 219.406C568.978 219.406 567.988 220.126 567.988 221.242ZM574.306 221.242C574.306 223.06 572.722 224.248 570.436 224.248C568.15 224.248 566.584 223.06 566.584 221.242C566.584 219.442 568.15 218.254 570.436 218.254C572.722 218.254 574.306 219.442 574.306 221.242ZM569.59 225.346V228.766H578.878V229.972H568.114V225.346H569.59ZM578.158 219.514H580.534V220.756H578.158V226.3H576.682V214.186H578.158V219.514ZM584.348 216.958V225.076C587.21 225.076 589.28 224.95 591.62 224.536L591.782 225.76C589.316 226.228 587.192 226.336 584.15 226.336H582.872V215.734H590.378V216.958H584.348ZM597.272 220.558V221.782H594.608V230.368H593.132V214.186H594.608V220.558H597.272ZM600.295 229.234C599.647 229.234 599.107 228.73 599.107 227.992C599.107 227.236 599.647 226.714 600.295 226.714C600.943 226.714 601.483 227.236 601.483 227.992C601.483 228.73 600.943 229.234 600.295 229.234Z" fill="black"/>
<path fill-rule="evenodd" clip-rule="evenodd" d="M553.861 29.5262C553.798 29.5266 553.735 29.5317 553.673 29.5414H519.709C516.925 29.5414 514.646 31.8195 514.646 34.6039V100.416C514.646 103.201 516.925 105.479 519.709 105.479H565.271C568.056 105.479 570.334 103.201 570.334 100.416V98.5332C570.334 98.4952 570.344 98.4572 570.344 98.4193V83.9532C570.344 83.8998 570.341 83.8466 570.334 83.7937V46.192C570.371 45.9637 570.344 45.7297 570.257 45.5155C570.17 45.3014 570.026 45.1151 569.84 44.977L554.891 30.0249C554.77 29.8667 554.614 29.7391 554.435 29.6524C554.256 29.5658 554.059 29.5226 553.861 29.5262ZM519.709 32.0727H552.615V42.1977C552.615 44.982 554.893 47.2602 557.678 47.2602H567.803V82.6875H517.178V34.6039C517.178 33.1788 518.284 32.0727 519.709 32.0727ZM555.146 33.8622L566.013 44.7289H557.678C556.253 44.7289 555.146 43.6227 555.146 42.1977V33.8622ZM528.578 44.7188C526.902 44.7241 525.295 45.3925 524.11 46.5781C522.924 47.7637 522.256 49.3702 522.25 51.0469C522.25 54.5274 525.098 57.375 528.578 57.375C532.059 57.375 534.907 54.5274 534.907 51.0469C534.907 47.5664 532.059 44.7188 528.578 44.7188ZM528.578 47.25C530.69 47.25 532.375 48.9358 532.375 51.0469C532.375 53.158 530.69 54.8438 528.578 54.8438C526.467 54.8438 524.782 53.158 524.782 51.0469C524.782 48.9358 526.467 47.25 528.578 47.25ZM547.439 53.5832C547.245 53.5904 547.055 53.6421 546.885 53.7343C546.714 53.8264 546.567 53.9566 546.454 54.1148L537.769 66.4977L534.066 61.3263C533.949 61.1622 533.795 61.0285 533.615 60.9362C533.436 60.844 533.238 60.7958 533.036 60.7958C532.834 60.7958 532.636 60.844 532.457 60.9362C532.277 61.0285 532.123 61.1622 532.006 61.3263L519.957 78.1541C519.822 78.3431 519.741 78.5658 519.724 78.7977C519.707 79.0296 519.754 79.2617 519.86 79.4686C519.966 79.6754 520.128 79.8491 520.326 79.9704C520.524 80.0917 520.752 80.156 520.985 80.1563H564.363C564.594 80.1565 564.822 80.0932 565.02 79.9731C565.218 79.8531 565.38 79.6809 565.487 79.4754C565.594 79.2699 565.642 79.039 565.627 78.8077C565.612 78.5765 565.534 78.3539 565.401 78.1642L548.532 54.1173C548.41 53.9436 548.245 53.8036 548.054 53.7102C547.863 53.6169 547.651 53.5732 547.439 53.5832ZM547.495 57.0536L561.923 77.625H533.064L547.497 57.0536H547.495ZM533.033 64.2372L536.225 68.6973L529.963 77.625H523.448L533.033 64.2347V64.2372ZM529.363 78.8122C529.362 78.8265 529.361 78.8409 529.361 78.8552L529.363 78.8122ZM529.933 79.9437C529.946 79.954 529.96 79.9642 529.973 79.974L529.933 79.9437ZM517.188 85.2188H567.803V98.5382C567.752 101.11 566.081 102.938 564.249 102.938H520.752C518.889 102.938 517.188 101.057 517.188 98.4193V85.2188ZM528.558 87.75C528.392 87.7527 528.227 87.7882 528.074 87.8546C527.921 87.9209 527.783 88.0168 527.667 88.1368C527.552 88.2567 527.461 88.3983 527.4 88.5535C527.339 88.7087 527.31 88.8743 527.313 89.041V96.6145C527.313 97.3384 526.771 97.8801 526.047 97.8801C525.88 97.8843 525.713 97.8544 525.558 97.7922C525.403 97.7301 525.261 97.637 525.143 97.5187C525.025 97.4003 524.932 97.2591 524.869 97.1037C524.807 96.9482 524.777 96.7818 524.782 96.6145C524.784 96.4453 524.752 96.2774 524.688 96.1207C524.624 95.9641 524.529 95.8218 524.409 95.7024C524.289 95.583 524.147 95.4888 523.99 95.4255C523.833 95.3622 523.665 95.3309 523.496 95.3337C523.161 95.339 522.842 95.4768 522.608 95.7168C522.375 95.9569 522.246 96.2797 522.25 96.6145C522.25 98.6952 523.967 100.411 526.047 100.411C528.006 100.411 529.619 98.885 529.804 96.9688C529.832 96.8598 529.846 96.7474 529.844 96.6347V89.0359C529.847 88.8663 529.815 88.6978 529.752 88.5406C529.688 88.3834 529.594 88.2405 529.474 88.1206C529.354 88.0006 529.211 87.906 529.054 87.8423C528.896 87.7787 528.728 87.7473 528.558 87.75ZM536.172 87.75C534.213 87.75 532.601 89.2764 532.416 91.1925L532.411 91.2178C532.386 91.3222 532.374 91.4294 532.375 91.5368V99.1407C532.375 99.4763 532.509 99.7982 532.746 100.036C532.983 100.273 533.305 100.406 533.641 100.406C533.977 100.406 534.299 100.273 534.536 100.036C534.773 99.7982 534.907 99.4763 534.907 99.1407V95.121C535.304 95.2653 535.727 95.359 536.172 95.359C538.255 95.359 539.969 93.6428 539.969 91.5621C539.969 89.4789 538.255 87.7652 536.172 87.7652V87.75ZM546.485 87.75C544.3 87.75 542.5 89.5548 542.5 91.7393V96.4272C542.5 98.6116 544.298 100.411 546.485 100.411H548.641C550.631 100.411 552.286 98.9128 552.565 96.9942C552.606 96.8666 552.626 96.7333 552.625 96.5993V94.1035C552.629 93.836 552.547 93.5743 552.393 93.356C552.238 93.1377 552.018 92.974 551.765 92.8885C551.726 92.8747 551.686 92.8629 551.646 92.853C551.604 92.8424 551.562 92.834 551.519 92.8277C551.477 92.8256 551.435 92.8256 551.393 92.8277C551.377 92.8274 551.361 92.8274 551.345 92.8277C551.343 92.8277 551.341 92.8277 551.339 92.8277H548.849C548.513 92.8277 548.191 92.9611 547.954 93.1984C547.716 93.4358 547.583 93.7577 547.583 94.0933C547.583 94.429 547.716 94.7509 547.954 94.9883C548.191 95.2256 548.513 95.359 548.849 95.359H550.094V96.4272C550.098 96.619 550.063 96.8096 549.991 96.9876C549.92 97.1656 549.813 97.3273 549.677 97.463C549.541 97.5986 549.38 97.7055 549.202 97.7772C549.024 97.8489 548.833 97.8839 548.641 97.8801H546.485C546.293 97.8842 546.102 97.8495 545.924 97.7779C545.746 97.7064 545.584 97.5995 545.448 97.4638C545.312 97.328 545.205 97.1662 545.134 96.988C545.062 96.8099 545.027 96.6191 545.032 96.4272V91.7393C545.032 90.9141 545.659 90.2863 546.485 90.2863H551.36C551.695 90.2863 552.017 90.153 552.255 89.9156C552.492 89.6783 552.625 89.3564 552.625 89.0207C552.625 88.6851 552.492 88.3631 552.255 88.1258C552.017 87.8884 551.695 87.7551 551.36 87.7551H546.485V87.75ZM536.172 90.261V90.2712C536.886 90.2712 537.438 90.823 537.438 91.5368C537.438 92.2506 536.886 92.8024 536.172 92.8024C536.005 92.8048 535.84 92.7737 535.685 92.7109C535.53 92.6482 535.39 92.555 535.272 92.437C535.154 92.319 535.061 92.1786 534.998 92.0239C534.935 91.8693 534.904 91.7036 534.907 91.5368V91.5115C534.906 91.3459 534.939 91.1819 535.003 91.029C535.066 90.8761 535.16 90.7375 535.277 90.6211C535.395 90.5047 535.535 90.4129 535.689 90.3511C535.842 90.2893 536.007 90.2587 536.172 90.261Z" fill="black"/>
<path d="M830.05 164.35V158.6H827.8V155.975H830.05V150.55H833.125V164.35H830.05ZM828.45 160.425L828.725 163C826.125 163.475 823.95 163.5 820.55 163.5H818.975V151.625H827.625V154.25H822.15V156.275H826.825V158.775H822.15V160.925C824.575 160.9 826.375 160.775 828.45 160.425ZM821.825 168V165.4H837.7V173.175H834.4V168H821.825ZM834.575 150.125H837.7V164.475H834.575V150.125ZM861.198 160.95L859.798 163.725C855.798 162.925 852.848 160.7 851.373 157.775C849.898 160.7 846.973 162.95 842.973 163.725L841.573 160.95C846.748 160.075 849.623 156.425 849.623 153.125V151.475H853.148V153.125C853.148 156.5 855.998 160.075 861.198 160.95ZM841.073 167.675H861.923V170.35H841.073V167.675ZM882.696 162V164.6H866.521V151.8H882.521V154.45H869.871V156.875H881.996V159.425H869.871V162H882.696ZM864.071 167.825H884.921V170.5H864.071V167.825ZM907.633 157.75V155.675H898.658V157.75H907.633ZM910.908 150.85V160.325H895.383V150.85H898.658V153.2H907.633V150.85H910.908ZM898.433 166.425V170.125H911.283V172.75H895.133V166.425H898.433ZM892.708 161.925H913.583V164.525H905.083V168.15H901.783V164.525H892.708V161.925ZM920.331 160.975V165.125C923.831 165.1 926.731 164.925 929.981 164.375L930.331 167.05C926.581 167.7 923.206 167.85 919.031 167.85H916.956V158.375H924.431V154.7H916.931V152.075H927.806V160.975H920.331ZM931.581 150.1H934.881V173.2H931.581V150.1Z" fill="black"/>
<path d="M822.616 127.252C820.834 127.252 819.052 126.55 817.756 125.308L819.286 123.472C820.24 124.354 821.5 124.948 822.67 124.948C824.056 124.948 824.794 124.354 824.794 123.418C824.794 122.428 823.984 122.122 822.796 121.618L821.014 120.862C819.664 120.304 818.314 119.224 818.314 117.28C818.314 115.102 820.222 113.428 822.922 113.428C824.47 113.428 826.018 114.04 827.098 115.138L825.748 116.812C824.902 116.11 824.02 115.714 822.922 115.714C821.752 115.714 821.014 116.236 821.014 117.118C821.014 118.072 821.95 118.414 823.084 118.864L824.83 119.602C826.45 120.268 827.512 121.294 827.512 123.22C827.512 125.398 825.694 127.252 822.616 127.252ZM832.095 127V115.894H828.351V113.662H838.539V115.894H834.759V127H832.095ZM840.699 127V113.662H848.871V115.894H843.363V118.972H848.043V121.204H843.363V124.768H849.069V127H840.699ZM851.773 127V113.662H856.147C859.099 113.662 861.367 114.706 861.367 117.856C861.367 120.898 859.081 122.266 856.219 122.266H854.437V127H851.773ZM854.437 120.16H856.039C857.875 120.16 858.757 119.386 858.757 117.856C858.757 116.308 857.785 115.786 855.949 115.786H854.437V120.16ZM869.135 127.252C868.199 127.252 867.497 126.496 867.497 125.524C867.497 124.534 868.199 123.796 869.135 123.796C870.089 123.796 870.791 124.534 870.791 125.524C870.791 126.496 870.089 127.252 869.135 127.252ZM881.46 127.252C878.724 127.252 876.942 124.858 876.942 120.448C876.942 116.056 878.724 113.77 881.46 113.77C884.196 113.77 885.96 116.074 885.96 120.448C885.96 124.858 884.196 127.252 881.46 127.252ZM881.46 125.182C882.612 125.182 883.458 124.066 883.458 120.448C883.458 116.848 882.612 115.84 881.46 115.84C880.308 115.84 879.444 116.848 879.444 120.448C879.444 124.066 880.308 125.182 881.46 125.182ZM887.524 127V125.47C890.998 122.158 893.284 119.89 893.284 117.964C893.284 116.65 892.564 115.858 891.286 115.858C890.314 115.858 889.522 116.506 888.838 117.244L887.398 115.804C888.622 114.49 889.81 113.77 891.628 113.77C894.148 113.77 895.822 115.372 895.822 117.82C895.822 120.088 893.734 122.428 891.358 124.912C892.024 124.84 892.906 124.768 893.536 124.768H896.452V127H887.524Z" fill="black"/>
<path d="M827.044 195.05V190.64H824.902V189.434H827.044V185.546H828.448V195.05H827.044ZM825.532 192.602L825.658 193.772C823.804 194.15 822.292 194.204 819.718 194.204H818.692V186.338H824.794V187.526H820.114V189.614H824.164V190.766H820.114V193.016C822.4 193.016 823.84 192.944 825.532 192.602ZM820.708 197.138V195.95H831.58V201.332H830.104V197.138H820.708ZM830.158 185.204H831.58V195.194H830.158V185.204ZM848.427 193.304L847.761 194.528C845.313 193.97 842.793 192.242 841.767 189.866C840.741 192.224 838.221 193.952 835.791 194.528L835.125 193.304C837.951 192.746 840.993 190.316 840.993 187.562V186.32H842.541V187.562C842.541 190.316 845.601 192.764 848.427 193.304ZM834.513 197.948H849.147V199.172H834.513V197.948ZM864.031 193.898V195.086H852.943V186.59H863.869V187.778H854.437V190.172H863.509V191.342H854.437V193.898H864.031ZM851.053 198.038H865.705V199.244H851.053V198.038ZM869.61 190.028C869.61 191.558 870.798 192.566 872.454 192.566C874.092 192.566 875.28 191.558 875.28 190.028C875.28 188.516 874.092 187.472 872.454 187.472C870.798 187.472 869.61 188.516 869.61 190.028ZM873.192 193.772V196.508C874.668 196.436 876.162 196.346 877.548 196.148L877.674 197.228C874.254 197.804 870.492 197.858 867.648 197.858L867.45 196.616C868.728 196.616 870.204 196.598 871.716 196.562V193.772C869.61 193.52 868.17 192.044 868.17 190.028C868.17 187.76 869.952 186.23 872.454 186.23C874.92 186.23 876.72 187.76 876.72 190.028C876.72 192.044 875.262 193.502 873.192 193.772ZM882.606 191.846V193.088H880.05V201.332H878.574V185.168H880.05V191.846H882.606ZM899.95 185.186H901.426V201.368H899.95V185.186ZM892.912 186.428C895.306 186.428 897.016 188.624 897.016 192.062C897.016 195.5 895.306 197.696 892.912 197.696C890.518 197.696 888.808 195.5 888.808 192.062C888.808 188.624 890.518 186.428 892.912 186.428ZM892.912 187.76C891.328 187.76 890.212 189.452 890.212 192.062C890.212 194.69 891.328 196.382 892.912 196.382C894.478 196.382 895.594 194.69 895.594 192.062C895.594 189.452 894.478 187.76 892.912 187.76ZM905.708 186.77H913.124V197.264H905.708V186.77ZM911.684 187.958H907.148V196.094H911.684V187.958ZM916.508 185.186H917.984V201.368H916.508V185.186ZM927.091 188.066V190.118C927.091 192.854 929.035 195.644 931.411 196.652L930.583 197.84C928.711 196.976 927.127 195.122 926.353 192.908C925.615 195.266 924.031 197.3 922.195 198.236L921.331 197.048C923.653 195.95 925.615 192.908 925.615 190.118V188.066H921.871V186.842H930.889V188.066H927.091ZM933.067 185.204H934.543V201.332H933.067V185.204ZM938.754 186.914H946.134C946.134 191.504 944.028 195.662 938.808 198.272L937.998 197.12C942.12 195.05 944.334 191.954 944.676 188.138H938.754V186.914ZM952.902 191.738V192.962H950.31V201.332H948.834V185.186H950.31V191.738H952.902ZM968.05 186.842V188.03H958.528V186.842H962.542V185.024H964.018V186.842H968.05ZM960.832 191.612C960.832 192.674 961.804 193.322 963.28 193.322C964.756 193.322 965.746 192.674 965.746 191.612C965.746 190.568 964.756 189.902 963.28 189.902C961.804 189.902 960.832 190.568 960.832 191.612ZM967.15 191.612C967.15 193.34 965.584 194.438 963.28 194.438C960.976 194.438 959.428 193.34 959.428 191.612C959.428 189.902 960.976 188.804 963.28 188.804C965.584 188.804 967.15 189.902 967.15 191.612ZM969.544 199.928V198.146H962.308V199.928H969.544ZM969.544 196.994V195.284H971.002V201.116H960.85V195.284H962.308V196.994H969.544ZM973.396 189.29V190.532H971.002V194.564H969.526V185.186H971.002V189.29H973.396ZM980.612 189.164V190.424C980.612 193.07 982.376 195.716 984.752 196.814L983.906 197.948C982.088 197.102 980.612 195.338 979.892 193.214C979.208 195.446 977.714 197.3 975.878 198.2L975.05 197.084C977.426 195.95 979.154 193.196 979.154 190.424V189.164H975.5V187.976H979.136V185.474H980.612V187.976H984.194V189.164H980.612ZM986.84 185.168H988.316V201.35H986.84V194.87H983.564V193.646H986.84V191.504H983.564V190.298H986.84V185.168ZM997.171 188.048V189.92C997.171 192.476 999.061 195.482 1001.35 196.688L1000.48 197.822C998.737 196.886 997.207 194.906 996.451 192.692C995.767 195.122 994.201 197.228 992.437 198.2L991.465 197.084C993.769 195.914 995.695 192.8 995.695 189.92V188.048H992.059V186.842H1000.79V188.048H997.171ZM1003.42 185.204H1004.89V201.314H1003.42V194.384H1000.18V193.16H1003.42V190.946H1000.18V189.722H1003.42V185.204ZM1021.4 185.204V194.42H1019.92V185.204H1021.4ZM1012.72 187.364C1011.12 187.364 1009.97 188.426 1009.97 189.902C1009.97 191.396 1011.12 192.44 1012.72 192.44C1014.32 192.44 1015.51 191.396 1015.51 189.902C1015.51 188.426 1014.32 187.364 1012.72 187.364ZM1012.72 193.664C1010.29 193.664 1008.53 192.134 1008.53 189.902C1008.53 187.67 1010.29 186.14 1012.72 186.14C1015.17 186.14 1016.95 187.67 1016.95 189.902C1016.95 192.134 1015.17 193.664 1012.72 193.664ZM1019.6 195.122V195.986C1019.6 197.66 1020.79 199.316 1022.84 200L1022.1 201.116C1020.52 200.54 1019.4 199.424 1018.86 198.074C1018.36 199.388 1017.37 200.612 1015.87 201.26C1014.32 200.648 1013.35 199.478 1012.87 198.128C1012.29 199.424 1011.19 200.54 1009.68 201.116L1008.94 200C1010.98 199.28 1012.18 197.534 1012.18 195.986V195.122H1013.6V195.986C1013.6 197.408 1014.34 198.938 1015.84 199.82C1017.38 198.866 1018.16 197.246 1018.16 195.986V195.122H1019.6ZM1037.65 190.046V191.252H1026.67V185.78H1028.15V190.046H1037.65ZM1028.04 196.22V199.73H1037.74V200.936H1026.56V196.22H1028.04ZM1024.69 193.412H1039.32V194.6H1024.69V193.412ZM826.414 220.726H829.69V211.186H831.166V223.48H829.69V221.824H826.414V220.726ZM823.12 212.932C821.59 212.932 820.546 213.616 820.546 214.642C820.546 215.686 821.59 216.37 823.12 216.37C824.65 216.37 825.694 215.686 825.694 214.642C825.694 213.616 824.65 212.932 823.12 212.932ZM823.12 217.468C820.762 217.468 819.142 216.37 819.142 214.642C819.142 212.95 820.762 211.834 823.12 211.834C825.478 211.834 827.098 212.95 827.098 214.642C827.098 216.37 825.478 217.468 823.12 217.468ZM822.544 222.904V219.79C820.942 219.862 819.394 219.88 818.062 219.88L817.864 218.656C820.852 218.656 824.848 218.62 828.268 218.188L828.394 219.25C826.972 219.466 825.478 219.628 824.02 219.718V222.904H822.544ZM821.644 225.766H831.58V226.972H820.168V222.274H821.644V225.766ZM837.861 222.508V225.766H847.491V226.972H836.385V222.508H837.861ZM837.897 215.02V217.09H845.745V215.02H837.897ZM842.559 220.006H849.111V221.212H834.495V220.006H841.083V218.278H836.439V211.816H837.897V213.868H845.745V211.816H847.203V218.278H842.559V220.006ZM856.309 212.374C858.829 212.374 860.629 213.904 860.629 216.172C860.629 218.422 858.829 219.97 856.309 219.97C853.807 219.97 851.989 218.422 851.989 216.172C851.989 213.904 853.807 212.374 856.309 212.374ZM856.309 213.634C854.653 213.634 853.429 214.66 853.429 216.172C853.429 217.666 854.653 218.71 856.309 218.71C857.983 218.71 859.189 217.666 859.189 216.172C859.189 214.66 857.983 213.634 856.309 213.634ZM862.753 211.186H864.229V227.368H862.753V211.186ZM851.359 223.822L851.179 222.58C854.113 222.58 858.163 222.562 861.691 222.022L861.817 223.12C858.181 223.786 854.275 223.822 851.359 223.822ZM883.391 211.186H884.867V227.368H883.391V211.186ZM876.353 212.428C878.747 212.428 880.457 214.624 880.457 218.062C880.457 221.5 878.747 223.696 876.353 223.696C873.959 223.696 872.249 221.5 872.249 218.062C872.249 214.624 873.959 212.428 876.353 212.428ZM876.353 213.76C874.769 213.76 873.653 215.452 873.653 218.062C873.653 220.69 874.769 222.382 876.353 222.382C877.919 222.382 879.035 220.69 879.035 218.062C879.035 215.452 877.919 213.76 876.353 213.76ZM889.15 212.77H896.566V223.264H889.15V212.77ZM895.126 213.958H890.59V222.094H895.126V213.958ZM899.95 211.186H901.426V227.368H899.95V211.186ZM910.532 214.066V216.118C910.532 218.854 912.476 221.644 914.852 222.652L914.024 223.84C912.152 222.976 910.568 221.122 909.794 218.908C909.056 221.266 907.472 223.3 905.636 224.236L904.772 223.048C907.094 221.95 909.056 218.908 909.056 216.118V214.066H905.312V212.842H914.33V214.066H910.532ZM916.508 211.204H917.984V227.332H916.508V211.204ZM924.985 222.418C926.245 222.418 927.073 220.78 927.073 218.134C927.073 215.542 926.245 213.904 924.985 213.904C923.689 213.904 922.879 215.542 922.879 218.134C922.879 220.78 923.689 222.418 924.985 222.418ZM930.439 217.468V211.546H931.843V226.54H930.439V218.674H928.405C928.279 221.842 926.965 223.786 924.985 223.786C922.879 223.786 921.529 221.626 921.529 218.134C921.529 214.696 922.879 212.536 924.985 212.536C926.929 212.536 928.225 214.426 928.405 217.468H930.439ZM933.643 211.186H935.047V227.332H933.643V211.186ZM943.542 212.572V215.47C943.542 218.404 945.378 221.338 947.718 222.454L946.854 223.624C945.018 222.706 943.542 220.78 942.804 218.512C942.102 220.906 940.608 222.94 938.79 223.912L937.89 222.742C940.23 221.572 942.066 218.458 942.066 215.47V212.572H943.542ZM949.716 211.186H951.192V227.35H949.716V217.864H945.972V216.658H949.716V211.186ZM821.086 244.62L820.438 246.636H824.434L823.804 244.62C823.318 243.126 822.904 241.686 822.472 240.156H822.4C821.986 241.704 821.554 243.126 821.086 244.62ZM817.054 252L821.536 238.788H823.39L827.872 252H826.108L824.848 247.968H820.024L818.746 252H817.054ZM829.734 252V238.788H831.408V252H829.734ZM842.207 250.128H848.813V251.334H834.143V250.128H840.713V247.086H835.979V242.1H845.555V239.58H835.943V238.374H846.995V243.288H837.437V245.898H847.373V247.086H842.207V250.128ZM863.835 247.05V242.64H861.693V241.434H863.835V237.546H865.239V247.05H863.835ZM862.323 244.602L862.449 245.772C860.595 246.15 859.083 246.204 856.509 246.204H855.483V238.338H861.585V239.526H856.905V241.614H860.955V242.766H856.905V245.016C859.191 245.016 860.631 244.944 862.323 244.602ZM857.499 249.138V247.95H868.371V253.332H866.895V249.138H857.499ZM866.949 237.204H868.371V247.194H866.949V237.204ZM885.218 245.304L884.552 246.528C882.104 245.97 879.584 244.242 878.558 241.866C877.532 244.224 875.012 245.952 872.582 246.528L871.916 245.304C874.742 244.746 877.784 242.316 877.784 239.562V238.32H879.332V239.562C879.332 242.316 882.392 244.764 885.218 245.304ZM871.304 249.948H885.938V251.172H871.304V249.948ZM900.822 245.898V247.086H889.734V238.59H900.66V239.778H891.228V242.172H900.3V243.342H891.228V245.898H900.822ZM887.844 250.038H902.496V251.244H887.844V250.038ZM915.725 240.012V238.698H906.257V237.654H917.183V241.02H907.751V242.406H917.471V243.468H906.293V240.012H915.725ZM907.661 250.56V252.054H917.741V253.116H906.203V249.534H915.779V248.184H906.167V247.122H917.237V250.56H907.661ZM904.421 244.692H919.055V245.808H904.421V244.692ZM936.237 242.982V240.894H928.389V242.982H936.237ZM937.695 237.69V244.152H926.931V237.69H928.389V239.76H936.237V237.69H937.695ZM928.299 248.58V251.766H938.001V252.972H926.841V248.58H928.299ZM924.969 245.718H939.639V246.906H933.159V250.038H931.683V246.906H924.969V245.718ZM943.975 244.44V248.22C946.621 248.22 948.997 248.094 951.823 247.644L951.967 248.85C949.051 249.336 946.603 249.444 943.831 249.444H942.499V243.252H948.439V239.886H942.445V238.68H949.933V244.44H943.975ZM953.335 237.168H954.811V253.35H953.335V237.168ZM958.518 255.42L958.122 254.448C959.256 253.944 959.922 253.062 959.922 252C959.85 252.018 959.796 252.018 959.724 252.018C959.094 252.018 958.518 251.622 958.518 250.866C958.518 250.164 959.094 249.714 959.76 249.714C960.624 249.714 961.146 250.452 961.146 251.658C961.146 253.386 960.138 254.736 958.518 255.42ZM968.903 241.722C968.903 243.198 970.055 244.242 971.657 244.242C973.277 244.242 974.429 243.198 974.429 241.722C974.429 240.246 973.277 239.238 971.657 239.238C970.055 239.238 968.903 240.246 968.903 241.722ZM975.869 241.722C975.869 243.954 974.105 245.466 971.657 245.466C969.227 245.466 967.481 243.954 967.481 241.722C967.481 239.526 969.227 238.014 971.657 238.014C974.105 238.014 975.869 239.526 975.869 241.722ZM978.227 251.91V249.858H970.973V251.91H978.227ZM978.227 248.706V246.69H979.685V253.116H969.515V246.69H970.973V248.706H978.227ZM982.079 240.876V242.1H979.685V245.934H978.209V237.204H979.685V240.876H982.079ZM985.048 244.404L984.598 243.288C987.64 242.982 990.088 241.74 990.214 239.94H985.228V238.77H990.286V237.096H991.762V238.77H996.82V239.94H991.816C991.942 241.74 994.39 242.982 997.45 243.288L996.982 244.404C994.336 244.134 991.996 243.162 991.024 241.542C990.052 243.162 987.694 244.134 985.048 244.404ZM998.314 246.492H991.762V248.346H996.514V253.278H995.038V249.516H985.336V248.346H990.286V246.492H983.716V245.304H998.314V246.492ZM1004.27 248.364C1005.51 248.364 1006.41 247.338 1006.41 245.898C1006.41 244.494 1005.51 243.468 1004.27 243.468C1003.01 243.468 1002.13 244.494 1002.13 245.898C1002.13 247.338 1003.01 248.364 1004.27 248.364ZM1004.27 242.226C1006.27 242.226 1007.73 243.738 1007.73 245.898C1007.73 248.094 1006.27 249.588 1004.27 249.588C1002.27 249.588 1000.81 248.094 1000.81 245.898C1000.81 243.738 1002.27 242.226 1004.27 242.226ZM1004.99 237.654V239.94H1008.27V241.146H1000.26V239.94H1003.53V237.654H1004.99ZM1012.53 237.168H1013.95V253.314H1012.53V245.196H1010.46V252.54H1009.08V237.546H1010.46V243.99H1012.53V237.168ZM821.338 266.12V274.058C822.202 274.04 823.102 274.004 823.984 273.968V266.12H821.338ZM825.424 266.12V273.878C826.27 273.824 827.098 273.752 827.89 273.644L827.998 274.742C824.614 275.282 820.78 275.336 817.936 275.336L817.756 274.094C818.422 274.094 819.142 274.094 819.898 274.076V266.12H818.17V264.932H827.152V266.12H825.424ZM833.038 269.648V270.872H830.374V279.332H828.898V263.204H830.374V269.648H833.038ZM847.761 263.186V271.466H846.285V263.186H847.761ZM836.313 267.362C836.313 268.748 837.483 269.738 839.049 269.738C840.633 269.738 841.785 268.748 841.785 267.362C841.785 265.958 840.633 264.968 839.049 264.968C837.483 264.968 836.313 265.958 836.313 267.362ZM843.225 267.362C843.225 269.486 841.461 270.926 839.049 270.926C836.637 270.926 834.891 269.486 834.891 267.362C834.891 265.22 836.637 263.762 839.049 263.762C841.461 263.762 843.225 265.22 843.225 267.362ZM838.797 277.946H848.301V279.116H837.339V275.066H846.303V273.428H837.303V272.258H847.761V276.164H838.797V277.946ZM856.309 264.374C858.829 264.374 860.629 265.904 860.629 268.172C860.629 270.422 858.829 271.97 856.309 271.97C853.807 271.97 851.989 270.422 851.989 268.172C851.989 265.904 853.807 264.374 856.309 264.374ZM856.309 265.634C854.653 265.634 853.429 266.66 853.429 268.172C853.429 269.666 854.653 270.71 856.309 270.71C857.983 270.71 859.189 269.666 859.189 268.172C859.189 266.66 857.983 265.634 856.309 265.634ZM862.753 263.186H864.229V279.368H862.753V263.186ZM851.359 275.822L851.179 274.58C854.113 274.58 858.163 274.562 861.691 274.022L861.817 275.12C858.181 275.786 854.275 275.822 851.359 275.822ZM878.945 278.18C881.465 278.18 882.977 277.55 882.977 276.452C882.977 275.354 881.465 274.724 878.945 274.724C876.407 274.724 874.913 275.354 874.913 276.452C874.913 277.55 876.407 278.18 878.945 278.18ZM878.945 273.572C882.419 273.572 884.471 274.598 884.471 276.452C884.471 278.306 882.419 279.314 878.945 279.314C875.489 279.314 873.419 278.306 873.419 276.452C873.419 274.598 875.489 273.572 878.945 273.572ZM876.713 269.288V271.178H881.195V269.288C880.529 269.396 879.773 269.468 878.945 269.468C878.135 269.468 877.379 269.396 876.713 269.288ZM874.787 266.48C874.787 267.632 876.371 268.334 878.945 268.334C881.519 268.334 883.103 267.632 883.103 266.48C883.103 265.31 881.519 264.626 878.945 264.626C876.371 264.626 874.787 265.31 874.787 266.48ZM882.653 271.178H886.253V272.366H871.637V271.178H875.255V268.91C873.977 268.388 873.275 267.578 873.275 266.48C873.275 264.59 875.453 263.474 878.945 263.474C882.455 263.474 884.615 264.59 884.615 266.48C884.615 267.56 883.895 268.388 882.653 268.892V271.178ZM897.718 270.278L897.862 271.484C895.306 271.916 893.182 272.006 890.194 272.006H888.916V267.434H894.694V265.4H888.88V264.194H896.152V268.568H890.374V270.8C893.2 270.8 895.27 270.71 897.718 270.278ZM895.594 278.18C898.006 278.18 899.446 277.514 899.446 276.38C899.446 275.246 898.006 274.58 895.594 274.58C893.182 274.58 891.724 275.246 891.724 276.38C891.724 277.514 893.182 278.18 895.594 278.18ZM895.594 273.428C898.87 273.428 900.904 274.508 900.904 276.38C900.904 278.252 898.87 279.314 895.594 279.314C892.3 279.314 890.284 278.252 890.284 276.38C890.284 274.508 892.3 273.428 895.594 273.428ZM903.136 266.93H900.742V269.108H903.136V270.332H900.742V272.96H899.266V263.204H900.742V265.706H903.136V266.93ZM909.5 264.212H916.952C916.952 268.316 914.108 271.214 909.356 272.51L908.78 271.34C912.722 270.278 915.08 268.154 915.368 265.418H909.5V264.212ZM912.614 274.292V277.91H919.868V274.292H912.614ZM911.156 279.098V273.104H921.326V279.098H911.156ZM923.72 267.128V268.352H921.326V272.348H919.85V263.168H921.326V267.128H923.72ZM939.288 271.07L938.658 272.294C936.192 271.772 933.654 270.098 932.61 267.794C931.566 270.098 929.046 271.772 926.562 272.294L925.95 271.07C928.776 270.566 931.836 268.19 931.836 265.508V264.266H933.384V265.508C933.384 268.19 936.462 270.566 939.288 271.07ZM933.348 276.02H940.008V277.226H925.356V276.02H931.872V272.096H933.348V276.02ZM943.463 278.234C942.815 278.234 942.275 277.73 942.275 276.992C942.275 276.236 942.815 275.714 943.463 275.714C944.111 275.714 944.651 276.236 944.651 276.992C944.651 277.73 944.111 278.234 943.463 278.234Z" fill="black"/>
<path fill-rule="evenodd" clip-rule="evenodd" d="M855.855 29.5262C855.791 29.5264 855.727 29.5314 855.663 29.5414H821.714C818.929 29.5414 816.651 31.8195 816.651 34.6039V100.416C816.651 103.201 818.929 105.479 821.714 105.479H867.276C870.061 105.479 872.339 103.201 872.339 100.416V98.4774L872.344 98.4192V83.9531C872.344 83.9109 872.343 83.8686 872.339 83.8266V46.1312C872.363 45.915 872.332 45.6962 872.247 45.4957C872.162 45.2953 872.028 45.1201 871.855 44.9871L856.853 29.9869C856.801 29.9269 856.745 29.8718 856.683 29.8224C856.679 29.8173 856.675 29.8122 856.67 29.8072C856.439 29.6204 856.152 29.521 855.855 29.5262ZM821.714 32.0726H854.61V42.1976C854.61 44.982 856.888 47.2601 859.672 47.2601H869.808V82.6875H819.183V34.6039C819.183 33.1788 820.289 32.0726 821.714 32.0726ZM857.141 33.8521L868.018 44.7289H859.672C858.25 44.7289 857.141 43.6227 857.141 42.1976V33.8521ZM843.229 42.1875V44.7188H840.698V47.25H843.229V49.7813H840.698V52.3125H843.229V54.8438H840.698V57.375H843.229V59.9063H840.698V62.4375H843.229V64.9688H840.698V67.5H843.229V70.0313H841.964C841.628 70.0313 841.306 70.1646 841.069 70.402C840.832 70.6393 840.698 70.9612 840.698 71.2969V73.7395C840.697 73.7691 840.697 73.7986 840.698 73.8281V76.3594C840.698 78.4401 842.414 80.1563 844.495 80.1563C846.576 80.1563 848.292 78.4401 848.292 76.3594V75.1773C848.293 75.1495 848.293 75.1216 848.292 75.0938V71.2969C848.292 70.9612 848.159 70.6393 847.921 70.402C847.684 70.1646 847.362 70.0313 847.026 70.0313H845.761V67.5H848.292V64.9688H845.761V62.4375H848.292V59.9063H845.761V57.375H848.292V54.8438H845.761V52.3125H848.292V49.7813H845.761V47.25H848.292V44.7188H845.761V42.1875H843.229ZM843.229 72.5625H845.761V76.3594C845.761 77.0833 845.219 77.625 844.495 77.625C844.328 77.6292 844.161 77.5993 844.006 77.5372C843.85 77.475 843.709 77.382 843.591 77.2636C843.473 77.1452 843.379 77.004 843.317 76.8486C843.255 76.6932 843.225 76.5267 843.229 76.3594V75.1773C843.23 75.1495 843.23 75.1216 843.229 75.0938V72.5625ZM819.188 85.2188H869.808V98.4774C869.782 101.085 868.096 102.938 866.249 102.938H822.752C820.889 102.938 819.188 101.057 819.188 98.4192V85.2188ZM833.14 87.75V87.7854C833.097 87.7832 833.054 87.7832 833.011 87.7854H825.531C825.195 87.7854 824.873 87.9188 824.636 88.1561C824.399 88.3935 824.265 88.7154 824.265 89.0511C824.265 89.3867 824.399 89.7087 824.636 89.946C824.873 90.1834 825.195 90.3167 825.531 90.3167H830.573L824.592 98.3003C824.432 98.4706 824.323 98.6818 824.276 98.9105C824.229 99.1391 824.246 99.3764 824.325 99.5959C824.405 99.8154 824.543 100.009 824.726 100.154C824.908 100.3 825.127 100.393 825.359 100.421C825.367 100.422 825.376 100.422 825.384 100.421C825.433 100.424 825.482 100.424 825.531 100.421H833.094C833.43 100.421 833.752 100.288 833.989 100.051C834.227 99.8134 834.36 99.4915 834.36 99.1558C834.36 98.8202 834.227 98.4982 833.989 98.2609C833.752 98.0235 833.43 97.8902 833.094 97.8902H828.052L834.033 89.9016C834.164 89.7624 834.262 89.5954 834.319 89.4131C834.376 89.2308 834.391 89.038 834.363 88.849C834.335 88.66 834.265 88.4798 834.157 88.3219C834.05 88.164 833.908 88.0325 833.742 87.9373C833.717 87.9238 833.692 87.9112 833.666 87.8994C833.654 87.8907 833.641 87.8822 833.628 87.874C833.603 87.8631 833.578 87.853 833.553 87.8437C833.538 87.8349 833.524 87.8265 833.509 87.8184C833.39 87.7773 833.266 87.7543 833.14 87.75ZM838.147 87.7601C837.812 87.7655 837.493 87.9032 837.26 88.1433C837.026 88.3834 836.897 88.7061 836.901 89.0409V99.171C836.901 99.5067 837.035 99.8286 837.272 100.066C837.509 100.303 837.831 100.437 838.167 100.437C838.503 100.437 838.825 100.303 839.062 100.066C839.299 99.8286 839.433 99.5067 839.433 99.171V89.0409C839.435 88.8717 839.403 88.7039 839.339 88.5472C839.275 88.3905 839.18 88.2483 839.06 88.1289C838.94 88.0095 838.798 87.9153 838.641 87.852C838.484 87.7886 838.316 87.7574 838.147 87.7601ZM845.761 87.8133C843.802 87.8133 842.189 89.3396 842.004 91.2558L841.999 91.2811C841.974 91.3847 841.962 91.491 841.964 91.5975V99.1989C841.964 99.5345 842.097 99.8564 842.335 100.094C842.572 100.331 842.894 100.464 843.229 100.464C843.565 100.464 843.887 100.331 844.124 100.094C844.362 99.8564 844.495 99.5345 844.495 99.1989V95.1818C844.893 95.326 845.315 95.4172 845.761 95.4172C847.844 95.4172 849.558 93.7035 849.558 91.6203C849.558 89.5396 847.844 87.8234 845.761 87.8234V87.8133ZM845.761 90.3319V90.3445C846.475 90.3445 847.026 90.8964 847.026 91.6102C847.026 92.324 846.475 92.8758 845.761 92.8758C845.594 92.8782 845.428 92.8471 845.274 92.7843C845.119 92.7216 844.978 92.6284 844.86 92.5104C844.742 92.3924 844.649 92.2519 844.587 92.0973C844.524 91.9427 844.493 91.777 844.495 91.6102V91.5823C844.495 91.4167 844.527 91.2527 844.591 91.0999C844.655 90.947 844.748 90.8083 844.866 90.692C844.984 90.5756 845.124 90.4838 845.277 90.422C845.431 90.3602 845.595 90.3295 845.761 90.3319Z" fill="black"/>
<path d="M1124.25 154.925V164.925C1127.53 164.875 1130.25 164.7 1133.23 164.2L1133.55 166.925C1130.08 167.55 1126.93 167.675 1122.93 167.675H1120.98V152.25H1131.7V154.925H1124.25ZM1141.45 158.625V161.35H1138.1V173.2H1134.8V150.125H1138.1V158.625H1141.45ZM1163.92 161.675H1155.12V164.925H1161.52V173.15H1158.2V167.525H1145.17V164.925H1151.82V161.675H1143.07V159.05H1157.72C1158.15 156.95 1158.22 155.275 1158.22 153.75H1145.65V151.1H1161.47V152.95C1161.47 154.675 1161.47 156.6 1161.02 159.05H1163.92V161.675ZM1172.37 165.175C1174.07 165.175 1175.2 163.35 1175.2 159.925C1175.2 156.525 1174.07 154.7 1172.37 154.7C1170.7 154.7 1169.57 156.525 1169.57 159.925C1169.57 163.35 1170.7 165.175 1172.37 165.175ZM1182.1 150.1H1185.4V173.2H1182.1V161.075H1178.27C1177.92 165.475 1175.57 168.175 1172.37 168.175C1168.95 168.175 1166.42 165 1166.42 159.925C1166.42 154.875 1168.95 151.725 1172.37 151.725C1175.47 151.725 1177.8 154.25 1178.25 158.4H1182.1V150.1ZM1203.36 160.925V157.675H1198.98V160.925H1203.36ZM1206.58 158.9V163.55H1195.71V151.65H1198.98V155.15H1203.36V151.675H1206.58V156.25H1210.68V150.15H1213.98V167.125H1210.68V158.9H1206.58ZM1202.08 170.125H1214.48V172.75H1198.78V165.475H1202.08V170.125ZM1221.31 167.4V164.8H1236.98V173.175H1233.68V167.4H1221.31ZM1230.03 158.225H1233.68V155.85H1230.03C1230.11 156.225 1230.16 156.6 1230.16 157.025C1230.16 157.425 1230.11 157.825 1230.03 158.225ZM1224.08 159.925C1225.78 159.925 1227.03 158.85 1227.03 157.025C1227.03 155.225 1225.78 154.15 1224.08 154.15C1222.41 154.15 1221.16 155.225 1221.16 157.025C1221.16 158.85 1222.41 159.925 1224.08 159.925ZM1233.68 150.125H1236.98V163.75H1233.68V160.85H1228.68C1227.58 162.025 1225.93 162.75 1224.08 162.75C1220.68 162.75 1218.03 160.35 1218.03 157.025C1218.03 153.725 1220.68 151.325 1224.08 151.325C1225.96 151.325 1227.61 152.05 1228.71 153.225H1233.68V150.125ZM1265.49 150.15V163.2H1262.19V150.15H1265.49ZM1255.49 158.675V154.1H1250.79V158.675H1255.49ZM1258.72 151.5V161.25H1247.54V151.5H1258.72ZM1265.87 166.875H1259.52C1259.87 168.4 1262.17 170.25 1266.72 170.625L1265.67 173.075C1261.84 172.75 1259.17 171.375 1257.77 169.625C1256.37 171.4 1253.67 172.75 1249.79 173.075L1248.77 170.625C1253.37 170.225 1255.67 168.475 1256.02 166.875H1249.64V164.425H1256.09V162.55H1259.44V164.425H1265.87V166.875ZM1287.03 164.35V158.6H1284.78V155.975H1287.03V150.55H1290.11V164.35H1287.03ZM1285.43 160.425L1285.71 163C1283.11 163.475 1280.93 163.5 1277.53 163.5H1275.96V151.625H1284.61V154.25H1279.13V156.275H1283.81V158.775H1279.13V160.925C1281.56 160.9 1283.36 160.775 1285.43 160.425ZM1278.81 168V165.4H1294.68V173.175H1291.38V168H1278.81ZM1291.56 150.125H1294.68V164.475H1291.56V150.125ZM1318.18 160.95L1316.78 163.725C1312.78 162.925 1309.83 160.7 1308.35 157.775C1306.88 160.7 1303.95 162.95 1299.95 163.725L1298.55 160.95C1303.73 160.075 1306.6 156.425 1306.6 153.125V151.475H1310.13V153.125C1310.13 156.5 1312.98 160.075 1318.18 160.95ZM1298.05 167.675H1318.9V170.35H1298.05V167.675ZM1339.68 162V164.6H1323.5V151.8H1339.5V154.45H1326.85V156.875H1338.98V159.425H1326.85V162H1339.68ZM1321.05 167.825H1341.9V170.5H1321.05V167.825ZM1365.66 167.1V161.45H1362.86V158.8H1365.66V156.8H1362.86V154.15H1365.66V150.125H1368.96V167.1H1365.66ZM1355.29 154.4V161.575C1355.99 161.575 1356.71 161.55 1357.44 161.5V154.4H1355.29ZM1362.71 161.125L1362.91 163.525C1358.64 164.25 1353.69 164.325 1350.06 164.325L1349.71 161.65C1350.46 161.65 1351.26 161.65 1352.11 161.65V154.4H1350.29V151.775H1362.44V154.4H1360.61V161.325C1361.34 161.275 1362.04 161.2 1362.71 161.125ZM1357.09 170.125H1369.49V172.75H1353.79V165.825H1357.09V170.125ZM1387.06 159.8L1385.46 162.35C1382.86 161.6 1381.09 160.025 1380.04 158.05C1378.99 160.2 1377.14 161.925 1374.44 162.75L1372.79 160.15C1376.44 159.075 1378.11 156.575 1378.29 153.975H1373.69V151.375H1386.21V153.975H1381.69C1381.86 156.4 1383.56 158.775 1387.06 159.8ZM1388.56 170.25V168.225H1379.81V170.25H1388.56ZM1388.56 165.7V163.6H1391.84V172.875H1376.54V163.6H1379.81V165.7H1388.56ZM1388.51 150.15H1391.84V162.625H1388.51V150.15Z" fill="black"/>
<path d="M1124.62 127.252C1122.83 127.252 1121.05 126.55 1119.76 125.308L1121.29 123.472C1122.24 124.354 1123.5 124.948 1124.67 124.948C1126.06 124.948 1126.79 124.354 1126.79 123.418C1126.79 122.428 1125.98 122.122 1124.8 121.618L1123.01 120.862C1121.66 120.304 1120.31 119.224 1120.31 117.28C1120.31 115.102 1122.22 113.428 1124.92 113.428C1126.47 113.428 1128.02 114.04 1129.1 115.138L1127.75 116.812C1126.9 116.11 1126.02 115.714 1124.92 115.714C1123.75 115.714 1123.01 116.236 1123.01 117.118C1123.01 118.072 1123.95 118.414 1125.08 118.864L1126.83 119.602C1128.45 120.268 1129.51 121.294 1129.51 123.22C1129.51 125.398 1127.69 127.252 1124.62 127.252ZM1134.09 127V115.894H1130.35V113.662H1140.54V115.894H1136.76V127H1134.09ZM1142.7 127V113.662H1150.87V115.894H1145.36V118.972H1150.04V121.204H1145.36V124.768H1151.07V127H1142.7ZM1153.77 127V113.662H1158.15C1161.1 113.662 1163.37 114.706 1163.37 117.856C1163.37 120.898 1161.08 122.266 1158.22 122.266H1156.44V127H1153.77ZM1156.44 120.16H1158.04C1159.87 120.16 1160.76 119.386 1160.76 117.856C1160.76 116.308 1159.78 115.786 1157.95 115.786H1156.44V120.16ZM1171.13 127.252C1170.2 127.252 1169.5 126.496 1169.5 125.524C1169.5 124.534 1170.2 123.796 1171.13 123.796C1172.09 123.796 1172.79 124.534 1172.79 125.524C1172.79 126.496 1172.09 127.252 1171.13 127.252ZM1183.46 127.252C1180.72 127.252 1178.94 124.858 1178.94 120.448C1178.94 116.056 1180.72 113.77 1183.46 113.77C1186.2 113.77 1187.96 116.074 1187.96 120.448C1187.96 124.858 1186.2 127.252 1183.46 127.252ZM1183.46 125.182C1184.61 125.182 1185.46 124.066 1185.46 120.448C1185.46 116.848 1184.61 115.84 1183.46 115.84C1182.31 115.84 1181.44 116.848 1181.44 120.448C1181.44 124.066 1182.31 125.182 1183.46 125.182ZM1193.68 127.252C1191.58 127.252 1190.15 126.46 1189.22 125.398L1190.46 123.724C1191.25 124.498 1192.22 125.092 1193.43 125.092C1194.78 125.092 1195.7 124.444 1195.7 123.328C1195.7 122.068 1194.92 121.294 1192.03 121.294V119.386C1194.47 119.386 1195.27 118.576 1195.27 117.46C1195.27 116.452 1194.62 115.858 1193.48 115.858C1192.53 115.858 1191.76 116.308 1190.96 117.046L1189.61 115.426C1190.77 114.418 1192.04 113.77 1193.61 113.77C1196.18 113.77 1197.93 115.03 1197.93 117.262C1197.93 118.666 1197.1 119.638 1195.72 120.196V120.286C1197.21 120.682 1198.36 121.78 1198.36 123.49C1198.36 125.866 1196.22 127.252 1193.68 127.252Z" fill="black"/>
<path d="M1129.04 195.05V190.64H1126.9V189.434H1129.04V185.546H1130.45V195.05H1129.04ZM1127.53 192.602L1127.66 193.772C1125.8 194.15 1124.29 194.204 1121.72 194.204H1120.69V186.338H1126.79V187.526H1122.11V189.614H1126.16V190.766H1122.11V193.016C1124.4 193.016 1125.84 192.944 1127.53 192.602ZM1122.71 197.138V195.95H1133.58V201.332H1132.1V197.138H1122.71ZM1132.16 185.204H1133.58V195.194H1132.16V185.204ZM1150.43 193.304L1149.76 194.528C1147.31 193.97 1144.79 192.242 1143.77 189.866C1142.74 192.224 1140.22 193.952 1137.79 194.528L1137.12 193.304C1139.95 192.746 1142.99 190.316 1142.99 187.562V186.32H1144.54V187.562C1144.54 190.316 1147.6 192.764 1150.43 193.304ZM1136.51 197.948H1151.15V199.172H1136.51V197.948ZM1166.03 193.898V195.086H1154.94V186.59H1165.87V187.778H1156.44V190.172H1165.51V191.342H1156.44V193.898H1166.03ZM1153.05 198.038H1167.71V199.244H1153.05V198.038ZM1180.93 188.012V186.698H1171.47V185.654H1182.39V189.02H1172.96V190.406H1182.68V191.468H1171.5V188.012H1180.93ZM1172.87 198.56V200.054H1182.95V201.116H1171.41V197.534H1180.99V196.184H1171.38V195.122H1182.45V198.56H1172.87ZM1169.63 192.692H1184.26V193.808H1169.63V192.692ZM1201.45 190.982V188.894H1193.6V190.982H1201.45ZM1202.9 185.69V192.152H1192.14V185.69H1193.6V187.76H1201.45V185.69H1202.9ZM1193.51 196.58V199.766H1203.21V200.972H1192.05V196.58H1193.51ZM1190.18 193.718H1204.85V194.906H1198.37V198.038H1196.89V194.906H1190.18V193.718ZM1209.18 192.44V196.22C1211.83 196.22 1214.21 196.094 1217.03 195.644L1217.18 196.85C1214.26 197.336 1211.81 197.444 1209.04 197.444H1207.71V191.252H1213.65V187.886H1207.65V186.68H1215.14V192.44H1209.18ZM1218.54 185.168H1220.02V201.35H1218.54V185.168ZM1232.91 187.166V188.354H1223.38V187.166H1227.4V185.186H1228.87V187.166H1232.91ZM1225.69 192.242C1225.69 193.376 1226.68 194.096 1228.14 194.096C1229.59 194.096 1230.6 193.376 1230.6 192.242C1230.6 191.126 1229.59 190.406 1228.14 190.406C1226.68 190.406 1225.69 191.126 1225.69 192.242ZM1232.01 192.242C1232.01 194.06 1230.42 195.248 1228.14 195.248C1225.85 195.248 1224.28 194.06 1224.28 192.242C1224.28 190.442 1225.85 189.254 1228.14 189.254C1230.42 189.254 1232.01 190.442 1232.01 192.242ZM1227.29 196.346V199.766H1236.58V200.972H1225.81V196.346H1227.29ZM1235.86 190.514H1238.23V191.756H1235.86V197.3H1234.38V185.186H1235.86V190.514ZM1255.65 185.186H1257.13V201.368H1255.65V185.186ZM1248.61 186.428C1251.01 186.428 1252.72 188.624 1252.72 192.062C1252.72 195.5 1251.01 197.696 1248.61 197.696C1246.22 197.696 1244.51 195.5 1244.51 192.062C1244.51 188.624 1246.22 186.428 1248.61 186.428ZM1248.61 187.76C1247.03 187.76 1245.91 189.452 1245.91 192.062C1245.91 194.69 1247.03 196.382 1248.61 196.382C1250.18 196.382 1251.29 194.69 1251.29 192.062C1251.29 189.452 1250.18 187.76 1248.61 187.76ZM1261.41 186.77H1268.83V197.264H1261.41V186.77ZM1267.39 187.958H1262.85V196.094H1267.39V187.958ZM1272.21 185.186H1273.69V201.368H1272.21V185.186ZM1282.79 188.066V190.118C1282.79 192.854 1284.74 195.644 1287.11 196.652L1286.28 197.84C1284.41 196.976 1282.83 195.122 1282.05 192.908C1281.32 195.266 1279.73 197.3 1277.9 198.236L1277.03 197.048C1279.35 195.95 1281.32 192.908 1281.32 190.118V188.066H1277.57V186.842H1286.59V188.066H1282.79ZM1288.77 185.204H1290.24V201.332H1288.77V185.204ZM1295.57 190.028C1295.57 191.558 1296.76 192.566 1298.41 192.566C1300.05 192.566 1301.24 191.558 1301.24 190.028C1301.24 188.516 1300.05 187.472 1298.41 187.472C1296.76 187.472 1295.57 188.516 1295.57 190.028ZM1299.15 193.772V196.508C1300.63 196.436 1302.12 196.346 1303.51 196.148L1303.63 197.228C1300.21 197.804 1296.45 197.858 1293.61 197.858L1293.41 196.616C1294.69 196.616 1296.16 196.598 1297.68 196.562V193.772C1295.57 193.52 1294.13 192.044 1294.13 190.028C1294.13 187.76 1295.91 186.23 1298.41 186.23C1300.88 186.23 1302.68 187.76 1302.68 190.028C1302.68 192.044 1301.22 193.502 1299.15 193.772ZM1308.57 191.846V193.088H1306.01V201.332H1304.53V185.168H1306.01V191.846H1308.57ZM1121.41 219.718L1120.87 218.53C1123.79 218.134 1126.51 216.37 1126.51 214.372H1121.38V213.184H1126.52V211.186H1128V213.184H1133.15V214.372H1128C1128 216.352 1130.74 218.134 1133.62 218.53L1133.09 219.718C1130.59 219.34 1128.29 218.098 1127.26 216.352C1126.24 218.098 1123.91 219.34 1121.41 219.718ZM1134.57 220.942V222.148H1128V227.35H1126.52V222.148H1119.97V220.942H1134.57ZM1137.72 217.63L1137.29 216.514C1140.27 216.316 1142.74 215.326 1142.99 213.724H1138.01V212.608H1143.08V211.078H1144.56V212.608H1149.62V213.724H1144.65C1144.9 215.326 1147.33 216.316 1150.34 216.514L1149.89 217.63C1147.19 217.414 1144.81 216.586 1143.82 215.092C1142.83 216.586 1140.44 217.414 1137.72 217.63ZM1151.09 219.484H1144.56V220.978H1149.24V224.506H1139.75V226.036H1149.72V227.152H1138.31V223.444H1147.78V222.076H1138.26V220.978H1143.06V219.484H1136.53V218.35H1151.09V219.484ZM1157.07 222.364C1158.31 222.364 1159.21 221.338 1159.21 219.898C1159.21 218.494 1158.31 217.468 1157.07 217.468C1155.81 217.468 1154.93 218.494 1154.93 219.898C1154.93 221.338 1155.81 222.364 1157.07 222.364ZM1157.07 216.226C1159.07 216.226 1160.52 217.738 1160.52 219.898C1160.52 222.094 1159.07 223.588 1157.07 223.588C1155.07 223.588 1153.61 222.094 1153.61 219.898C1153.61 217.738 1155.07 216.226 1157.07 216.226ZM1157.79 211.654V213.94H1161.06V215.146H1153.05V213.94H1156.33V211.654H1157.79ZM1165.33 211.168H1166.75V227.314H1165.33V219.196H1163.26V226.54H1161.87V211.546H1163.26V217.99H1165.33V211.168ZM1179.64 217.108V222.67H1178.23V211.492H1179.64V215.902H1181.83V211.204H1183.26V223.192H1181.83V217.108H1179.64ZM1177.08 218.17L1177.23 219.376C1175.12 219.79 1173.36 219.88 1171.45 219.88H1170.42V212.572H1171.9V218.656C1173.57 218.638 1175.19 218.53 1177.08 218.17ZM1174.17 225.622H1183.72V226.828H1172.69V221.536H1174.17V225.622ZM1199.3 221.05V216.64H1197.16V215.434H1199.3V211.546H1200.71V221.05H1199.3ZM1197.79 218.602L1197.92 219.772C1196.06 220.15 1194.55 220.204 1191.98 220.204H1190.95V212.338H1197.05V213.526H1192.37V215.614H1196.42V216.766H1192.37V219.016C1194.66 219.016 1196.1 218.944 1197.79 218.602ZM1192.97 223.138V221.95H1203.84V227.332H1202.36V223.138H1192.97ZM1202.42 211.204H1203.84V221.194H1202.42V211.204ZM1220.69 219.304L1220.02 220.528C1217.57 219.97 1215.05 218.242 1214.03 215.866C1213 218.224 1210.48 219.952 1208.05 220.528L1207.38 219.304C1210.21 218.746 1213.25 216.316 1213.25 213.562V212.32H1214.8V213.562C1214.8 216.316 1217.86 218.764 1220.69 219.304ZM1206.77 223.948H1221.41V225.172H1206.77V223.948ZM1236.29 219.898V221.086H1225.2V212.59H1236.13V213.778H1226.7V216.172H1235.77V217.342H1226.7V219.898H1236.29ZM1223.31 224.038H1237.96V225.244H1223.31V224.038ZM1251.19 214.012V212.698H1241.73V211.654H1252.65V215.02H1243.22V216.406H1252.94V217.468H1241.76V214.012H1251.19ZM1243.13 224.56V226.054H1253.21V227.116H1241.67V223.534H1251.25V222.184H1241.64V221.122H1252.71V224.56H1243.13ZM1239.89 218.692H1254.52V219.808H1239.89V218.692ZM1123.09 244.62L1122.44 246.636H1126.43L1125.8 244.62C1125.32 243.126 1124.9 241.686 1124.47 240.156H1124.4C1123.99 241.704 1123.55 243.126 1123.09 244.62ZM1119.05 252L1123.54 238.788H1125.39L1129.87 252H1128.11L1126.85 247.968H1122.02L1120.75 252H1119.05ZM1131.73 252V238.788H1133.41V252H1131.73ZM1144.21 250.128H1150.81V251.334H1136.14V250.128H1142.71V247.086H1137.98V242.1H1147.56V239.58H1137.94V238.374H1149V243.288H1139.44V245.898H1149.37V247.086H1144.21V250.128ZM1163.37 245.196V242.28H1159.01V245.196H1163.37ZM1164.83 242.946V246.384H1157.56V238.266H1159.01V241.11H1163.37V238.266H1164.83V241.74H1168.55V237.186H1170.05V249.138H1168.55V242.946H1164.83ZM1161.14 251.766H1170.43V252.972H1159.66V247.968H1161.14V251.766ZM1175.81 248.796V247.59H1186.61V253.35H1185.11V248.796H1175.81ZM1181.67 243.18H1185.11V240.75H1181.67C1181.78 241.128 1181.85 241.524 1181.85 241.956C1181.85 242.406 1181.78 242.802 1181.67 243.18ZM1177.7 244.602C1179.28 244.602 1180.45 243.504 1180.45 241.956C1180.45 240.444 1179.28 239.346 1177.7 239.346C1176.13 239.346 1174.96 240.444 1174.96 241.956C1174.96 243.504 1176.13 244.602 1177.7 244.602ZM1185.11 237.204L1186.61 237.186V246.708H1185.11V244.386H1181.03C1180.27 245.304 1179.1 245.862 1177.7 245.862C1175.32 245.862 1173.56 244.242 1173.56 241.956C1173.56 239.688 1175.32 238.086 1177.7 238.086C1179.1 238.086 1180.29 238.644 1181.04 239.562H1185.11V237.204ZM1194.6 248.508C1196.07 248.508 1197.13 247.464 1197.13 246.024C1197.13 244.566 1196.07 243.522 1194.6 243.522C1193.14 243.522 1192.08 244.566 1192.08 246.024C1192.08 247.464 1193.14 248.508 1194.6 248.508ZM1194.6 242.298C1196.9 242.298 1198.54 243.846 1198.54 246.024C1198.54 248.22 1196.9 249.732 1194.6 249.732C1192.33 249.732 1190.69 248.22 1190.69 246.024C1190.69 243.846 1192.33 242.298 1194.6 242.298ZM1195.32 237.384V239.778H1199.29V240.966H1189.77V239.778H1193.84V237.384H1195.32ZM1204.95 243.828V245.07H1202.3V253.332H1200.82V237.204H1202.3V243.828H1204.95ZM1214.57 245.898H1218.25V242.01H1214.52C1214.66 242.64 1214.75 243.324 1214.75 244.062C1214.75 244.728 1214.68 245.34 1214.57 245.898ZM1210.74 248.382C1212.27 248.382 1213.37 246.69 1213.37 244.062C1213.37 241.452 1212.27 239.76 1210.74 239.76C1209.19 239.76 1208.11 241.452 1208.11 244.062C1208.11 246.69 1209.19 248.382 1210.74 248.382ZM1218.25 237.186H1219.72V253.368H1218.25V247.104H1214.21C1213.55 248.742 1212.29 249.696 1210.74 249.696C1208.38 249.696 1206.71 247.5 1206.71 244.062C1206.71 240.624 1208.38 238.428 1210.74 238.428C1212.23 238.428 1213.42 239.292 1214.11 240.804H1218.25V237.186ZM1238.81 249.192V244.548H1236.11V243.342H1238.81V241.452H1236.11V240.264H1238.81V237.204H1240.31V249.192H1238.81ZM1230.51 239.688V245.502C1231.31 245.484 1232.13 245.448 1232.94 245.412V239.688H1230.51ZM1236.49 245.124L1236.58 246.222C1233.48 246.708 1229.83 246.762 1227.22 246.762L1227.06 245.538C1227.67 245.538 1228.37 245.538 1229.09 245.52V239.688H1227.49V238.5H1235.99V239.688H1234.38V245.322C1235.1 245.268 1235.82 245.196 1236.49 245.124ZM1231.43 251.766H1240.72V252.972H1229.96V248.22H1231.43V251.766ZM1253.45 244.548L1252.73 245.682C1250.87 245.088 1249.38 243.792 1248.64 242.118C1247.94 243.9 1246.44 245.304 1244.52 245.97L1243.76 244.8C1246.21 244.026 1247.87 242.01 1247.87 239.796V239.436H1244.18V238.23H1253.03V239.436H1249.38V239.796C1249.38 241.92 1251.07 243.81 1253.45 244.548ZM1255.35 251.91V249.822H1247.87V251.91H1255.35ZM1255.35 248.67V246.708H1256.81V253.116H1246.41V246.708H1247.87V248.67H1255.35ZM1255.34 237.186H1256.81V245.934H1255.34V237.186ZM1269.7 238.662V239.796H1260.18V238.662H1264.19V237.024H1265.67V238.662H1269.7ZM1262.48 243.162C1262.48 244.116 1263.43 244.71 1264.93 244.71C1266.42 244.71 1267.39 244.116 1267.39 243.162C1267.39 242.19 1266.42 241.614 1264.93 241.614C1263.43 241.614 1262.48 242.19 1262.48 243.162ZM1268.8 243.162C1268.8 244.8 1267.27 245.808 1264.93 245.808C1262.61 245.808 1261.08 244.8 1261.08 243.162C1261.08 241.524 1262.61 240.516 1264.93 240.516C1267.27 240.516 1268.8 241.524 1268.8 243.162ZM1263.88 250.47V252.018H1273.24V253.152H1262.44V249.39H1271.19V247.986H1262.39V246.888H1272.65V250.47H1263.88ZM1272.65 241.02H1275.04V242.244H1272.65V246.06H1271.17V237.132H1272.65V241.02ZM1294.6 243.342L1293.99 244.53C1291.49 244.098 1289.06 242.694 1288.01 240.75C1287.01 242.712 1284.58 244.098 1282.06 244.53L1281.46 243.342C1284.4 242.91 1287.24 240.966 1287.24 238.662V237.762H1288.79V238.662C1288.79 240.912 1291.67 242.91 1294.6 243.342ZM1295.3 246.276L1295.32 247.5H1288.72V253.35H1287.24V247.5H1280.72V246.276H1295.3ZM1314.54 237.204V246.42H1313.06V237.204H1314.54ZM1305.86 239.364C1304.26 239.364 1303.11 240.426 1303.11 241.902C1303.11 243.396 1304.26 244.44 1305.86 244.44C1307.46 244.44 1308.65 243.396 1308.65 241.902C1308.65 240.426 1307.46 239.364 1305.86 239.364ZM1305.86 245.664C1303.43 245.664 1301.67 244.134 1301.67 241.902C1301.67 239.67 1303.43 238.14 1305.86 238.14C1308.31 238.14 1310.09 239.67 1310.09 241.902C1310.09 244.134 1308.31 245.664 1305.86 245.664ZM1312.74 247.122V247.986C1312.74 249.66 1313.93 251.316 1315.98 252L1315.24 253.116C1313.66 252.54 1312.54 251.424 1312 250.074C1311.5 251.388 1310.51 252.612 1309.01 253.26C1307.46 252.648 1306.49 251.478 1306.01 250.128C1305.43 251.424 1304.33 252.54 1302.82 253.116L1302.08 252C1304.12 251.28 1305.32 249.534 1305.32 247.986V247.122H1306.74V247.986C1306.74 249.408 1307.48 250.938 1308.98 251.82C1310.52 250.866 1311.3 249.246 1311.3 247.986V247.122H1312.74ZM1326.79 243.792V237.618H1328.2V252.522H1326.79V244.98H1323.48C1322.51 246.852 1320.96 248.526 1318.73 249.858L1317.87 248.796C1321.32 246.726 1323.05 243.828 1323.32 240.444H1318.55V239.238H1324.78C1324.78 240.822 1324.54 242.352 1324 243.792H1326.79ZM1330.16 237.186H1331.56V253.332H1330.16V237.186ZM1343.98 239.166V240.354H1334.46V239.166H1338.48V237.186H1339.95V239.166H1343.98ZM1336.77 244.242C1336.77 245.376 1337.76 246.096 1339.21 246.096C1340.67 246.096 1341.68 245.376 1341.68 244.242C1341.68 243.126 1340.67 242.406 1339.21 242.406C1337.76 242.406 1336.77 243.126 1336.77 244.242ZM1343.08 244.242C1343.08 246.06 1341.5 247.248 1339.21 247.248C1336.93 247.248 1335.36 246.06 1335.36 244.242C1335.36 242.442 1336.93 241.254 1339.21 241.254C1341.5 241.254 1343.08 242.442 1343.08 244.242ZM1338.37 248.346V251.766H1347.66V252.972H1336.89V248.346H1338.37ZM1346.94 242.514H1349.31V243.756H1346.94V249.3H1345.46V237.186H1346.94V242.514ZM1353.13 239.958V248.076C1355.99 248.076 1358.06 247.95 1360.4 247.536L1360.56 248.76C1358.09 249.228 1355.97 249.336 1352.93 249.336H1351.65V238.734H1359.16V239.958H1353.13ZM1366.05 243.558V244.782H1363.39V253.368H1361.91V237.186H1363.39V243.558H1366.05ZM1369.07 252.234C1368.42 252.234 1367.88 251.73 1367.88 250.992C1367.88 250.236 1368.42 249.714 1369.07 249.714C1369.72 249.714 1370.26 250.236 1370.26 250.992C1370.26 251.73 1369.72 252.234 1369.07 252.234Z" fill="black"/>
<path fill-rule="evenodd" clip-rule="evenodd" d="M1159.86 29.5262C1159.8 29.5266 1159.74 29.5317 1159.67 29.5414H1125.71C1122.92 29.5414 1120.65 31.8195 1120.65 34.6039V100.416C1120.65 103.201 1122.92 105.479 1125.71 105.479H1171.27C1174.06 105.479 1176.33 103.201 1176.33 100.416V98.5129C1176.33 98.4749 1176.34 98.437 1176.34 98.399V84.0063C1176.34 83.9522 1176.34 83.8981 1176.33 83.8443V46.192C1176.37 45.9637 1176.34 45.7297 1176.26 45.5155C1176.17 45.3014 1176.03 45.1151 1175.84 44.977L1160.89 30.0249C1160.77 29.8667 1160.61 29.7391 1160.44 29.6524C1160.26 29.5658 1160.06 29.5226 1159.86 29.5262ZM1125.71 32.0727H1158.62V42.1977C1158.62 44.982 1160.89 47.2602 1163.68 47.2602H1173.8V82.6875H1123.18V34.6039C1123.18 33.1788 1124.28 32.0727 1125.71 32.0727ZM1161.15 33.8622L1172.01 44.7289H1163.68C1162.25 44.7289 1161.15 43.6227 1161.15 42.1977V33.8622ZM1126.92 37.125C1126.59 37.1418 1126.27 37.2912 1126.05 37.5405C1125.82 37.7897 1125.7 38.1183 1125.72 38.4539C1125.74 38.7896 1125.89 39.1048 1126.13 39.3303C1126.38 39.5558 1126.71 39.6731 1127.05 39.6563H1139.69C1140.02 39.6563 1140.34 39.5229 1140.58 39.2856C1140.82 39.0482 1140.95 38.7263 1140.95 38.3907C1140.95 38.055 1140.82 37.7331 1140.58 37.4957C1140.34 37.2584 1140.02 37.125 1139.69 37.125H1127.05C1127.01 37.1229 1126.96 37.1229 1126.92 37.125ZM1126.92 42.1875C1126.76 42.1958 1126.59 42.2368 1126.44 42.3081C1126.29 42.3794 1126.16 42.4796 1126.05 42.603C1125.93 42.7264 1125.85 42.8706 1125.79 43.0273C1125.74 43.184 1125.71 43.3502 1125.72 43.5164C1125.73 43.6826 1125.77 43.8456 1125.84 43.996C1125.91 44.1463 1126.01 44.2812 1126.13 44.3928C1126.26 44.5045 1126.4 44.5907 1126.56 44.6467C1126.72 44.7026 1126.88 44.7271 1127.05 44.7188H1149.83C1150.16 44.7188 1150.49 44.5854 1150.72 44.3481C1150.96 44.1107 1151.09 43.7888 1151.09 43.4532C1151.09 43.1175 1150.96 42.7956 1150.72 42.5582C1150.49 42.3209 1150.16 42.1875 1149.83 42.1875H1127.05C1127.01 42.1854 1126.96 42.1854 1126.92 42.1875ZM1126.92 49.7813C1126.76 49.7896 1126.59 49.8306 1126.44 49.9018C1126.29 49.9731 1126.16 50.0733 1126.05 50.1967C1125.93 50.3201 1125.85 50.4643 1125.79 50.621C1125.74 50.7778 1125.71 50.944 1125.72 51.1102C1125.73 51.2764 1125.77 51.4393 1125.84 51.5897C1125.91 51.7401 1126.01 51.8749 1126.13 51.9866C1126.26 52.0982 1126.4 52.1845 1126.56 52.2404C1126.72 52.2963 1126.88 52.3208 1127.05 52.3125H1137.17C1137.51 52.3125 1137.83 52.1792 1138.07 51.9418C1138.31 51.7045 1138.44 51.3826 1138.44 51.0469C1138.44 50.7112 1138.31 50.3893 1138.07 50.152C1137.83 49.9146 1137.51 49.7813 1137.17 49.7813H1127.05C1127.01 49.7792 1126.96 49.7792 1126.92 49.7813ZM1142.11 49.7813C1141.94 49.7896 1141.78 49.8306 1141.63 49.9018C1141.48 49.9731 1141.34 50.0733 1141.23 50.1967C1141.12 50.3201 1141.03 50.4643 1140.98 50.621C1140.92 50.7778 1140.9 50.944 1140.91 51.1102C1140.91 51.2764 1140.96 51.4393 1141.03 51.5897C1141.1 51.7401 1141.2 51.8749 1141.32 51.9866C1141.45 52.0982 1141.59 52.1845 1141.75 52.2404C1141.9 52.2963 1142.07 52.3208 1142.24 52.3125H1144.77C1145.1 52.3125 1145.42 52.1792 1145.66 51.9418C1145.9 51.7045 1146.03 51.3826 1146.03 51.0469C1146.03 50.7112 1145.9 50.3893 1145.66 50.152C1145.42 49.9146 1145.1 49.7813 1144.77 49.7813H1142.24C1142.19 49.7792 1142.15 49.7792 1142.11 49.7813ZM1149.7 49.7813C1149.54 49.7896 1149.37 49.8306 1149.22 49.9018C1149.07 49.9731 1148.94 50.0733 1148.83 50.1967C1148.71 50.3201 1148.63 50.4643 1148.57 50.621C1148.52 50.7778 1148.49 50.944 1148.5 51.1102C1148.51 51.2764 1148.55 51.4393 1148.62 51.5897C1148.69 51.7401 1148.79 51.8749 1148.92 51.9866C1149.04 52.0982 1149.18 52.1845 1149.34 52.2404C1149.5 52.2963 1149.66 52.3208 1149.83 52.3125H1170.06C1170.4 52.3125 1170.72 52.1792 1170.96 51.9418C1171.19 51.7045 1171.33 51.3826 1171.33 51.0469C1171.33 50.7112 1171.19 50.3893 1170.96 50.152C1170.72 49.9146 1170.4 49.7813 1170.06 49.7813H1149.83C1149.79 49.7792 1149.74 49.7792 1149.7 49.7813ZM1126.92 54.8438C1126.76 54.8521 1126.59 54.8931 1126.44 54.9643C1126.29 55.0356 1126.16 55.1358 1126.05 55.2592C1125.93 55.3826 1125.85 55.5268 1125.79 55.6835C1125.74 55.8403 1125.71 56.0065 1125.72 56.1727C1125.73 56.3389 1125.77 56.5018 1125.84 56.6522C1125.91 56.8026 1126.01 56.9374 1126.13 57.0491C1126.26 57.1607 1126.4 57.247 1126.56 57.3029C1126.72 57.3588 1126.88 57.3833 1127.05 57.375H1142.24C1142.57 57.375 1142.89 57.2417 1143.13 57.0043C1143.37 56.767 1143.5 56.4451 1143.5 56.1094C1143.5 55.7737 1143.37 55.4518 1143.13 55.2145C1142.89 54.9771 1142.57 54.8438 1142.24 54.8438H1127.05C1127.01 54.8417 1126.96 54.8417 1126.92 54.8438ZM1147.17 54.8438C1147.01 54.8521 1146.84 54.8931 1146.69 54.9643C1146.54 55.0356 1146.41 55.1358 1146.3 55.2592C1146.18 55.3826 1146.1 55.5268 1146.04 55.6835C1145.99 55.8403 1145.96 56.0065 1145.97 56.1727C1145.98 56.3389 1146.02 56.5018 1146.09 56.6522C1146.16 56.8026 1146.26 56.9374 1146.38 57.0491C1146.51 57.1607 1146.65 57.247 1146.81 57.3029C1146.97 57.3588 1147.13 57.3833 1147.3 57.375H1149.83C1150.16 57.375 1150.49 57.2417 1150.72 57.0043C1150.96 56.767 1151.09 56.4451 1151.09 56.1094C1151.09 55.7737 1150.96 55.4518 1150.72 55.2145C1150.49 54.9771 1150.16 54.8438 1149.83 54.8438H1147.3C1147.26 54.8417 1147.21 54.8417 1147.17 54.8438ZM1154.77 54.8438C1154.6 54.8521 1154.44 54.8931 1154.29 54.9643C1154.14 55.0356 1154 55.1358 1153.89 55.2592C1153.78 55.3826 1153.69 55.5268 1153.63 55.6835C1153.58 55.8403 1153.55 56.0065 1153.56 56.1727C1153.57 56.3389 1153.61 56.5018 1153.68 56.6522C1153.75 56.8026 1153.85 56.9374 1153.98 57.0491C1154.1 57.1607 1154.25 57.247 1154.4 57.3029C1154.56 57.3588 1154.73 57.3833 1154.89 57.375H1170.06C1170.4 57.375 1170.72 57.2417 1170.96 57.0043C1171.19 56.767 1171.33 56.4451 1171.33 56.1094C1171.33 55.7737 1171.19 55.4518 1170.96 55.2145C1170.72 54.9771 1170.4 54.8438 1170.06 54.8438H1154.89C1154.85 54.8417 1154.81 54.8417 1154.77 54.8438ZM1126.92 59.9063C1126.76 59.9146 1126.59 59.9556 1126.44 60.0268C1126.29 60.0981 1126.16 60.1983 1126.05 60.3217C1125.93 60.4451 1125.85 60.5893 1125.79 60.746C1125.74 60.9028 1125.71 61.069 1125.72 61.2352C1125.73 61.4014 1125.77 61.5643 1125.84 61.7147C1125.91 61.8651 1126.01 61.9999 1126.13 62.1116C1126.26 62.2232 1126.4 62.3095 1126.56 62.3654C1126.72 62.4213 1126.88 62.4458 1127.05 62.4375H1147.3C1147.63 62.4375 1147.96 62.3042 1148.19 62.0668C1148.43 61.8295 1148.56 61.5076 1148.56 61.1719C1148.56 60.8362 1148.43 60.5143 1148.19 60.277C1147.96 60.0396 1147.63 59.9063 1147.3 59.9063H1127.05C1127.01 59.9042 1126.96 59.9042 1126.92 59.9063ZM1152.23 59.9063C1152.07 59.9146 1151.9 59.9556 1151.75 60.0268C1151.6 60.0981 1151.47 60.1983 1151.36 60.3217C1151.25 60.4451 1151.16 60.5893 1151.1 60.746C1151.05 60.9028 1151.02 61.069 1151.03 61.2352C1151.04 61.4014 1151.08 61.5643 1151.15 61.7147C1151.22 61.8651 1151.32 61.9999 1151.45 62.1116C1151.57 62.2232 1151.71 62.3095 1151.87 62.3654C1152.03 62.4213 1152.19 62.4458 1152.36 62.4375H1154.89C1155.23 62.4375 1155.55 62.3042 1155.79 62.0668C1156.02 61.8295 1156.16 61.5076 1156.16 61.1719C1156.16 60.8362 1156.02 60.5143 1155.79 60.277C1155.55 60.0396 1155.23 59.9063 1154.89 59.9063H1152.36C1152.32 59.9042 1152.28 59.9042 1152.23 59.9063ZM1159.83 59.9063C1159.66 59.9146 1159.5 59.9556 1159.35 60.0268C1159.2 60.0981 1159.06 60.1983 1158.95 60.3217C1158.84 60.4451 1158.75 60.5893 1158.7 60.746C1158.64 60.9028 1158.62 61.069 1158.63 61.2352C1158.63 61.4014 1158.67 61.5643 1158.75 61.7147C1158.82 61.8651 1158.92 61.9999 1159.04 62.1116C1159.16 62.2232 1159.31 62.3095 1159.47 62.3654C1159.62 62.4213 1159.79 62.4458 1159.95 62.4375H1170.06C1170.4 62.4375 1170.72 62.3042 1170.96 62.0668C1171.19 61.8295 1171.33 61.5076 1171.33 61.1719C1171.33 60.8362 1171.19 60.5143 1170.96 60.277C1170.72 60.0396 1170.4 59.9063 1170.06 59.9063H1159.95C1159.91 59.9042 1159.87 59.9042 1159.83 59.9063ZM1126.92 64.9688C1126.76 64.9771 1126.59 65.0181 1126.44 65.0893C1126.29 65.1606 1126.16 65.2608 1126.05 65.3842C1125.93 65.5076 1125.85 65.6518 1125.79 65.8085C1125.74 65.9653 1125.71 66.1315 1125.72 66.2977C1125.73 66.4639 1125.77 66.6268 1125.84 66.7772C1125.91 66.9276 1126.01 67.0624 1126.13 67.1741C1126.26 67.2857 1126.4 67.372 1126.56 67.4279C1126.72 67.4838 1126.88 67.5083 1127.05 67.5H1137.17C1137.51 67.5 1137.83 67.3667 1138.07 67.1293C1138.31 66.892 1138.44 66.5701 1138.44 66.2344C1138.44 65.8987 1138.31 65.5768 1138.07 65.3395C1137.83 65.1021 1137.51 64.9688 1137.17 64.9688H1127.05C1127.01 64.9667 1126.96 64.9667 1126.92 64.9688ZM1142.11 64.9688C1141.94 64.9771 1141.78 65.0181 1141.63 65.0893C1141.48 65.1606 1141.34 65.2608 1141.23 65.3842C1141.12 65.5076 1141.03 65.6518 1140.98 65.8085C1140.92 65.9653 1140.9 66.1315 1140.91 66.2977C1140.91 66.4639 1140.96 66.6268 1141.03 66.7772C1141.1 66.9276 1141.2 67.0624 1141.32 67.1741C1141.45 67.2857 1141.59 67.372 1141.75 67.4279C1141.9 67.4838 1142.07 67.5083 1142.24 67.5H1144.77C1145.1 67.5 1145.42 67.3667 1145.66 67.1293C1145.9 66.892 1146.03 66.5701 1146.03 66.2344C1146.03 65.8987 1145.9 65.5768 1145.66 65.3395C1145.42 65.1021 1145.1 64.9688 1144.77 64.9688H1142.24C1142.19 64.9667 1142.15 64.9667 1142.11 64.9688ZM1149.7 64.9688C1149.54 64.9771 1149.37 65.0181 1149.22 65.0893C1149.07 65.1606 1148.94 65.2608 1148.83 65.3842C1148.71 65.5076 1148.63 65.6518 1148.57 65.8085C1148.52 65.9653 1148.49 66.1315 1148.5 66.2977C1148.51 66.4639 1148.55 66.6268 1148.62 66.7772C1148.69 66.9276 1148.79 67.0624 1148.92 67.1741C1149.04 67.2857 1149.18 67.372 1149.34 67.4279C1149.5 67.4838 1149.66 67.5083 1149.83 67.5H1170.06C1170.39 67.5 1170.72 67.3667 1170.95 67.1293C1171.19 66.892 1171.32 66.5701 1171.32 66.2344C1171.32 65.8987 1171.19 65.5768 1170.95 65.3395C1170.72 65.1021 1170.39 64.9688 1170.06 64.9688H1149.83C1149.79 64.9667 1149.74 64.9667 1149.7 64.9688ZM1123.29 85.3226H1173.71V98.399C1173.71 100.996 1172.03 102.839 1170.2 102.839H1126.8C1124.97 102.839 1123.29 100.996 1123.29 98.399L1123.29 85.3226ZM1139.69 87.75V87.7551C1139.65 87.7529 1139.61 87.7529 1139.56 87.7551C1139.33 87.7683 1139.11 87.844 1138.92 87.9742C1138.73 88.1043 1138.58 88.2839 1138.48 88.4936C1138.39 88.7033 1138.35 88.9352 1138.38 89.1641C1138.4 89.3931 1138.49 89.6104 1138.63 89.7927L1141.86 94.0959L1138.63 98.399C1138.43 98.6675 1138.35 99.0051 1138.39 99.3374C1138.44 99.6696 1138.62 99.9695 1138.89 100.171C1139.16 100.372 1139.49 100.459 1139.83 100.411C1140.16 100.364 1140.46 100.186 1140.66 99.9177L1143.44 96.2095L1146.22 99.9177C1146.42 100.186 1146.72 100.364 1147.05 100.411C1147.38 100.459 1147.72 100.372 1147.99 100.171C1148.26 99.9695 1148.44 99.6696 1148.48 99.3374C1148.53 99.0051 1148.44 98.6675 1148.24 98.399L1145.02 94.0959L1148.24 89.7927C1148.39 89.5992 1148.48 89.3662 1148.5 89.1221C1148.52 88.878 1148.47 88.6333 1148.36 88.4175C1148.24 88.2018 1148.06 88.0244 1147.85 87.9068C1147.63 87.7892 1147.39 87.7365 1147.15 87.7551C1146.96 87.769 1146.78 87.8226 1146.62 87.9122C1146.46 88.0018 1146.33 88.1253 1146.22 88.274L1143.44 91.9823L1140.66 88.274C1140.55 88.1195 1140.4 87.9922 1140.23 87.9015C1140.07 87.8108 1139.88 87.759 1139.69 87.75ZM1132.05 87.7551C1131.96 87.7558 1131.87 87.766 1131.78 87.7855H1129.54C1129.2 87.7855 1128.88 87.9188 1128.64 88.1562C1128.4 88.3935 1128.27 88.7154 1128.27 89.0511C1128.27 89.3868 1128.4 89.7087 1128.64 89.946C1128.88 90.1834 1129.2 90.3167 1129.54 90.3167H1130.8V99.1508C1130.8 99.4864 1130.94 99.8084 1131.17 100.046C1131.41 100.283 1131.73 100.416 1132.07 100.416C1132.4 100.416 1132.73 100.283 1132.96 100.046C1133.2 99.8084 1133.33 99.4864 1133.33 99.1508V90.3167H1134.6C1134.93 90.3167 1135.26 90.1834 1135.49 89.946C1135.73 89.7087 1135.86 89.3868 1135.86 89.0511C1135.86 88.7154 1135.73 88.3935 1135.49 88.1562C1135.26 87.9188 1134.93 87.7855 1134.6 87.7855H1132.34C1132.24 87.7641 1132.15 87.7539 1132.05 87.7551ZM1154.81 87.7551C1154.72 87.7558 1154.63 87.766 1154.54 87.7855H1152.28C1151.94 87.7855 1151.62 87.9188 1151.38 88.1562C1151.14 88.3935 1151.01 88.7154 1151.01 89.0511C1151.01 89.3868 1151.14 89.7087 1151.38 89.946C1151.62 90.1834 1151.94 90.3167 1152.28 90.3167H1153.56V99.1508C1153.56 99.4864 1153.7 99.8084 1153.93 100.046C1154.17 100.283 1154.49 100.416 1154.83 100.416C1155.16 100.416 1155.49 100.283 1155.72 100.046C1155.96 99.8084 1156.09 99.4864 1156.09 99.1508V90.3167H1157.34C1157.68 90.3167 1158 90.1834 1158.23 89.946C1158.47 89.7087 1158.61 89.3868 1158.61 89.0511C1158.61 88.7154 1158.47 88.3935 1158.23 88.1562C1158 87.9188 1157.68 87.7855 1157.34 87.7855H1155.1C1155 87.7641 1154.91 87.7539 1154.81 87.7551Z" fill="black"/>
<rect x="468" width="1" height="270" fill="black"/>
</svg>
